<mxfile host="app.diagrams.net" agent="Mozilla/5.0 (Windows NT 10.0; Win64; x64) AppleWebKit/537.36 (KHTML, like Gecko) Chrome/132.0.0.0 Safari/537.36 Edg/132.0.0.0" version="26.0.12">
  <diagram name="第 1 页" id="jB1ZeW7aCPvUSVYaDQJw">
    <mxGraphModel dx="1107" dy="610" grid="1" gridSize="10" guides="1" tooltips="1" connect="1" arrows="1" fold="1" page="1" pageScale="1" pageWidth="827" pageHeight="1169" math="0" shadow="0">
      <root>
        <mxCell id="0" />
        <mxCell id="1" parent="0" />
        <mxCell id="W3P_yqv4Tu-tLpdnqWf0-15" value="" style="edgeStyle=orthogonalEdgeStyle;rounded=0;orthogonalLoop=1;jettySize=auto;html=1;" parent="1" source="W3P_yqv4Tu-tLpdnqWf0-1" target="W3P_yqv4Tu-tLpdnqWf0-12" edge="1">
          <mxGeometry relative="1" as="geometry">
            <Array as="points">
              <mxPoint x="100" y="190" />
              <mxPoint x="100" y="190" />
            </Array>
          </mxGeometry>
        </mxCell>
        <mxCell id="W3P_yqv4Tu-tLpdnqWf0-1" value="" style="sketch=0;outlineConnect=0;fontColor=#232F3E;gradientColor=none;strokeColor=#232F3E;fillColor=#ffffff;dashed=0;verticalLabelPosition=bottom;verticalAlign=top;align=center;html=1;fontSize=12;fontStyle=0;aspect=fixed;shape=mxgraph.aws4.resourceIcon;resIcon=mxgraph.aws4.user;" parent="1" vertex="1">
          <mxGeometry x="80" y="120" width="40" height="40" as="geometry" />
        </mxCell>
        <mxCell id="W3P_yqv4Tu-tLpdnqWf0-3" value="&lt;font face=&quot;Comic Sans MS&quot;&gt;Question&lt;/font&gt;" style="whiteSpace=wrap;html=1;shape=mxgraph.basic.roundRectCallout;dx=30;dy=15;size=16.99;boundedLbl=1;" parent="1" vertex="1">
          <mxGeometry x="100" y="80" width="90" height="50" as="geometry" />
        </mxCell>
        <mxCell id="W3P_yqv4Tu-tLpdnqWf0-12" value="" style="rounded=1;whiteSpace=wrap;html=1;fillColor=#dae8fc;movable=1;resizable=1;rotatable=1;deletable=1;editable=1;locked=0;connectable=1;strokeColor=#6c8ebf;" parent="1" vertex="1">
          <mxGeometry x="75" y="203" width="120" height="40" as="geometry" />
        </mxCell>
        <mxCell id="W3P_yqv4Tu-tLpdnqWf0-16" value="" style="endArrow=classic;html=1;rounded=0;exitX=0.25;exitY=1;exitDx=0;exitDy=0;strokeColor=default;align=center;verticalAlign=middle;fontFamily=Helvetica;fontSize=11;fontColor=default;labelBackgroundColor=default;" parent="1" edge="1">
          <mxGeometry width="50" height="50" relative="1" as="geometry">
            <mxPoint x="98" y="243" as="sourcePoint" />
            <mxPoint x="98" y="290" as="targetPoint" />
          </mxGeometry>
        </mxCell>
        <mxCell id="W3P_yqv4Tu-tLpdnqWf0-20" value="" style="rounded=1;whiteSpace=wrap;html=1;" parent="1" vertex="1">
          <mxGeometry x="60" y="290" width="150" height="170" as="geometry" />
        </mxCell>
        <mxCell id="W3P_yqv4Tu-tLpdnqWf0-21" value="" style="endArrow=classic;html=1;rounded=0;exitX=0.929;exitY=0.032;exitDx=0;exitDy=0;exitPerimeter=0;" parent="1" source="W3P_yqv4Tu-tLpdnqWf0-20" edge="1">
          <mxGeometry width="50" height="50" relative="1" as="geometry">
            <mxPoint x="200" y="293" as="sourcePoint" />
            <mxPoint x="250" y="243" as="targetPoint" />
          </mxGeometry>
        </mxCell>
        <mxCell id="W3P_yqv4Tu-tLpdnqWf0-96" value="Database&amp;nbsp;&lt;div&gt;&lt;span style=&quot;background-color: initial;&quot;&gt;schema&lt;/span&gt;&lt;/div&gt;" style="text;html=1;align=center;verticalAlign=middle;whiteSpace=wrap;rounded=0;" parent="1" vertex="1">
          <mxGeometry x="107" y="309" width="100" height="30" as="geometry" />
        </mxCell>
        <mxCell id="W3P_yqv4Tu-tLpdnqWf0-97" value="" style="shape=image;verticalLabelPosition=bottom;labelBackgroundColor=default;verticalAlign=top;aspect=fixed;imageAspect=0;image=https://png.pngtree.com/png-clipart/20190705/original/pngtree-sql-file-format-icon-design-png-image_4306587.jpg;" parent="1" vertex="1">
          <mxGeometry x="70.5" y="355" width="40" height="40" as="geometry" />
        </mxCell>
        <mxCell id="W3P_yqv4Tu-tLpdnqWf0-98" value="Questions &amp;amp; correct SQL" style="text;html=1;align=center;verticalAlign=middle;whiteSpace=wrap;rounded=0;" parent="1" vertex="1">
          <mxGeometry x="107" y="360" width="100" height="30" as="geometry" />
        </mxCell>
        <mxCell id="W3P_yqv4Tu-tLpdnqWf0-99" value="" style="shape=image;verticalLabelPosition=bottom;labelBackgroundColor=default;verticalAlign=top;aspect=fixed;imageAspect=0;image=https://png.pngtree.com/png-clipart/20230330/original/pngtree-configuration-file-line-icon-png-image_9008974.png;" parent="1" vertex="1">
          <mxGeometry x="70" y="406" width="41" height="41" as="geometry" />
        </mxCell>
        <mxCell id="W3P_yqv4Tu-tLpdnqWf0-100" value="Config tables" style="text;html=1;align=center;verticalAlign=middle;whiteSpace=wrap;rounded=0;" parent="1" vertex="1">
          <mxGeometry x="107" y="411.5" width="100" height="30" as="geometry" />
        </mxCell>
        <mxCell id="W3P_yqv4Tu-tLpdnqWf0-101" value="&lt;font style=&quot;font-size: 14px;&quot;&gt;vector/text data&lt;/font&gt;" style="text;html=1;align=center;verticalAlign=middle;whiteSpace=wrap;rounded=0;fontFamily=Comic Sans MS;fontStyle=1" parent="1" vertex="1">
          <mxGeometry x="80" y="470" width="110" height="30" as="geometry" />
        </mxCell>
        <mxCell id="W3P_yqv4Tu-tLpdnqWf0-134" value="" style="edgeStyle=orthogonalEdgeStyle;rounded=0;orthogonalLoop=1;jettySize=auto;html=1;" parent="1" source="W3P_yqv4Tu-tLpdnqWf0-104" target="W3P_yqv4Tu-tLpdnqWf0-132" edge="1">
          <mxGeometry relative="1" as="geometry" />
        </mxCell>
        <mxCell id="W3P_yqv4Tu-tLpdnqWf0-142" value="" style="edgeStyle=orthogonalEdgeStyle;rounded=0;orthogonalLoop=1;jettySize=auto;html=1;" parent="1" source="W3P_yqv4Tu-tLpdnqWf0-104" target="W3P_yqv4Tu-tLpdnqWf0-1" edge="1">
          <mxGeometry relative="1" as="geometry">
            <mxPoint x="619" y="124" as="targetPoint" />
            <Array as="points">
              <mxPoint x="619" y="150" />
            </Array>
          </mxGeometry>
        </mxCell>
        <mxCell id="W3P_yqv4Tu-tLpdnqWf0-104" value="" style="rounded=1;whiteSpace=wrap;html=1;fillColor=#dae8fc;align=left;strokeColor=#6c8ebf;" parent="1" vertex="1">
          <mxGeometry x="574" y="204" width="90" height="40" as="geometry" />
        </mxCell>
        <mxCell id="W3P_yqv4Tu-tLpdnqWf0-117" value="" style="edgeStyle=orthogonalEdgeStyle;rounded=0;orthogonalLoop=1;jettySize=auto;html=1;" parent="1" source="W3P_yqv4Tu-tLpdnqWf0-109" target="W3P_yqv4Tu-tLpdnqWf0-115" edge="1">
          <mxGeometry relative="1" as="geometry" />
        </mxCell>
        <mxCell id="W3P_yqv4Tu-tLpdnqWf0-109" value="" style="rounded=1;whiteSpace=wrap;html=1;fillColor=#dae8fc;strokeColor=#6c8ebf;" parent="1" vertex="1">
          <mxGeometry x="248.5" y="203" width="100" height="40" as="geometry" />
        </mxCell>
        <mxCell id="W3P_yqv4Tu-tLpdnqWf0-115" value="" style="shape=image;verticalLabelPosition=bottom;labelBackgroundColor=default;verticalAlign=top;aspect=fixed;imageAspect=0;image=data:image/png,iVBORw0KGgoAAAANSUhEUgAAAdoAAAHaCAIAAAAohh/4AAAgAElEQVR4Aey9d3xUVfo/fqf3kkkl9GIAAQEFlSZFFxXFsjZURIX9ihV11Y8gq2DDhqtYUNS1Ii4iig1FXAUVRXQVEFFAegsJyfRe7s9f3q/P+3U/M5kkM5lMJjDzR3Lmzpk75z7nOe/znKcKoijG8q8jmgJiklckEgnWvfh5KBRyu90+ny8Wi+FiIBDweDzBYJB9otEo2rW1tRs2bFixYsVzzz03a9asyy+/fOjQod27dy8sLNRqtTKZTBAEpVKp1WrVarVQ95LL5RqNRpbkhT6Jf7VarSAICoWivLz8hBNOOPvss2+88cZHHnnkjTfeWLly5R9//OHxeDgqjC0SiQQCAV6MRqORSAQfhcNhXhdFUfpofMaGG0c0s+QfrjUpIOThuDXJ36q/TdAJh8Mej8fr9fIKcNnr9RK5onWvUCgUDAYjkUgoFKqqqvrpp58+/fTTxx9/fPr06Zdeeunw4cN79Ohhs9nkcjlQValUajQalUqFt3K5XK1WJ0Hjhi4D2Tt27Dh48OAzzjhj8uTJM2bMWLhw4cqVK7ds2eJwOAKBQKjuBdgNhUJ+vz8cDpPAoiiGQiE8TiwWC9e98LzsE9cgNeIacd3yb/MUyBQF8nCcKUq2vfv4fD6irSiKAFxRFD0eDwEoFot5vV6IkB6P5/fff1+6dOl99913xRVXDB06tH379hqNxmAwEHAFQYBcDPxVKBRqtVqpVOKiXC5XqVTJcFee5KXX6+VyuUwm02q1Op1OpVJptdqCggJBEDQazTHHHHP66affcMMNTz/99GeffbZx40a/3y+VeQG+fFIK/qIo4nyQbOZIhLhGsv7563kKNJMCeThuJgHbwNfj0CTuLYRKXAwEAlVVVZFIxOVyHT582FX32rRp00svvXTTTTeNGDGiT58+NpuNgCuXyxUKBd/KZDK1Wm0wGIxGo8FgEARBLpcrlUr2wdtEdQSxW5HkxQ78LWCxUqnk3VQqVVlZWUVFxV//+tfbbrtt8eLF27dvD4VCfF7qK2KxmPSp2SGu0QamNj/EI4sCeTg+suazvqeJQxm+rampQTsSidTW1rpcLrz1+/379+///PPPZ8+ePWrUKJvNRshDQyaTaTQavV6v0+k0Gk1BQYHJZKKCmJ1lMhnwGrItBGfqMdiNjSRQ/P9flslkCoUCP6rX641Go8ViMRgMFovFZrNZrVa9Xq9SqSBeY1Rms7lHjx5nn332nDlz1q1bB1yORqNSgA4Gg7W1tSRIXKM+Wuav5SnQghTIw3ELEjdHbh2HMnFvnU4nj/Zr16599NFHp06dOmLECL1eD6DUarUmk4lvIeGq6l4KhUIul0MW1mq1mrqXVqsFYiZTSiS7nkRXIddqtYBaAre0oVQq1Wp1vR1UKpXRaCwrK+vXr9/o0aNvvfXW9957z+12i6IYDodra2upwYijCd7myPTlh3H0UCAPx0f+XEMpnPiX4vBvv/32zDPPXHrppf369SssLATYQfaEVwOu6HQ6GOKIhvCUIIzyOhqAXWkbqoZkcJzsuvS20D5r616QghUKBTuoVCqdTmcwGODOIRXY5XJ5YWFhWVnZSSedNH369G+++cbr9UYiEafTmUiZhq8c+RyTf8JWokAejluJ8Fn8WehJE//u2rVr+fLlN910U8+ePTUaDWxugiCYTCapThbOasRlSMfQP0h1wQqFQqomhuKYQAnFRcNwzM5xDdyZ9sDET+OkYwI09wOVSmUymfBFaEu0Wu2IESPmzZv3yy+/JFIGV5KBchanLv9TRxcF8nDc9ua73pM1Lvp8PvpFRCIRv98PZKmtrbXb7bBlBQKBVatWzZw5c+jQoR06dCBIQf+QniNaMsE2p65DoQE1NJ5ap9O1a9du0qRJixcvrqqqAg0DgYDP5xNFkZ5/0WiUXsyRSCQWi8GROU7X0fY4KT/iHKNAHo5zbEKaMJxkcFxdXY2PnE5nVVUVPLr8fj/7V1dXL1++fPr06SeeeKIgCAUFBXRQk8qeOYWhGRwMhHeVSqXRaCBBK5VKi8WiUqk6dOgwatSoe++9d9OmTSAXYmEO171wJRAIuN1uisxSh7lYLAaYbsLs5bvkKZCUAnk4TkqanP2A8JrYOHjw4N69e3E9HA47HA6/3+/z+TZu3Pj6669feeWVJSUlEAx5eFcqlVDCQpMAN4YMgmDu3ApKDyiXqVamZgM2yQEDBlx77bUffvhhIBAged1uN/Xs8FaWysXAYmnISc5yTn5gOU6BPBzn+ASlMDwpgoRCIcTaVVZWzp07d/To0cQds9lcUFCgrHup1Wp4ROBThUJBHTFQ+0j6C003YkkIx4IgFBYWgiB4WL1ef/zxx0+dOvWjjz46dOgQQJm0dTgcmBKEs0YikXA4nBeNU2DTfNfkFMjDcXLatLVPoO6sqamBguLgwYNPPPHE0KFDgTJms5miMex1KpVKqqOAX7A0zuJIwmI8nVKpVKlU8M+jQwg3KoVCUVBQAKRWKBTt2rWbMmXKt99+C4l4//799NQGFiMUOxgMQnHR1vglP96co0AejnNuStIekN/vDwQCsVjswIED8+bNO/bYY4GniCdGG65pGo0mDmoRZAFgyh31QmZHgjxEjEOB7gJvpZ4koIzJZDKbzYIg2Gy2SZMmrV69miqgSCQCDTLgmIJz2hOX/2KeAqBAHo7bHifQmhTXEEXR5XItXrx4zJgxAFatVotQN8TRwXAnk8l0Oh1gCG4GMpkM3mzskFkczJG7AY4pC8OyJwgCtMk4FlgsFqAwQFmj0ZhMJp1O171795tuugmSstfrDYVC4JtwOIx2PhVX21tIuTfiPBzn3pw0NqI4FObbt99++6qrrioqKgLuEHOBvIQhxEoAbnByp6RMjM4RAM3sMJAWDoIwdiBqZhDhAjpAlaFSqRiIyMPE8OHDH3nkkdraWqm/CoTlPBw3xrb5zxunQB6OG6dRa/UQRTEQCNCmH4vFfHWvSN0rFArBGdbv969cufLGG280GAzwGqZG4shWPmQWrBPvBmtn4t9x48a9//77sOARlxHjB30RXTLC4TDUR63FQvnfbVsUyMNx7s4X4ndhR/L7/UxIBoNSNBr1er2HDh1auHDhiBEj5HI50ugg/k2lUqnV6iNb2k0E0MxeSZbSCPqNqVOn/v7770gMzakBEPt8PiqU83Ccuwss90aWh+Pcm5P/HZHf72esAa4xIZnL5fJ6vd9///15552HI7bUXw3KCnpNZBakjp670fUiriEIgsViEQShQ4cOTz/9tNPpREpSxkPiHMPUcf87n/n/eQo0QoE8HDdCoFb8mPnRIXPxIOzz+Wpra++9916dTicIArK/a7Va4i/yRUA0pl4430iVAsk2nvbt2+NWMplMpVJdeumlP/30E+YIdVKgR/Z6vQi2bkUWyv9026JAHo5zd74Q+oXUEzjzAqBXrVrVv39/xC8UFhYCNQDBtE3xYqoYlO/fFArATAq/C0EQevToMX/+fJfLhSQhKMcXi8WCwaDL5cpdDsuPLMcokIfjHJsQyXCQmVdaXvPnn39+4IEHVCpVly5dEOWMGDNicb0onEzKy19vmALJcNloNAqCYDQa4XrBSlH/7//9vxUrVkBMRsw0CvRJpjTfzFOgIQrk4bgh6rTuZzQQRSKRmpqazz77bOLEiXq9HnHMarUaDlgymcxisTDXBBSdBBpkwuTbfKP5FBAEgTHWEJOVSmXXrl0FQTjjjDMWLVq0e/du+ibnHeBadxG1rV/Pw3HuzheKVqCW6MKFCwcPHgwbnb7uhXyYLBvKBMSM+2BtpOYD0NF5hzgLHt+azWalUokMGEqlEkWqBEEoKytDFN+cOXMOHToUjUZdLpfH48ldDsuPLMcokIfj1p8QGHxwyA2FQhSKnU6nKIq7d+++5ZZbULBOo9FAHCM0SButBZoQzBOP9vUWTKJ2O7E/A1UQr6FWq3ElziaJR26th8UmJyU722q1urCwEEeWU089lYoLqCzsdjv8ZILB4OHDh/NSc+svvNwbQR6OW39OoB32er3hcBigHI1GsXSXLFly+umnFxUV6fV6HpC5/uMarYVQBFaEXEOLotFoMDyFQoEUw6ioBA8QxFZAkEc3hG5rNBokNkIHKRArFArknyNMt9bzxpGdb6HBh3+L0Wg89dRT33zzTey1dEPes2cPZhno3PrMlx9BLlEgD8etPxuhUAj4S7k4Eom43e6FCxeOHTsWYIcQD7RbC4aS/S6iiqViL3pitCgmLZWgpT0J5Q03ENPM8lE5SwcMjEHVgwYNmjFjRm1trdPp5BnI4/Hg3NP6nJcfQY5RIA/HrT8hCB9A7ACk423btr322mvl5eUFBQUGgwEZFYBrWq02GSw2jGgt+mki5lJUVNe9pGktoWyVVp7W6XR6vV4ul0vzLzM9MbJiSr2qW/RZGr15MvpDoQwpHiI82tddd93mzZtFUXQ4HCja7fF48g5wrb/wcm8EeThu/TmBssLlcuEY+8cff9xzzz0VFRUw3FHUQtkOqiwaRY0sd1AqlVJVA8s+SWVhAC7TDVMPS60F1BrSdJc0SFJ9wW9l+QGb8nMajUav1+ORkTkECZsuvPDCH3/8URTFmpoa+C+63e7W57z8CHKMAnk4bv0JQXAH5OL169dPmzatvLxcEAStVitVngIOpPauOIBIJrW19HUKwtKxyWQyqaiLoQKh0CaqwicE6eGlUjY6SKGZiM87tPSj1Xv/OLLzLSYLD85h0+/ilFNO+eabb2DWAyK3PuflR5BjFMjDcetPCA6wwWDw66+/njx5MvIhaLVaGLW0Wq3RaKSMLIU8AkHrwhPyuEsHptForFYrEFar1RoMBqPRaLVay8rKOte9unbt2qNHj549e/bq1auioqJHjx7dunXr2LFju3btCgsLTSYTMjXjuQoKCnQ6HUROyNGt+7xxZOdb1rXS6XTwBOc4rVarTCbr27fvu+++i0LU+dRCrb/wcm8EeThu/TlBZO0333xzySWX4IyP9SwIAhAZqxruxlz8iY16RbksXJSORKVSFRUV9e7de+jQoZdddtm111579913P/nkk6+++uqyZctWrVr1448/bty4cfPmzVu3bt2xY8fOnTv/+OOPLVu2bN68eePGjWvWrPnwww9fffXVxx9//K677rr22msnTpw4bNiwiooKxMKBJtBEZ+HR6v0J6fPGtaHvxkVktFCr1VIzbK9evV5//XXYbFuf8/IjyDEK5OE48xMCtUPi30gkAodTn8+HAmv79u2Dvvitt9468cQTsYwtFgsCoOvFgjQu0hNLqsYljlA/kGgrUygUer3eYrEYDAa5XI69gZpfKhkEQaioqLj88ssffPDBV155Zfny5evXr9+3b1+mKFtTU/Pbb7+tWLHi1VdfnTNnzpQpU04++eSysjJqcpRKpcFgQNkO+NVhkLABSq2IrJWHx8dDkRRUmND3Lg1qJ34F6n4oMQRBaNeu3aOPPgq/YxyMAoEA8ibX1NTQuyYcDvv9/mAwiPICdIKMRCKBQMDtdns8HnwdpaxRrJYpAMl+sVgsHA4Hg0HpnZkyn90QcyStkI0RIi9dNBoN173iOki/znam5v0ovE8ejjM/6eTLuMbu3btFUbTb7cgoz3TGr7322imnnII0CAj3QGnRxIWd3hXGSUtxB2KmVMNAhNJoNHEuZRqNxmazqVQqAnpRUdHIkSNvu+2255577quvvtq8eXNNTQ1ghT62GaQsAAWI4/V6Kysrd+zY8dJLL82YMeP0009v3749oVkQBNYGNBqN0PyAttLHh2KajxP3ET9Nj+Bx3yKRoc1QKBTDhw+/7777UGq2uroafIKtGoaEOFSNxWKID+L1evGUBGdiOdwZXw8EAsFgkGk/ocUOBoO4DtxH9T9sA/ytODYGTDeAyxxGvpEqBfJwnCrFGu+fyL644vf7w+Ew/E+dTidg67XXXuvTpw8WqlarhVwsCIJGo4lb1Wm/lWJNYhvOWBqNRqvV6vV6DgAQZjab6SMBKfjKK6+cN2/eRx99tH79ekaX8ZEjkQiSr2e21j3vDyxAPRRUSzlw4MDatWtffvnl6667btCgQYWFhYIgWK1WArFGozEYDIIgmM1mRNMgN7/0uRLJAkk5bZpLvwiznlwuNxgMmGilUllYWDh//nxRFKPRaG1tLeocejweQCEl2Wg0GgwG/X6/z+dDojh8BXVGAnUvYCgqxQSDQYixoVDIbrdLY4vIuNXV1U6nE5K1lLDSNhDc7/d7vV4GJbED1N98G9fgD+UbqVIgD8epUiz9/qIo7ty5E7wLAfm1117r3LkzkILwYap71QsQmb0I2RCHaCk2IRTbYDBQrOvfv//UqVMXLFiwYsWKPXv2xElGSOzr8/n8da+Ml/IMBAKAp2g0GggEvF4vtO0+n086kv3793/99dfvvPPOzTff3KtXL9Ts6Nixo7QUqZSA8NOg/U36UWbblNzVajUQGVf0ev0bb7whiuLBgwfBFZWVldhvpJIp2+C8OOxr+ttQKOTz+bxeL7/i8/mcTqfb7YYmBIjPT9kIBAKQzVmVER+lvxLy30xCgTwcJyFMC1xGCY9AIIC4j+XLl+OUbTQa4TAgjYTOAkxIfwLaUiTEARip1eqKiorzzjvvvvvu+89//lNVVcX1GQqFnE6n3W73eDzUafLTjK9VoABRiT/k8/ncbrfD4XA6naxZJ4ri/v37Dx48uGzZstNPP53PQn9t+oHUq6nILBAn3g2bn67uhbjw5557Dkoej8djt9vxdCjEB8UFYkZwqKKwjA0JRxBqk+12e01NTVVV1cGDB/ft21dVVVVbW+t2u9GZBIwjF+nJiQsGg566FzZCSMdSDTV7tsAqOapvmYfj7E0/atxBZfztt99CgrNarSjqgboeOFa3nLKCh2hY8HAk12g09JM11L169+49ZcqUpUuXUqGJxHIwQlImRbEo6B8hGgNZvF5vBsMcIDAGAgEK4EDhOBxBnn649EajUch6v//++wMPPNC/f39myUg0bFK3HgfQpFUzG1DT63Q6EhkKIniXFxcXv//++xg8n4h6CVEUfT5fdXV1VVXV+vXrV69e/e9//3vu3Ll///vfJ06cePbZZ48ZM2bgwIH9+vXr3bt3RUXFMccc07179y5dunSqe3Xv3v3YY4894YQTRowYceaZZ1544YUTJ06cPn363LlzlyxZ8u23327ZsmX//v2HDx+m9oxjqLchtQpmb+UcNb+Uh+PMTzXPdHENCJIul+v7779HMgo4FyOBGdQFMpkMUdEZ1F0STYBEkMSVSiXClKU17a1W68CBAx9//PHvvvsOwpTX662pqfF6vZStpKsUElOibhF9MkVZ6S9K29BaQFsqNW0dOnQIyg2csqPR6O7duz/55JORI0dWVFTQgxv+GAaDQalUMixQCs2kWzMbcOfQ1L2o/4HgXFpaKgjCsGHDvv32W4y5trb20KFDP/zww5IlS5588smbbrpp9OjRnTt3pn2SEjeULbAx8CKyONGxBJuQdJuBlZL9lUplhw4dhg0bdv755997771PP/30u+++u3bt2u3bt1NUlyqgIZ4jy0oce/Ntpub9KLxPHo4zP+nky7gG+Lu6uvrSSy8VBKG4uBiyMJYQ14xSqUQR6GaiAL9OeRDndKn7FxanQqEwGo1Dhgx5+umn9+3bx4M/tCtAQK/XC+AD+EofjRCJtUoLfqYoS7inMA4PAUAwfiUajfItxhMIBKhIicViSD388ccfX3XVVd26ddPpdHCAoyNzveIzadjMhhT+ONEogVpcXCwIwqBBg5544omZM2dOmTKlf//+RUVF+Ar1zjA/Es2lXoY43OC2GCd/jkVsMfWIk8ROL3VpBxGQp8loNJaXlw8ePHjSpEmPPfbY22+/vXv37sOHD8P0hymIUyVLmYGajUzN/lF1nzwcZ366YSVnaSU4VMAgvmnTpilTpiARsMlkki6hZi546ToE/krXJJSV0itwmZDL5Uaj8ZRTTpk/f/6BAwdEUfT7/XGri28zT6ns3hE+Xna7/d1337366quPPfZYVFeC0VKn0xmNRoAytOqAPIVCodFoiIMZPLXUC4tSt27uo2hkhEMauAlSIJFJ8OB6vb53795nnHHGnXfe+eabb65bt27//v1wCpJqk8EkwWAQOu5QKER/R/gsQw+ObnEnrexyQU7/Wh6OMz898CQNh8N0KUVCRZ/PN3XqVLA7sdhoNDawQlL9CDeXwrFUFtPpdKWlpUhgD4ew00477fXXX9+xYwcXTyAQIP7GNTJPqezekQnVRFF0Op0rV6684oorzGYzNLk0bBoMBkR409tEpVIxZl2tVqc6Kcn6M0UU7kl0huYk8W+y+2TqOnYCsBBTV5MscrncZDJVVFScc845M2fOXLBgwa5du+AgBLuC3W6XOjVD/vB6vQ6Hg+ctHqTgKheJRFBUMLuMkLu/lofjzM8NBQQ6FTkcjj/Vr/fccw9qwuv1ehwwIZdlajnxYCuFY7lcrtfr6T6MRW4ymXr06LFw4cKNGzfCLuf1eu12u8/nyzw5cuaOwIJg3QtgsWXLlg8++OCcc85BXSXiL8yqUokY+mXEQGdqvhBFDQ0+qz0hAAdCetzfDP5uw7eCmRe/jtgfKLjIYBj50KFD//a3vy1cuHDbtm0M3vP7/QgXpIqJuqNELIb/eM4wSOsPJA/HmZ8DhN4B5uDh7/F4nnvuOWRfLCsrg1lGq9Umc4nlgTGlBuGDXhPQCdKgj1REKpXq8ssv//333zHCSCTicrkgwuAUmXmK5MYdqYfxer0ej4f+IQcOHJg+fXq3bt2sVisNfahmwtOG9JCR0qQ00Bm6Wpj4mCsZGu1E0ZiT28ANM/KRFIshLyMbNbTtpANypapUKpPJ1LNnz0svvXTBggW//vqrNLrE7/e73W6GtITqXnAakeorcoM7cmIUeTjO/DSEQiEc4jweD9x1V69e3aVLF3hQYM0wRRn9YZu/lgi7WFEw0wFfSktL8UNjxoz58ssvI5FIMBi02+3UURwNy4PhJBTTIpGIx+PBIWbbtm0XX3yxIAh6vR4ODyAjdMqE6czCIuuf0qODjUQBtvkc0pQ7cEjSAi7SLyoUCoPBQE8P7h8lJSXDhw+fOHHi4sWLf/31V+x2sVgMUYUQmekGczTwWxrIkofjNIjWyFfC4XAoFHI4HFj2a9asGTduHDSDdDE2m804+kGJnLj20rjCszZwBOtKp9MVFhbKZLIOHTrcd999CABDMC6GB49XOBQjrIBoFddo5LFz/mM8Tjgc9ta9pIpOTtbChQs7duzIHBc4lev1euSehkiYxtTU+xVgHD+SQl69bfZsoQZ+FMwj1SNDjDAYDGazGcmk0BNSc5w8odFoOnbseNppp82ePfuLL74gYWmHgIJC+jfnGSd7A8zDceZpjeQsYMSqqqqrr76aeW30ej3N98iglsGlRYsQ4VilUsGX7qKLLvrss88QDeh0OiEP+v1+p9PpcDgoIyOtVxwK823mKZXdO0pjCKWmf1QmpKJ/y5Ytt956KxCZ2lJV3SuzHg5SzAUbSK8ktjPIKvXeik4jfMzEMeBKnPMyPPaKiooYxIRuvXv3vv766995552dO3cizlCKwmxnlwty+tfycJz56fH7/TiLVVVVPfDAA927d0cVDNiLYCYCvzL0o97lkepFKRzD9KRWq41G49y5c5Erw+VyQZeNWC8q9VAdigkbib9xjcxTKrt3jHsc7D3IZIaPoOsMhULbt29/4403unXrxoRKOp3OYDBAEkx1XpL1J9gB3Qj9QMPEv8nu0xLXOTZgNN5inFQf06mZI0ddGNZChGKntLR0woQJ8+fPR1Alvdc5Hdnlgpz+tTwcpz89kKekWjCef+HZs3jxYqiMVSoVNAYZWTkw0KEwnVSniQw1arWaWothw4a98847PCfGNdJ/8iPrm/QBgN7G6/Vio/r666/PPPNMROUAaMxmcwYd3TLCDDl4kziHEL4dNGjQs88+C4GAKwXLB0npANA4uBxZLNbUp8nDcVMpldgP3IMofiQbY54XURRXr1598cUX6/V6hUJRUFCQwWUDDw3KL1B6qNVqQDOiZhUKxeTJk9evX19VVRWHwnyb+ERH5xXMI1JKejweJDnDhrpz585bb73VZrPB0wugnMGpPCJvVa9biEKhKC0tlclkvXv3nj9/fnV1NfLri6K4Z88e+mMg2xFn5GhjyDwcpz/j8F1F/D6yajEq98/86JMmTULQl0wmQ1L5TK09qDUhAhMmkHUIx8OCgoLbb799+/btRy1bpzSpCJuEmCb94r59+0DAV155pXv37jjiwA83U1N5RN4nUc2CK0gkC4XPSSedtHTpUmQdAZGDwaDL5aLUfHSGh+ThWLoAU26Te0KhkNfrZarfF154Ac5SYD4paFKqbU7DYDBYLBZpqWb8kMFg6NWr14MPPogQbRT7SfmpjrIveDweqtFpX8LOunXrVqfT+eehZ9asWdAjZ9ZVvDk8kLPfTbbHUBFfWFgIdh05cuSbb7556NAhh8NBN3Ck7svD8VG2Cpv9uAjDx97udDqxql0u19dff33SSScJgoAIKxg66OLW/FWEPLkQhFHCQ6fTWa1WpVJ5wgknLF26FENyu91IF9DsBz3CbwByIV+Hw+Fwu92orAFHlI0bN9544429e/dGuDCrBDR/Ho+2O4BvuRAoowwePHjJkiXwR6Kpubq6+ghnu/oeLy8d10eVpl2jW1g0GmXCoH379k2cOBFGZ3Aey2okkxpSvc6MNnK5HCkXsLBPPfXUxYsXA1xqa2shuVN/QtBho2lPeVT0gt6JyZ6QYRnReiUlJXK53Fr3gkyX6nwdbf2TbTOlpaW0PKMkrtFo1Gq1RqPRarVeeOGF33zzDUQceF4eFZz3fx8yD8f/lx4pvoPBB1kHkZjm5ZdfhqYYCbGg0gUXZmpZwvdIqesnbo8AACAASURBVFSaTCZ4eur1+sGDB7/33nuA2p07dyIsEAFRxN+4RorPesR2h+sVM76Hw+FNmzYtXrx45MiRUNDjfKPX63v06EHn3EzN5tFzH8A0nC8RQapQKJCtSa/XGwyGzp07z5gxA5kFd+7cecQyXPIHy8Nxcto09glKZ1KwikQin3zyyZAhQwRBACIbDAYkrkW1+UwtPKhBTCYTTIWCIIwfP/6zzz5DrgwYqVH4HVJeHArzbWPPd7R8ToJEIhGn07lq1arJkydDKWGue8HpGNHAFoslU/N4pN6nAVMeD3YwR1utVmS9QEC2VqstKCgYPnz4K6+8wpqBRwsX1j1nHo4bn24uV7IIfMWgDYBzG0qpX3TRRUzQBW95afxSqssPykockBGoikQBarUaorfValUoFJdccsnBgwcRmY0sLXF/G3/CI6sH5ws56WmmCwQCdBLHR3BSxLYaCAS2b98+c+ZMHDgKCgqSwUqq85jv3zAFtFot4BinEI1G07t37/POO89utzudTpjHOYmwmdMNJhgM8qMjgIvzcNz4JHJ5syvgWBRFlJJDEbxFixYdc8wxCMCDLzAOtoxZapgpEz/F4Q4ZWyARI9MF8nNC7h4/fvyOHTucTicSyNKnWNrgsI+SBsqRICoXdMCDswo1s9sg367f76+trf3Xv/5VUVGBKi0dOnSAi3G9iJw4U/krzaEAEnAjPQiEGJVKVVJSUlFRAbt0JBLxer1Slg6Hw4G6F7H4yKhCkofjxjEqGRzHYjHUW/L5fLW1taNGjcJZLK5YTtpwDN8JmUyGNBcACNSrB1KPGzduzZo1GB4d6TlaNhp/wiOrB4CYgjDONIBgrGFQBhEfoVDogw8+GD16NHK5ISu/IAhdu3ZtDsTkv9t0CvD8p9FomOlQEAStVmswGG666SY4gIfrXixNy3RXPAMdAVych+PGJzER17BRI0kQLA8vvPACklGgoGS90nEyi3Oy66iqyWKUjH6GBDF48OD169dTQqdrB0fLRuNPeGT1wIPzmbBcQ6EQnagOHDgAFdO33347YcIElUrFAqAmk6lTp06wLyUDlGTzlb+eHgUIx0qlUqfTMfpfo9FAXzdo0KBVq1ZhWn0+n8fjYdKrSCTi8/mgNuSMt91GHo4bn7tEXJPCcW1t7fbt2wcOHAjrhEwmSyYdp8qscrkceR0hERcVFUFZoVQqTzzxxLVr1yIyG6Vx8g5tnEg4IPr9fmQNhVSFapuHDh2CN/HWrVtvvvnmTp064aQMIEAb04SjSapTlu+fBgVQOjIuPxH2Qog4MpmspKTkySefBJOjcG0wGIRWivEjZIC228jDceNzlwyO4dn2p/v6XXfdxXI+ELXqlY6TSVvJrkNfDFlYq9XSf37w4MHLli0LBAJAFlEUIfc1/iRHRw/AMdaqVGWBeayqqpo7d+7AgQNZBQ6HYpIXgEKRLRFfks1X/np6FICJBUlXWEIBebIsFou27oXiLBdddNHevXu5Hv1+P3XHHo/nCODuPBw3PomcfnaFdAyxdO3atUjbBtsaTluZgmPIaAqFgthxzDHHvPjii+FwuKqqCifuQ4cOHTGHNVK4OQ24HiLKFnOHlPOxWOy9994bP348dBE4fBiNRgIuCn9A18+sePyUjfRAJ/+tZBQAYRGkp1Kp1HUvWPMg5VCh37lz51GjRn3wwQdMJ8JDocvlag7P5Mh383Dc+EQkg2O4VVx//fUQY7VaLaufZQSOKaAZDAY4Mnfo0GHatGl+vx+6MxRYwvB4ZONo2Wj8CY+sHnBfYx0gr9dbWVm5ffv2yy67rFevXvABp8s2NEs6nY5yGfPdEH/jGslgJX89PQpgCuKIjLfw9VYqlQaDAVY+mUx23HHHvfTSSwBiZBQBqx8BXJyH48YnEROPKssejwcyaXV1dTQa/fXXX5EsQi6XGwwGiFSpMmW9jIgwa0EQpPU0p02bduDAAcaPkQvZaPxh2mAP7iuJDWTFRNIZVCaVJhKBkWfv3r1z5szp1q1bssSPqc5Xqv3r9ZZDTTzUbYE+CsdzqWsBGANKVYVCwWrW+BbyCCeraMdB4iZyuVylUiHDCXzYpcpxDABGY9Q9kX6KoUq5VOpNL73OAfPXm9OIuzPpgFi+WbNm1dbWIg9cNBr1eDwsBIXDIhMutiGWz8Nx45MFwRM2XOglHQ5HLBY7dOjQddddh6pilGTTSE8ex3Z8yyVhs9m0Wu2oUaO2b9+OCkOUhTH6oxOOaV5HwnIkY8PRYfv27dXV1aIofvTRR3379oXXVGvBcTJIIqrSFRJTD+QFLKLCNK6bzWacwMghaADu8SvSjxJhlJ+iahfKdvBkwCMduiHjj8Vi4XaCn+Bb3i2ukex5U72eeFtQDFpBuVx+yy23wOUfcy2KotvtdjqdMHHT9bPxFZ4zPfJw3PhUINcUJhvAt3XrVlEU//Of/xgMBr1eL5fLefjFgkmJ8+LYjm8RHmYwGJC0e/Xq1eAwqXR8NMMxcrBBaYg2ABqJRNavX3/22WfjkIGIZ+JIXCOlyUqjMyc0WYOiK0I61Wq1FKCVSqXZbC4qKpJeR1imRqPBRSA4ta4QESBOAsJ4hZI4ruCLHBhGEqc9SLxPA0CfwZweHBUalI5Rmg95YMaNG/fDDz+IolhTU+Pz+ZxOJ1aow+EAGyCor/FFnhs98nDc+DyglBxBWRRFaCpQ4LKkpASnP6VSSYNbHCel9JYLHgynVCpLS0vvv/9+URR37NgB8fyoko6TzZA0T7Hf72fy8m3btt18882MdS4tLWUmoDggxtuUZieDnZHJvt4bKhQKvV5vNptNJhOzoKFMFCGYX1QoFKjLZbFYbDZbYWGhre6l+9+XVquV/pbJZDIajbRV4utUneO2sHOaTCYmFJWSjj+dzQbhWCaT6fX64uJiPMLxxx+P/JxutzsQCEjDQ5A5IBn/5OD1PBw3Pinwo4DLFH3L1qxZgwoRVFNADGkmg1ISgXxUXl4uCMLdd99dVVXl9Xrh3Ha0ScfJZghK/Gg0SqXhpk2b7r33Xp1OZ7FYCgoK9Ho9taKQIqWYwnYzp6zRr3N/TdaQy+X0K6CGSnpblUqFGuRdu3YdMWLEX//616uvvvqWW265//77582bt3Llyi+++OLrr7/+7rvv1q1b98MPP6yre23atOnHH3/84osvFi9e/NRTT82cOfO6666bNGnSqFGjTjrppB49ehQUFEAeB67pdDq6AFOIlg4jrp3sceK6Zeot4Ri7DHIloshDv379/vvf/0IurqyshAZDFMVDhw4xz0wyLsqp63k4bnw6sN9CIEVUdDgc/p//+R8cmuCLQxGG9t9kzJp4nfxKLIaWE9eHDBnyxx9/iKKISqlOpzMPx5gzrDRIQPv27Vu0aNE555xjNBohF4N6yKur1+tbsagScT+ugXM9lAbkAXjp6PX6wsLCioqKU0899ZprrpkzZ86CBQs2b9584MABWCwRBAEAigsKR/YSlGENBAIoHoae/BsKhbZt2/bxxx8/9dRTt99++yWXXDJ69Gg4+UpHgnaiagKMmsjJmb0SNxLCMX38ER5lsViKi4t79+79zjvv4AGpsnA6nVi8jS/y3OiRh+PG5wFRtjDUQjv5n//8p0+fPmALgDLkCzgIp8qUZDsyHIzmMpmsoKDgww8/RLo4oE9cXXQCU9uSAhonuqQHTieJf2tra51OZ21t7VdffTVp0iQIdPApRh0WEBbOUhnUaaY6v8lMiJDyqDSQy+VFRUXdunWbMGHCbbfd9vLLL69bt666uhqRDrFYzOl0AotjsRic+bgxg1pMUxcKhaSGLF5HgCJdAKnyikajLpdr3bp1b7/99syZM88+++zevXsXFhZCg4GoZaqzqV+O2134NlX6JOvPdYEGVwf0J1qtFqKxTCbDlWOOOebll1/GKRZlyZByVsJKud7Mw3HjM0TdMXK6i6I4e/ZslgqFKQ/qYxj0krFXsutkOzIc69b8/e9/ZzIK6El8Ph8XISEYQkHjT9I2eyQCMa6Iorht27Z77rmnrKwMHoGwuVNBIVWYwiKabApa9Dor28c1kBNKp9OVlJQMHjz4+uuvX7x48aZNmxJFWmSewywDWwE6sViMYWlM6YePwBvoHIlEiLwUkPER3oZCIbvdzj6BQGDr1q1vvfXWTTfdNHbsWIPBoNVq4XcBz3rEMRJ/4xqZIibXRRwc4wDBbQzhfJjrdu3azZ8/H86OWDhti+XzcNz4fNGhCtY8u93er18/4C9t2dS14WSXKkeC4ZDRShAEJHgcMGDAhg0bwuEwtwEsucZH3DZ78DEDgQCLSxE+/H4/st8i3aLL5br77ruHDh0KZavJZKIdNVXip9qfgjZgiFMPmKDy12KxIOSPuwIOT0zBbrPZTjnllNmzZ3/xxRcHDhwIBoNA0mTbT0vPqt1up8euFKa/++67xx9/fMyYMUVFRTqdzmQyIaDcaDRSZCZ0ArgZ8QwSEU9TJXW9/aX0p85drVZDRu7Spcu8efNwOKipqUGuEtCWOV6A1y1NzzTun4fjxokGFKYR7/nnn0dyNbACzsVck2nAMVI70rQNEdtsNr/00kvgKiwSrNLGh9tme/ypkff5fF6vl/JdNBqtrq6uqanhjhgIBBwOx9tvv33KKad07doVamIeJkDJetdwBi8SDnhPwA2zXpjNZraNdS+NRmM0GlGFWi6XDx06dNasWT/88MO2bdvgww6HGZ/P53a7Wc06rtHSEwvpGP71Pp8PcjctpZFIZN26ddOnTx8wYIDZbKaxBEXCTCYTqiLQsk2AZuZokquZDdKfjtsMXUF9hl69ei1ZsgSVyaC3If+EQiEcLhHV1dIkTfX+eThunGKQFJCjJBwOjxw5EjYEhNuqVCqp/3x6cMzMCVSEXXLJJUgMxPyBbcso0ThZE3qAzsgjDllYmpFg+/btfr//wIED11xzDVydsODVarVer+dmhlSZzVzw6X0dMEFJEBIihWXIzuPGjVuyZEl1dTXsb5T9oQsGAkLDm/g3gWAZvoDBhMNhT92LxMdWUVNTA+Ggqqpq4cKF11xzTVFREU8k0nAVJskESlKCTo+qid9KhGPsxzAbgP7HH3/8smXL8ERAZKpioPnJzdWUh+PGeZpWkXA4vHr1aovFYjKZsOeDD6SBqmQ+qXTQcJuCBgo4Qlnx6aefIrQBrhQwJKKMUOMjbps9cITksolGo4AkuCv96dU/a9YsULJ9+/YItNPpdDgdwydXin0N07w5n8YBBM7j+Gmj0Wiz2cgDuKhQKLp27fo///M/cBuPRCK1tbUI7IbbA56UglucUMy3WZhV4Bd+iO2DBw/SgBGNRoPBIObo559/vvfee1FCRRAEs9ks9WkBhaV6/ObQPO67mAJSHsEskGm4PEeOHIksySCvz+fz+/3UsNPukgWqNv0n8nDcOK3Ii3+G/SD0o127dtiiwQdSFOBSjGOgBt4yos9isQCaZ8yYAUUqJRSetsBSjQ+6DfYgnVEPjWfn3bt3v/7669DXIwwSdlQo7klYQDPftlyDByDwAL2GO3XqBPRRKpV6vV6tVpeVlZ100kkvvvgiwjiRzIjRYtx4AHzYcVtRaku0+MWZ++gzh9LpcPPYv3//888/f9JJJ4Hger3earXi8ak0l5awaf68SLdDIDI11KWlpRDYoUceMGDAypUrsXb8fr/dbkfaVUxBDi6RPBw3PikMhNu9e/fQoUPpbgwBWeo3CtcIKbs0pQ1mYsxC3759N2zYAH0xnZxo5srNXb1xIjahB8I6ICMDoXbt2vXJJ5+cddZZNptNpVJRpSPN1hQXOgwIaArZ0+4DOAasMO0O9lEENBsMBrVa3bdv33/+859VVVUIr2esCgtEeTwer9fr9/ul9TcJzYmNJpCwWV3i9gOic6JfM12bcfD3+Xzbt29/5ZVXTjvtNJxa4AxntVptNhsPf2kTvIlfhHcN5qW0tBRb4/Dhw3/++WeINdg/kG01N9dRHo4b52CwaSgUWrhwIXyq6HEM/KVEnB4cy2QyKEAFQSgsLHzooYdQ7yASicB+SJ9/YHTjI26bPcLhsN1ur6qqgjjz22+/3XzzzTDOYI0plUqGxuJEgkKxOp2OBxSKrk1cw2l0i9uAEWQMN1iEIw8YMOCxxx5jonQkYoW7JGJ5RFGM219zofImNkImeYBPAnYFQBiESgAZ5igSibjdbvpj/PLLLwsXLuzVqxe1FrBkZmGPpDkB8eV4Cxl56tSpKJ1Dp8C8dNw2EaJu1Ji8QCBw5ZVXEogpqcXJSmnAAe0hgiAMHDjwp59+oo6CAiNWRWVlZW7u6hmZXSorNm3aNGPGjB49egCFEe5M/zC4GEIKQwfoLmjNSwNhU/pKIhzTQ7Fbt24zZ87cvn07tnCn0wknYpRJ9Xg8VFAA7CiBUhamcjPR3S0jRG7gJpFIBBEihGCI7UgEgYvwdMaw3W43vBRQBwv5/sPh8B9//PHYY4/179+fYopcLk8j02FTJoUMgAb88MgJ9H576KGH9u3b53a7oUeGlNMAKVrroyNZOiaLA8LA35FIJBAI0JVKGr8k7S91tgcIbty4sXv37tDzIutgU9hF2gccQ/hmrnqklkdauH/84x+o+dSKOsRM8SIgCRmiqXXhc6GWCo/wqADr9XqXLFly8skng1ZwqJLqB6VtKW1boo3fQkwdbLbEF1oOOYlqtfraa6/9/PPPwUVut5tOirDRxR35j+BtFRRAWdjCwkKz2UzrSFFREeQY0C1Op8wqvTQApjStXF+YLFQ+RZTNnx6Qjz76KA4otMxza6SWBlcyxf9p3OdIhmMsABwDpVCLdpxgAoBG+CkwGhoDHMQCgcBLL73E1OA4i6XEK+AwqJvJbSg7Taf6wYMH//zzzxgeZI00ZjR3vgKrYyLlebaFQ3dlZSWSDCxfvvyCCy6A3qZDhw7S84cUhdlOlf6p9mfWIUpb0E7yJE4NyYUXXrh8+fItW7bgNOP1ehnkJsXiOFbMnZnK7EicTicTEL/11lvdunUTBKF9+/YWiwWcr1KpCgsL6aHMpUFjDBdISlNGBzgY2FHnCZrr4uLiioqKxYsXM2yaZknwJ8SvPBxnlhP+z93oIRS3DPx+P7UBMNNBOYuVQ8EZ8ovf79+5c+fnn39++eWXY/lRt5ASr5DnEqVjOAnpdDqIxuCJI8CDgtJHKBRyu912u93lckF5WltbC39q4NfmzZuvvPLKiooK0BbBxBB2CgoKUqVzpvpjACjSYa17ESagrVYoFCeeeOLTTz+9Y8cOKUeBkbDOEdQOVozjw//DrEfQG+mDo67ugw8+CGckg8HAwndqtZoOoyQ19lrSOaWpJBxLjzVYs8hkMGjQILi+MdaGi116Gm7FqTiSpWPKZdDHIfUXRDOES8KoHQwGUdnF7/djzwQEL1u27K677rroootOOOGEvn37UhTCyQucRDZqeiMRjmUyWWFhYUlJCRJpi6IIqGpFtsjUTwOImYkYM4LwFpwc9+zZM3fu3L59+0IWNplMtN3BCsQ1lrgym07ztHsWFBQgDwbS2KMeB7JQVlRUzJw5c8OGDdDDwO7KgzAEf+hecQ4DFnP9H8HKCiZUowm6qqpqzZo1EyZMABabzWaIxkql0mq1St32McvpzZeUQ6R3wIIFg5155pkwsUIm46Rgv+QROVP8n+p9jhY4hkdOsO5VU1NDGzHq+mAa9u7du2LFipkzZ44ZM6ZTp04IdaUsjIMqizpTHSad+Ka0E+EY9odLL70UcR8Q2I+A5crtkDmPkKpGFMX9+/cfPnx41apVo0ePhiEOB1USkElqeCX7DVQnMhqNMEPhCCyXyzt37jxhwoSlS5cCdwKBgMvlAhAzkF16UbomSZMjYH6lzyVtQ55wOBwUfXBO2rdv3y233FJWVqbRaCAmw/MB2xvnl+dIXmlig3Cc2B/h6TACX3vttZDGYE2VOu3l4Vg6jxluU1nBBlYLNPdUWVZVVS1evHjatGl9+vT5M/9IQUEBlh8ntV27djabTaFQgJOYjoDT38QGbpgIx0qlsqioiDGdWNgZpkVr3I7KCp/P53A4fD4f0ggcOnTo888/v+iiixBEC59iEAc1g6VbHanN6WCjiWRPuxuVm/q6F9wQhwwZsmDBAoR1IOkl1BRwXEPCB1yRxlBIUZjt1piTbPwms79HIhH4lgDyRFF0OByLFy9GzIhWq4WwjGQXnFY20p64OECXyWQ41iCZQZcuXZ588kmEF0JQwEzByNy62+SRLB0TheMaKKtVXV396aef3nDDDX369LFYLLTPYAvV6XQGgwHnZS5LTLNer9dqtThhpcQx4LNEOBYEYfz48fv27cOxF/5eyEGVjdXTYr8BlUsgEOBZJBAI7Nmz54knnujevTtLZcO8DiBGJhqqa6W4zFXKRkrET6MzYhkQYCYIwp+1qO+///5du3YhVL2mpgb7DQ5YONOgcCoBFzng+Tau0WKEb+Ubo1QCU275/X6khYKw7Pf7V61adeWVVyJDZpcuXeJK82VqfmnyBReVlJQoFAqDwWCxWCoqKhCtR3dDQEReOm5B1iH3w9kQopnP5/v888//8Y9/IOgWiV1QbxQQzOyuZAukCbfU5UtEDbHMelZoNJpnn30WTpHINO/z+ajVakECtfCtQX96re7du3fevHmnnnoqCIuCQ/Am5haFj1AlCG36V3A62EgDYVP6CqKfFQpFeXn5DTfcAKcXJJmDJGW322tra7GGGWKApwaz8XxAVpQ2Wpj8rXZ7hrr46154ZKfT6fP5sDdHo9Fdu3ZNnz4d+eORdYTTykZKkyXtnGjKg1bEUPcSBKGsrOyss86CrQhALHVDbDXCxWJtSTomK9NHLRaLQfJCbkYuDPjeQxXrdrtxffPmzQ8//PCZZ55J623ioUY6qRlvI4REq9XCfVUulwPWBw4c+Msvv/h8PiSNAzfnIBwjaou4A9MoLHKxWEzqwY38ZDBnhUIhl8u1bNmyM844AwJRxgkbd0Ou58SGTCaDVpqzgEnBjDCaA74uKpVKp9OdddZZ9Cb2er05OC+tCB8p/TTXL05+brf75Zdf7t+/P06f0NTr9XqcO5ldvt5JjJvx9N5OmzYNam4MDK6lrTu/bQmOIWdB1AUoxGKxQCDAIFSpvyd0QACLb7755vbbb+/Xrx8mvhXhWKPREIthGhIEYdq0adQ8AsLAHynxehY6A47p0RWqe8ViMa/Xy5Op0+mESGi32x0ORzAY/OGHHyZPnozkh6i/md7iafq3EhcwrjDTBd5C+GVkB7N0FhQUIBS+f//+L774IqKB8RfZJ7JA6iPyJwKBAHS19D85cODAokWLkAdGo9F06tQJU1NeXp4FOO7bt+/bb78di8Vg24eSEMed1qJ/G4NjbrAQeAEQyABQWVmJNcOKNTt37nz55ZfHjh3LJCZIN9VacAxdJGCFIb96vZ5GPCjXaKNvLZ5I9rswgVKIiHPTPnToEMIXo9EoCrz+97//ffjhh4877jisMRYAbjqwptcTP1fvX9aEVSgUZrO5qKiooKBAo9HAfku3mQEDBjzzzDP79u1DAgdsLeC9I8AfPNn8tvR1Rl4wiQ+08B9//PG5556LVWmz2YxGo0qlkno0xU1lelyR+C1BEE477bRt27ZBs4R1hxNqS5Mi2f3bEhzzmIz8flBZRCIR5MOFagI03bhx42OPPTZw4MD27dtjm0Wx94al47hZz/hb1NBEJRFp/rZt27bB+gE1BSSIZBPWiteBR8ylQJWR3W7HyIPBIBC5trb2iSeeOOeccxD/rdfr27VrB+I3oAvOOMETb6jVas1mszTKDsYDaCesVqvRaLzyyivXr1+Prd3n82FrgVcA2q04BW36pylLQX6CFhGLet26dePHj8dcFBcXJzPuJU5oc67A4+Kuu+7iwBCy34pEbktwjN0V1mqv1wurKM7OSNEiimJlZeWCBQtGjRqFKuXIsMU5U6vVVqs1mXTMbi3UoGMGwjfhUTB58mREpjHLAZmjFdmi3p+OGxjeQl+EBBQ47q1bt+68886DpycSayHhJIqnNOC4limyJ8pBuALtBLEYtkSo76GyGDhw4FdffYXnstvt0qJQUCKB2eolTv5ioxSALAzywmQNbzMg8ubNmy+77DLwQMeOHRvwXMoUnyDzTMeOHWkbgNqz0QdpuQ5tCY4hNnIiOa+AM4/HM2/evOOOOw5CKHVPMBFYLBaz2YyLyeA42TLO1HWwkfQUVl5e/uqrr0LNjWhaPBS0Fi036+ndmX4C+Lp0qPho3759U6ZMgRtpQUEBtBO0kpWUlMDAnSl6pnof6qywKxuNRjiiarXagQMHLly4EFVioaPA08ViMYR301evdf1S05u4HPkWjoDQ9pCXgsEgozR//vnnq6++GsskC8HxVqsVFt3x48fv3r0bB+vWpVVbgmMYPbFOiAXV1dV+v/+pp55CRUV6qkIIglpQGtCM7IjwrMqyZwU2A6nC5IQTTti6dSsETOY4DofDWPytyxmJv86UQIymQVFnn8+3b9++2bNnFxUVIVgGIifslpgC6CjkcnkWlhm228S/ZANu1YIgdO7cedasWRs3bkT2KPCVz+c7dOgQctHhSiQSqampafXDbOKktKErsKvjUMusikhUgNNVOByurKy84oorUOEhcQalglSqm3FifzjSIIzgscceQ/RK69KzLcExAAumJHjd79+//+effz7uuOOKioqQnQ9aJ4VCEXcoRsZVVH2WTqr04JM4YZm9gvM74Fij0ZjN5tNPPx2GR7rroRAZjm+tyxmJv+5yuXBaR8Q5TpoOh+ONN94YO3YscnrQUcFkMjHLB31IQO3MUjXxbg0sYwwAcGy1WulNjIMXmErqOgIslmYBZnb2RPrkrzRMAe7iUvchJLAHnQOBgNfr3bBhwzXXXIOg+XqnMnHG07sCZoDocPLJJ+/atavVEbk14RhzkOxvF7Wi8gAAIABJREFUIBBwu92wqESjUegl/X4/GqIo/vjjj1OmTEGAXJzMC7E3vUlquW9h+q1WK5O9zp8/H0BAb0cpNRpm7kx9Kv1FtCG/8DpXEVPDALB8Pt8HH3xw9dVXwziJitrSY0fLURJ3Bj2T/YUfi1ar1el0jHovKCiA4X7kyJFLliyBmitZItZMUTh/n4YpAI8dBO+B61avXv23v/2NdZ4QTYeJ5npPXPKp8ht2ZZgQFArFWWedhf0Yse8ejycUCrGOe3aUVLkIxzitw5UtFAoxuQSw2Ov1/vHHH3PmzEEeVWSEggOTVOxNdW6y0B+SIyIAkV3w448/Bi8SjunAl53pxzoh8qIB2RwmU2ixw+EwzunBYNDlctXW1v7000/333//wIEDEdAMLMYKIVa2NEmTAbHNZqO9DjnIEfqB5delS5dHH30U3jjBYPDw4cOIy0pUhTUMIvlPM0UBj8cDloPHFFTMP/7447hx4zQaDVT8f+aPZ511iszNZDAkCwToy2Syrl27Yj0ypSLQGQdW6QrN1IMn3icX4Rhq/nA47HQ6MU+iKFZVVR08eFAUxW3btp1//vnILIHkh0iPq1QqpaBMMa2Zc5bBrxMjUBxv0KBBO3fuzEE4hssgz+z2ulcsFoMs6XQ6X3zxRXoTW61WYDHoT7I3kBgzUyRNBsdwWTGbzdj/mL+xffv2t9xyy6+//opdp7a2FtEreThOxIVsXvF6vVzmTqcTEoAoil9++SXqwhgMBqwdg8GQQXsPs6bQ4HT++ecfPnyYfrTgE4Y7ZYEmuQLH0keFeg445fP5kH8Ee+bUqVOxCDt37oxAL41GQziIQ+QGlmurfAQ7PnBKoVBcfvnlgDxoA0gByqq8koUGf5QsiCQDvB6NRh0Ox7///e+//OUvKJNRXFyM3MRxZAfatgqF8aPMUAxnR0EQSktLL7744tWrV1dXV0ejUQKxKIrbt28H/fPScRbYrN6foIkvGo0ir0UsFoOfwzvvvIP9HtnrEUIdx1rc3eOuN/oWooMgCPSFLywsfPPNN2m/wSaBBADZOa3mBBxjkrAqIpEI66fV1tZCU1xdXf3JJ5907dq1vLycWxmz/ySTjhudjyx3gOMt5cd7770XNo1cgGPpOmFlHbfbjehtu92+evXqiy++uHPnzkhPzASyJpOJh0c+WnYQmeswriGXy00mE7RYKpVq2LBhL7/8ssPh4DNCD+Pz+XhGlh5FuQOxf77RohSAWwXj7EF/OhfNmzevpKQEygpEFUmXrXTqpdeb0obySq1Ww+wPrD/ttNMQyiT1ks5apbRcgWOmHEViGmyPsOMdOHAATlQwttJXtLCwEHSU6ig4PVk4LPO3mtiQy+UMw9Xr9e+++y7qqLYWHEs3fEqI0BR5PJ6qqiqg1ZYtW+64447OnTuDfaFrY2xbE589m93o0dG1a9e5c+dCx4I1hqwmWPDZlHpaFM7a+s0BfNwaqSUTRRFxGXfccQdd33gUizPlpbHewSeMAyguLlYqlXK5fNmyZbBaQ0KHzMSSuy1K7dyC43DdSxTFgwcPQi5btWrV8OHDGcnKnAPS3Y9LXXoxjenhfVqogemHdN+xY8edO3f6/X7iIKc5a9JZHBxDhRqJRPbu3Qt2rKysnDt3bo8ePZD2TKFQ2Gw2ysVqtRqRNS1ErkZvK5XKpW2lUtmjR4+77rpry5Ytfr9/z549VVVV0H2BtrRSIh0VKZ9vtAoFYDGjUOzz+ZiufseOHaIo7tix4/LLL4dy0mazaTQaOPMAmsEnaax3wAUcT9VqNXH5vPPO+/bbb6WbBHyNskCcXIFjuLJCNOYBec6cOccccwzyHBqNRngIgu5QGeOjOBTm20bXc5Y7wBwBOO7Xrx+04a1oyiMcY0tg4ldYlt9///2xY8cyBzSEYtAWVTxIZ2kjmySVQrC0/Wd5ww8//BDSFkRjmIJhk8F17nnSRhbWW/4nEikgzY7L6QgEAlBf7N+/XxTFNWvW9OjRA3EDOp1Oq9UCASAjgwNT5T2wNM58yLwsCALMIS+99BJGhQM6BPbEkWf8SjbgmCSOW/9466t7MWgSz//f//536tSp2LjMZjOKuKRK7lzrj/LDsPtfccUVsCBn4RAEAJJGnYG9EFYD1zpshMDljz766MYbb4SaGJtfGqJHGsSXwrq0TY8UhJPIZDIE9VApgYZcLh87duyCBQtQEREJ55DnCM+Y8cWTv2GLUgDKCsaJvPvuu9q6F3KP0N0CrBJnt2gK+8V9BbpEpVKp1+srKip2797NJFmwYLXow+LmWYVjPg+WvcfjQbxTIBCQulsvXbp03LhxcENBTC0grCkkzuU+rFdvNBrvuusuOlaTLC3UwHbI+hRw68ZxhDgF8+mWLVtuu+22nj17MrGOzWYrLi62Wq1ms7mlaSuFYGm7pKQEiKzVao1Go9TVSavVmkwmg8HQs2fPW2+99bvvvotEIthmAMfgND5mC1E4f9uWoAC1yRDRKisr77zzTnXdC8lPYLOFSQnu/CmxaDI4RlHEefPmwcZIm15LPGPcPVsTjhlfhyIL8Dp67bXXunTpwuVHyahDhw4p0ToHOyNiAgeihQsXEiXjpiTjb+nNjl+kYk4URafTuWvXLvziv/71r8GDB5eVlTG+XKpQy4KALIXguDZiygnEyBIFtY/ZbJ48efKPP/6Ipzt8+DCUEtJYu4yTNH/DLFAASkvkbgU079+/f8SIEVQpCIJAX4s4bG3K8o/7CqVjKDGGDx8OXsJezpN9iz54a8Ixwg0Yertv3767774bZ2QWl1WpVKWlpdDixy3RtvgWHrslJSXff/894CMLPjTc3vmLDLSB+9fatWvPPPNMa90LbphUzRMBidFZIztXFH9RqVSaTCaz2QzthEwmO/fcc1esWIEFY697Ye8BFlNT0aJLKH/zFqIAhGIIbQyhXrZsWWlpKdTHsGHQ4Yd80sRGMjiGTqywsPC1117DksmCRhE0bGU4PnjwIHxZtm/fPm3aNDgYGgwGwAEiXNMmdxNnJZvdoA3v1KkTZdIWYmXpbeFmD8byeDwulwtxR36/3+VyPf300x07dgQRkIyUBIF0jCgbZqfkpy3agIIYBjr4cmg0mvLycnjsWyyW008//YUXXkCIHRwk+ICMsqOmQkqNfLutUIBQiAb49k8p9Z577oHaymKxyGQyJOpLgz+TwTFNVieffDK2BOSvyALdWhOOqaxYu3btxIkToa9Ehh2NRmO1WpkRURCEkpISiktttEF3vQEDBlRXVzM1XUtPM+szIiANsiSi7M455xymzlKr1VDJobIv5WLCbkuTXfpDAGL6NcKSjg5/FrucM2fO999/z2ha7DE8VOZRuKU5Kjv3Z5o9RohAdDt8+PDAgQPlcrlOp1MqlXBQS8O2kQyOgezFxcWCIHzxxRf0w8vCU7cmHLtcrlgstnbt2gsuuADpBVBc0mQyUSLWaDRFRUXA5ZaGg5a+P6LyBEE4/fTTHQ5H1uA4Go1CAYdk6pA1NmzYcOqpp0IupkkENYpYxw/whwwbaZhKUqVnHBzjzKhUKpGSDVqUyZMn//TTT8zwZ7fbmbwc6Y2yoPzJwrLM/wRK4mLHdTgcUK85HA6Iq/Pnz4dWk0CB6LCUWC4ZHEMHAulw0qRJyLp5VOiOFy9ePGTIEAhoNpsNCkocFhB6wDNIFuAgpblMo7NSqQT3TJgwgSevLEwzt3cUQo5EIlu3bn3ggQcoC6NKjVKpZPYs7BzM00ZcTuOpm/6VeuFYpVLJ5XKDwTBu3Lj33nvP6XQGg0GsSabDpxgl1ZLnEa2tUwCnHEgPTPqK5IKhUOiSSy7hcRMGvaZzGnomg2Pe1mq1GgyGjRs3gq+yQM8sSceo+RgKheDUjcd76qmnhg8fjry0JpNJp9Np6l6pkjW9/lz8aDBvOs4+BQUFiJhMY9dNNh4crwRBmDp1am1tLbKlZAeOoReikfquu+6y2WzMU8wcTFAOJBt/pq4zlRJ8Gek8g8J6FosFljqdTgdN8V/+8pfHHnts8+bNrAyPJZqF5ZGpn8CAg8GgNHsZtkm/3w+JHq7fzCoF/xD64yOeHvdxu901NTVQzkijWnjewr6bqcG31n3wsNK5JkBXVlZu3rx50KBByGUBnyUouMCl0tWdKt9CBDQajXK5/M/27NmzIaTDc5/1sDm8DNInG3AcCASCwSBkfrLXvHnzBgwYQHEYKxCm81TJl2p/7H5QPOEsjAmwWCyJFcWR0y/Vn6i3PwPb7rjjDr/fzwWWwems91YMiIBz8eeffz5s2DCI6vVmX6p38Bm8iCUEauNghG0YAVGYHUjuZWVld9555/r16+l+g5rwLpcLeFTv8+baRSliYg0j4oupshwOB2vx4eK2bdu++OKLL7/88osvvvjwww9XrFjx008/BYNBt9vNnqIogoWQ9RArKxaLuVwuxCLmGh1SHU8i3gGOAY6HDx9+9NFHS0pKFAoFXB4zBceQw4AJarV6zJgxO3bsABZzKlHEB8eyVJ+rgf7ZgGNkDECZZ5D4qaee6tOnD8VSRj8ji3EGV369t0KMH8CxrKyMBkM6OxsMhnbt2sF8FHeiqfeGTbwIoFGpVA899BDogIphDUxPRj5CJhS/348z/q233go/QsjCcalYmvgszenGBJharbagoAAKHObm79ChA1bXxIkTN2zYEAgEaLJjShNQLyPEycJNotEoAp38dS+fzweJGCZWlrw6dOjQZ5999vTTT59zzjndunVj8CEYtX379hdccMEDDzywbt06ZIC02+047gCXvV6vFKk9Hk8WHq1FfyIZHGPHCgaDO3bsgBsyVnSm4JhBZ6C8QqF49913sYPGwXHGPSmzAcfU8dntdrfbvWTJEu5p1FFCSoKMLD1otFBbpVLZ6l70YLXZbCUlJVBbo6IP9obMDkChUKjV6vnz52cTjrFKAcp2u33w4MHYGJKxb2Yfud67KRQKk8mEatNQWRiNRmazraio+PTTT4m5cFzz+/3wN8L1rLmCNh9xOGA45CFvFDQVLISxY8eOhx9+eMCAAfDc0uv12J+USqXFYsHBGX6HHTp0uOyyy1auXInb7t27lzqKaDTq8XigXs+CEqz5lGn4DnhA6YNAOkZ4CDbpWbNmQamFOrkUnurluqZfpPkKqstbb73V4/FgE8UY6MYjHV7Dj9OUT7MBx8jQBieVV199tbS0FPIRqmpTaatWq6VictNpl0bPoqKisrIyfNFsNuNojEy+3bt3P/PMM3v16kXMSuP+DXxFoVC88sorOFoCKJsyT83pg/z9UEq+++67cF+RRtk1MNoW+qigoIDxVGVlZXAq0mg03bt3f+6558LhcCAQqKqqItBwZaIRDAadTmdzaJLN77KcBAcPJTgU+k6nc/78+ccffzwWAsNtYMNEdg7OAjIqKJXK9u3bX3PNNd988w3uiYpZaDvrXpmFiWySi7+Fx5E+CKGQB6aNGzeOHj2a6TczBccgODZFlUrVv3//9evXYzyIwqfSVZopmyNPu5ENOIYmKxAIvPfeeyeeeKJMJmPhHJlMZjQaoabBGYEEbc5xuOHvUjvB6iyQzTt16jRlypS33nrr999/v+OOO4qKiiCvNXy3pn9K2X/RokX0DZByW9qz2PAXEaIGZrr11lsFQQAFpKTmgpfCdNMfLaWe0iLT+F2tVlteXn777bezchJGC86BzZNJDhNXacOP3+qfQkfh9Xp9Ph+XMXbHRYsWod6gIAjFxcUQCwoKCpBD0mw2Q2+D1KZWqxUu4SCaTqc744wzHnvssZ07d+JuceHvrf7gzRxA4kQDjkVRhL4C0szDDz8MA0+y015KzImC9IRjxmE/8cQTHI+0snhm9Y3ZgGPojn/88ceuXbsKgtClSxfAH3wqLBYL8RExxKmSL9X+pHX79u31er1MJhs+fPg///nPDRs2MOE0YEsmk6lUqlTvn6w/fSTfe+89cFJ2pGMerPx+/3nnnQepH1sROJi4DMokG3+mruNXjEZjaWkpzCbjx49funQplpndbnc4HAcOHABxkIA0FAoFAgG/3w/FK6TLZq72rH2dyxigKYpidXX1V199dckll/Ts2VOr1VqtVpox/zQtUDoBofDXYDAwIS/OFojTMRqN55133vvvv48kzvv372fQRNYesIV+iHTj/QHHyIGFlFiiKP7www+nnnoqIQVcKiVdqnyLUzLkErlcDveec889t7a2FksJxTHQDgaDHF7zG9mA43A4vGHDhrPOOgvpogEH0mLdOKYxeXGq5Eu1v1qthtAhCMLxxx//zDPPbN++3ePxYLW43W6PxzN58mTMSgb9naGQkslky5cvB+5DRm7+LDZ8B8iYKPAxZswYUBuxHrDmScWKVImZRn94NGLBDBs2bNGiRRB2iCNch4BgqFmDwSANKejQ8FPnzqcejwdHWui7d+/e/eijjx5//PHI3kvggA4UmKure8F/y2q10gFJr9eTITUaDSgJv+wLLrhgzZo1oAzUx7lDgfRGQjbg16msQLobMsaDDz6o0+mkbEyqpnHaQzAU7oAMgnK5vE+fPr/99hsDiaXcyOE1v5FJOBZFcc+ePSAi9JUAgt9+++2yyy6zWCwEQez/aazker8i1ThTE03boEql0uv11M2XlJRA4B0wYMCzzz6Lmj3SacYcA47ha1Hvj6Z9URAEpHPDuTWzuqd6GQKmMFRV6Nu3L/iMEnHaD8IvkuZ0G0dEiVQXxJBrVKLEIWnOnDm7d++GugZq4nrHn2sXUa2HBmqmKqXwiyeCwwOSNEHX6XA4XnzxxX79+sHVL1PwQR+MXr16/eMf/9i6dSvW4KFDh9BwOBwulysSifCQgeuoiIZ2Zg/dLTplODCB2vAt2bJly+jRo7HG1Wo1S5Fi4ZNRm9gglIOwjA59/PHHqWuC6IC3GXzYTMIxpPeamhqHwxGJRJgf78orr6TtDpuVwWDIIByQfPBbQIwjT3xISCQIgtVqhUPMscce+9RTT9XU1KByLdiRqysLcPzGG2+ApfA3g9NZ761aGo61Wq1erzcajTRDUR/Svn37Tp06Id7EYrFgUmw22x133LFly5ZwOAwP4qwpbeqlT6oXo9GoVHtI8BVF0eVy0fmstrYWUj+K1a9Zs+aiiy4CBWjE5iogD6chzcFVEXVbdDpd7969H3rooQMHDoCTDx8+TEMFlmQgEICHVigUaiEpL1WSptSfIMjcWLW1tbNnz4ZBj979EMiaCMHSbpyLODi+6qqrWKPE5/NhP8ish08m4Rh8iX0DTBkIBO677z5uVkgPBCUAGVFKiPTakMIY64ViAQiBA/fL5XIkf+rVq9cjjzyya9cu8CV8uQHH0kUVDodbVDo+wuCY7AtFG93XeGqhGqq4uPivf/3rJ598guBMMjfWVUprshU7x3lKSGVMPMjhw4cZtxIKhbZs2QJ2wimYB7VMScfcBbVaLWheUlIyatSoN998E0XBkaskUPeK0wghtx8BrhWp2vSfplEB+w1OId9//73VakUOFipFwZmpogr5OQ6OKyoq9uzZwwBjUDKzp4pMwnE0Gt23bx/QDbrR559/3mg0wkBnNpuZtpjHWz55cxoozU1DGYwh8GyF7zBKWlx11VXr1q3DPgH3TAy1uroaEYOQ7hOl4+aMTfpdsIUgCDkCx9KxNaeNkjlU7EgzEMG5GO5ZQ4YMefbZZw8fPhyLxWCUI8Fhlmn6gmzdntAvgXng9gRhGbIwVBnos2HDhmeeeaZdu3ZIT8j9SaFQdOzYMRkcpzoXOA7CKAqREMGl/fr1u+GGG1asWAGe9/v9hw8fhkyHgGw8AuLNWpekKf06hH3sfKj8EgwGPR7PBRdcwAgvFkJLlZjS/nFwrFAoPvjgAzpfAo5zVzqmWwI2kOXLl5eXlysUCiQvZkZ5uCtIH7v5bW6AGo0GAQUMsTMajaeddtqnn37q9XoxkUhuSV6Uam9xMU46bv7wcIcjFY6hKeYZCKfF4uLi8vJy7Ls9e/Z85plnDhw4AFIjtycP9T6fDxaSlNZkK3YGk0AogxMh9xVmmAuFQh999BFqjEEoBhYrlcp27drBoS1TcAzPRdwT8ofZbMZ0yOXyY445ZsaMGZs3b+YgkTHG7XYT17gWWpGqTf9pWHSR8g37CpDx7bff1mq1yI4NOOaJOb0lHAfHgiDcdtttcIzBpgvEa/rIG+2ZSekYg4MeYOPGjUjVBtMNXW7h1UAfA8JocxqkNepo8a3RaGzXrt306dN37dpFozyGhyrOVVVV5Ei3201+jYPj5owt8bu5Ix0nji29KyS4SqVCKiiefrp3737TTTetXr26pqaGpQagMXc4HLW1tTD5ti04AJ/EabpYV00Uxa+++uriiy8Gk1ut1uLiYlgyTSYTNy0E2lFlRxqmoTummVSr1RYXF9tsNukV1BwaMWLE/Pnz//jjD+4lBBSyfaNgkSMdqKOgvQcuA5WVlb169YLLIM7KCoUiDZbmXMTBsVKpHDZsmN1uP3jwIMiIbSCDZMkkHKPmayAQOHjw4KRJk1ABEFYdjUaDZ5M6OaRBqXq/QmUcG3K5vLy8fMyYMZ9++il2UZhTUGPY4/Fg/kBTr9frcrngP4greTiul87JLtpsNuCv2WwuKiqCvl6pVJ599tlLly51u91SlwOHwwGFJomPbErSM0oG+bslboWh0kDK3SUSiXz33Xe33HJL9+7doS6nKxGYH5oE6naSScfJ6JzsOnXH1Nehmpxer9doNCyYK5fLzz///JUrV27bto1SCMx6bUt3z3IKyI2FweOwMmPGDHgKIqYxvbiBBuC4rKxs5cqVPp8Pe1hOwzFtGrNnz0ZuOsR3yGQyqA6kWSAA0Mk4LKXrSNdLa75cLj/22GMnTZq0Y8cOWlSo/gc0xGIxziVwIW/KS4nmcZ3lcrlerycujBo16vHHH6+qqoKNCG5ecJ7HlXA4HHdYzqxJpCVQWHpPairAPHa7fevWrY888sjIkSMBBARiqtRBMZYgADRnRDqmFAKbNkRCbJBShTJSXthstoceemjNmjU4y4LsWcvnK6Vh2m0eRJDeD4MPh8PBYPCrr74CDqBkAYqNxfFqo2+TwTHcEx9//HHuB4gXTftBEr+YjnQsBTIEgIIpsVfMmzevU6dO4DbkImj0+ZvYAWRC8Uq04fsN3Rl0RoIgDB06dMmSJTiLIQcY1O1S2E0khDTANBKJTJkyhW6zTRxeE7u1Xb9joi0CySAFY6IR0aBSqbp37z5t2rQffvgBMgsimwHBjdK/3knJwkUOrIEG0mggvRy29mg0WlNTEwqF/H7/W2+9Bb9XqVUN/JCe8qGJvJReN0EQTjjhhLlz5/7222+QjqnKgx6AsjOBD6tDOo85eJpBotETTzyR6Y9BHzgCUoEjRduUCAhPhGuvvRbkYsbgDLJoOnDM2UJ1JcwZjv/vv//+ySefLA034v6f0pPX25m1KsDiVqsV5guj0YgTitVqnTRp0urVq5EfgFgM1uFiS0Y+cltLw3GOeFbUS+QGLoLL6ccNYaFdu3YQAAsKCiZMmMBMYyiKHmfpwhQko39rXSdjxDVwIEVmRepbIE7a7Xasgu+//37ixIk2mw35o1k/hWyfg3Dcvn17QNKYMWMWLVoEwzukS1IgHA5LM8MhFx3FGrxtrflK9rsY/MyZMxUKBUrnweMtU3CMA8fgwYMrKys9Ho/X64WbYLLxpHE9HTiO86AQRRHeS3a7feLEiZhpo9EITVYaJQWTIQIPZcgZjx8qLCyEmFZSUvL3v/998+bNmBXESkHBl4dj7Oc7duxoTlQe/bvR0Ol0mGKNRnPuuecuXrx4z549tK7wdBJHfCiF0uDUlvsKMSixgXAJXHc6nYyRFUXxt99+u/7663H+g6VaWlQll+EYCwcuT506dZowYcIHH3wAXzE8KevUiKKIUoSwW1JewduWm5H07gzW+u6772w2G/xYAMSZgmPI11qt9pdffqFoHAqF0httvd9KB46hBISjUiwWQ0i+KIqPPvpojx49sESVSqXNZlMoFDzhggma+ZfVK3hbeBr26dPnkUce2bt3L9Q6WDZYSzxVcbHVS4gGlBXNHDO/jm0mdzwrOLCmN3AYR3+5XF5SUtKzZ8+5c+cyW4LP56usrITKvl7ROAfhOBk/YEdxOp1Sw28wGNy9e/eTTz45cOBAeJKUl5dDUSaVxaRw3HTyZqcnUioWFxfjTKlUKkeOHHnnnXfu2LEDehgUkeJ6QYMOGHybjG6tdd3v92PkSJKHDMjwr8V0NJO8yAHwZ6KbDz74gK6ZkD8y9cjpwDFWFPYH2GREUfzyyy979uypUCgYeme1WmnBayYh+PWysjKyvs1mA/QPGTLk9ddfhwDocrmQ0jsu05KUt5LRjpt/nLKCv97MRluHY0iCgiAUFRVBZXH11VfTdwoFL0DDaDSK2qy5LxonY4ZYLMYELG63G/6RVVVVn3322QknnGA2m5VKZXl5OeMO2rdvD08Jqb8EZ7yZnJPZrzOBItRNTHU/cODABQsWQAOJRRSLxaDKgJWeyorclI4DgQDY75prrkFiTITmJpOOU6UqZlYQhLvvvtvn8yH2B+RqgItS+igdOMY+if0Bz19ZWTl+/HgoE+h6TTtbMuVDqtd1Oh0KJiHkH971Q4YM+eabb5DbHqXdgbxU9kmBuOGNPRkcpzrOhvvnjnTc8DgTP0VOXvh1jhw58ssvv0RiLZJa6jtBKTiO/ilxZ+t2hskeuU1EUdy4ceP111+PMx/96JEngR5EiUTLwSuAITqBxaHSqFGjPvvss3A4bLfbkWALamXEWMOMj1RErTs7ib8OPgyHw6+//jpS3+HRksFxqlODu2k0mrFjx7pcLlhBM+sRlA4cE9QQFer1eufMmYOsQDj+sJgg3HpSfexk/eFCr1AoSktLoce54IILVqxYAQUFU6XAzhCHAtK3iROJK3k4TkZ5XC/WaNUuAAAgAElEQVQvL1cqlT179nziiScOHDjA0ytzk0qJzHoN0ovE6GRT0CrXkc8v8a/dboeZZO/evffffz8sYDjwKRQKo9FoNpuJyzqdrmHq5c6nUjkJp3jokf8sG8b6ZBdccMGWLVtEUbTb7UgFB599KKAA0K0yWQ38KFjO4/Fs2bLl2GOPheUZdo56lRVpzIggCAaDoWPHjtCLwpzbwJBS/ShNOMaTY/PctGnTn6pbKHPbtWsHj3fm7qESLY2Hj/uKUqnUaDQ8ap1//vnffvstcpbTU4eLiiJbHBw0gAh5OI4jeNxbQRDOP//8r7/+GiRFYmgpeaWBasnonyqDZqE/eSaxUVtb+8Ybb6C6oFarLSoqgsAhlSgTPahy0JtCOpVUIcIbhOPn1mKz2fR6fWFh4bRp06CMahOObgAB7KDnnHOOIAilpaUISswIHEM1qlKpFArFTz/9BBeG7OWskK40aZuObqFQyOFwXHbZZTjGZupQAEd68DRNdlgGRUVFIMr555+/Zs0aTECmVmzW4LiN5jtWqVRXXHFFJBJBkSGyQabon6n7SHkV9wTOwqmWs8wcJhDz6U3PTeWdd9656KKLoIJDEtH0ZAtgNwx9hEXmOEfyeHA77CLsk+UGHWa46AoKCnr37v38889v27YNwYecdOqRId+Q5pk9vKfEEkhwCr/be+65B5JsBrdGbFfIkPXCCy/gkRGhl9I4G+jckHRMEsc1YH7F31dffbVTp06IQcoUHMNYxPRvJpMJS8JgMOCHxo4di90JRdEbeLyUPuJCjTPlZXZVtF3dsUKhmDhxIooAMTK1gdNGSsTPYGeyK+9JOJZGzKMbdnTkzPT7/Tj2rVmz5qqrrurdu7fVagVcWiwWJCZMI5qU5dIRI0dbH4pDFhYWarValUqlVqshqP5/7J13nJTV9f+nt53Z3qiioiIKAUECigVRMcUARlDAhqJBYizxazREY0WUaIwYu0bxZ8VuYqIIYsdGUESICliAZdk6uzt1p/2EN7/j85uZ59mZ2WcL38z+sa87d+48z73nnvu55557ir78lvnTWL8Wi0V6Yjabi4qKrFbriSeeuGzZsmAw6Pf7ET+bmppEHyVmyJBUyN7NBXFaaW9vf/TRRyVCSOYU6LClBFO++uqrYaqel44xAIrH43V1dUceeaREfdYRjiVII7acSu/qk08++eOPPxbo9Pl8es26PDMPx2p8OWvWLEzf4YFeiMWi0Vb2jZUj0aPE90ypUWlqaiIf8+LFi7+Piy0SItFBxXwzBzt6vJaRkZWERftMvQSJltxLypbdU2aMrDUy5ohOxmw2l5WVnX322Z9++mkwGMT/1ufzYV0gMSchrF7rMdvncLHM/rp+/fpBgwZhfawX9aAGjDFjxgwurpVslm2HU9tnKh0rf4mCP5FI3HrrrSaTCWVuZWWlGhzLpGZYEN0Whjj8CmH5uOOOW716NR3AmkJHM2w1OM6w2x02gy16j3TcYYdTG8ycOVPO8ghH+koHSjbLuawhHQuUsIqCwWAoFGpra2MNY8QmEpDNZiMED3SQWDypZMmwBmMGlI8wucfjwQagqKiIszB5EtIiSIZvybmZ6I7NZjMmTPihEfaLg2lpaeltt93m8/lwDyF2Bwa/MIa+h/eseIDNAOE9HA6PHj1aiSQ5k0V+yNmFW7HDDjssFot161VeEluLcM6w165du++++4poXF1drRcc80ymnwQTOIBNnDgRHYWwAtnAspozjcZ5OBbOUysAxxBK7Io0SNojXyXxrVxDBQIBPIOIsCyisdfrfeuttyZPnmwymZRJEuBnSEEcbeBJjThq9fzKaDSSwgrHBJIkKPNGFxYW9u3bV0ILKa2YxeJV7RV61ctLUbAQsVZgmstMg8Fw8MEHP/PMM1u2bEFjiUWgz+cLBoM9m/NQaVU1efJkiKkXcaADED9kyBDSD+o73oykYxgah2Nh4t///veCxSaTiT1flxtMjksEoGIvcjgcQ4cOXbFiBStN4o2KB6cuy14NjtOKKjlX9h7pONshGAwGpXQMJ+xB0vGmTZsEqel8a2vr6tWrr7jiisGDBxOUjqXrdDqRBrgIopKs29kSTRlakzBjPE1eV1lZOXr06MrKSpPJxB2JYGJSIYdXZ/UTLMPog3RSsLiwsJCzv8vlqqqqMhgM55133iOPPCKLUTTIuizGHB4iESWZXAAqt5DHaekGKTji9O/fn3gM3eeVJ7wrcExQnkQi8corrwwZMkTuLktLS3W07wOCCZeMrfGIESPuvfdeHLJRDnq9XnbmblBWpJ2bnCv3aDieNWsWuXxEdyw+6Dmsny76iZJveQUHu3g8HggEJOb9N998s2jRorFjxyJVsNgKCwv79esnQkCSChXVXLZTD7QR+FGsyrgi++lPf/rcc8+tX7/+r3/96yGHHEKaMXA/9X+27822PT1UwrH0vKKignBdeB6z2G0226GHHvr73//+X//6l9ih9+z2LJgQCoWeffZZ9rNs6aDWXm6wiGj4/PPP6x4nOlPpmIg8pELx+/3Tpk0TSx1JiKKmrFAbnlo9qisRJb63Zb722mvZ8cj9LNY2LDy9VnVeOlabEanfo6/yuOqJx+OhUOi5556bMGECF8VcS1gslpKSEoDYYrGI97NAj2CTUCPDAsdbq9WKZ7nZbC4tLR06dOjNN9/M8Q6N9vr16y+++OKKiopUIM5ZMM+whzQDbugt8cqVuldsP6AG+m4ujaxW6/jx4++55x7E5B7cnhOJBK7C7e3tgUBg7dq1HHGyIoJGY4mo7nQ67Xb74sWLMf7TC3/i8XgHcCzERUG+efPmRCLx1FNPVVdXGwwGsUUzm80FBQUaI1H7SlhcrLWx/kHuZm1cfvnlkUikqalJx2GnfVS3wfEeandsMBhmzZrF7Q3qQn2vldNOikYlm3E4HG5ra4M/WR4iHSuPz2zn8Xj8gw8+OPPMM4ES9ANJOgH52CHTik2rSGHwMxphVMZiVsHTzGbzgQceeM0116xdu5beksWVhbZjx45PPvnk5z//ef/+/Vn85DajrAxdDyxiC6HWT73qhSBJBTSzDofD6XQWFhYefvjh9957LxtMLBbjfk/myOv1ipeAmHjrK06J8SUsUVdXV1lZqRcRjEaj6G3ApQULFnCbrcGi2X6lBccIoRJjkIPA9u3bp0+fDtvJ5sPHbEcuimaGip28yWQiJAUhOidPnvzJJ5+goMh2bNm27zY43nPjHfcqOFYGWuOamwDkbBX4qgg0JxKJTZs2XXPNNYMGDYJduafCmjgJaARe07I0P1fyPO3FNg6fEbTG4tmPhHHiiSf+/e9/TzreKRkPz+ylS5eecMIJ6GqVr6NcVFRUUlIi94ppO6ljZVriID6DxSJEDxkyZPr06W+//fa2bdugfCAQkJirYqeszGOt444uIgIhNVpbW4cMGYK6SRdqJMHxH//4R4SAbHFGo70WHGNdSEKHRCKBS/Tjjz+OFkkOL0oX+KyGjVU8XMvT5D6QODUjRowgTo3uu1BaiihXRZdmA8nDcVr6Z1spggKmPuLEwRkOHy14eP369YsXLx45ciRub+JPhE1bVkwryt9UOJaDPOtWjORYL6NGjVq+fDkgRbAXSYxEUAixmGab+frrr2+88cZDDjmksLAQPxGDwWC3210ul+ACb8y2/3q1hwKELpA9A/F/wYIFmzZtwrmGIZNIRXZH5VrLdt7V2gscRyIRrvUmTpyoox237H9Ix7/97W+RUNX6k0O9FhxzvuOV0Wi0qamptrZ2ypQp6JgYJ8FHsKyQKcmwoDzH4T4vqb0KCwudTucdd9zBomIucxheVj9RsogSjjMcTofNWAa95yqvww6nNuhV0jHXiaKpYAUyifX19YTHjMfjL7/88oknniiiK7NABgOurdTgKXX4qTX8VqRjAWuXy1VYWMjzBwwYgHoqGAzW1NQASWQxZ0dB14mVGN+2tLQgQX/55ZcXXHABlgzoRmSNoCsQC5DUvulV0yF92CRsNhsJWyH1iBEjnnrqKVYuKl2/349sx3UfI00KhJvVgk1qLO5pAFcikTjrrLNEcu88NcRFHjg+++yz2eyTutGZj1pwjC4GOA6Hw7FY7KGHHkJuFeYWT560F7LaJBDehbGUN4F2u33evHnooVpaWjDt6Mw4M/ltHo6156sX6o7b29tFa4xwxJpnqX/xxReXXXYZNxxc0xGnmGEWFRVJOKoOB67WQAnHOOzZbDa5Uxk1atTChQu//vrrHTt2tLa2EiUDNoMhURnTW9wootEoizyRSNTU1FBetmzZpEmTHA6H2+1GRrNYLP369ZMXqXWvS+tFWlS+hcri4mIIPmHChJdeekkOLiAmwYJl1JmszUzacKuB5Q9Hjfnz5yv71sky53i0qQaDYcqUKUBTJn3LsE0HcExQCMbZ0tJyyimnsEUDx8r4ajnY9ympg/qYuXS5XEOGDCGUFNKEkoMzHFgOzdTgWE06yK2+90jH2fa/t8GxCEFJoBwOh7/88ssFCxbgplRWVoYhJof9ioqKkpISOe8rZQIlQ8o1XSqVlM34FukYqQIerqiomDFjxj/+8Y9AINDa2ip7RiQSaWxsBGSj0WgoFJKv0KLGYrFwONzc3Cwu3ZFIJBgMxmKxpUuXTpgwgVEIEBNDMbWTOtYox5tUBqGSaEh8D66CuPA///zz33//fa7yGCbe1RxocliqaX8CvgNWCOCLFy/WmMdsSYRqCLsvg8Fw9NFH625f0AEci6YikUi8+uqrgwYNgo/FIBxc9ng82Y6NiZTZNZvNEvJqzJgxd911F2ZJ+N2hTUs7BzpW5uFYexJ7GxwjAUWjUWKBJxIJv9+/adOm++67b+rUqcp7MLPZXFJSUlZWJgIdNzxkixAmTCqoUUPZjDbAscvlKigo8Hg8o0ePvueee0Cfuro64nE3NTWxmrh1RGAkx67cVCtP8cKNHFL9fn9tbe2OHTseeOABbiP79++/zz776Ag3mYxXOXbKjB0NMhSQzQ/VvNvtLi8v32uvvW6//fZly5bV1tZiBh4Oh3VXQorEjbPck08+qSN9xBCQ6JKjRo1qaGgQ2zNdgKgDOGZ4zc3N8Xj82muvlWCAnPJkV8RIU2061epFO2EymUR3bDab582bx8ETAWHHjh15OO7MZONOmUgkOp+6tFfpjgmFrrwjevXVV+fNmwdMWCyWwsJCBAXkVlamOP6CIwLQqUCjxrfKlrQR6fiAAw5YsGABFrg+n48rOxF7EQaVAXdkajjFI++L3y1XYSx4OSCGw+FPPvnkwgsvRGucmySkNrS09crxKst2u110ldBW3MrFdUBUt2DFT3/60+eff54EKzL2zvC28rdyWuJqN5FIvPzyy10Bx8igw4YNq6+v1x+ORciXvQW+kVBB2FQPHjyYowdG6cLNaacwk0rxhgLcwfRjjz22pqampaVFjjb0SnhUOQH6lkUe6eqIbnm747QTl8SHyo/iFyqCJMY2bW1tzNrq1avPOOOM0tJSuW/JhANpo+RkJdxImRsqLnAIa2Wz2ZSx291u94ABA6688koMgZBnyRaoryGXrNC2traVK1fOnDmTIdBV7ieJ+IOIQ72ITeJXJkMTfWgOdMucwspOejyemTNnLlu2zO/3x+PxlpYWr9eLxp/JZYx42yptM6jX8PqDE8ANoPmtt97SF47RDbAJDR48+JNPPtFxfn9wA0nL+hwD4a2bbrqJoFPiMqRk4mwnRjk9xKbAQqO8vPzuu+/2+/3QVO7K0bKlXcM6VnYbHOcN3dLOmpIJ1cqc2clUDZNs2bJl4cKFo0ePLi8vLyoqcrlc2XKjIJGAFAW3203iR5GgjUZjWVmZoFufPn24wZ44ceKyZcva29vR/IryJBqNNjY2ph1sDpWYYYhCIxAIvP/++/fcc8+YMWPQICv7b7fbHQ4H4irlpLFIY8glRMiWepm3R6fMewcMGDB79mx2L1l3jY2N3N5L5GKiuYbDYXAZCmiQTuRiNPJvv/125t3rsCW6Y8n51N1wzD1DJBLZsWPHj370I4JIiD5bLzhG3EDfdPrpp6MsZjVyiYFxzP8m6TgPx2lXlBoEIzRhDSZtGhsbvV7vY489dtxxx3FsJyZkDtKQAFNSQfIwmUymoqIiyVxODmmsiUeMGPH4448TdFuUJ6Rhlq6mHWxulTjyKW//EonEV1999Yc//GHgwIESyctqtRYVFYmiAEmZXUT2kqTB5kC3DvErqQFvlA54PJ6jjjrqN7/5zTfffKPU6nDLJ9Tjak7pyKdGOn7CsQk1/bvvvssmlNST3D72MBwj8MdiMVQwJpOJ+1ylskI5sNQJ7rCGXPEej6egoKCoqOjNN99U+rlKhkQIrTYNetXLLp2krOhwFBk2gFa9x7Iiw24rm/WI7lhpY+Db9VdfX//ll1+ef/75+++/Pw7EOL+Rzl3Z4U6Wi4qKJHiFxWIpKCgwm83o1qqqqhYuXIj0EAqFfD7f9u3bxfEsHA5zWadxuM6WbwWheLiwKy9dvXr1zJkzMSPBGhXpOOnOXCT9TlImh5/L9SkWyvKEww477PHHH2fTFX/FtrY2UjXLqClo6GppwF7l9/sTicR7772XgwGudCy10JPKCtiltbX13HPPlYBBScqKTsKxOPgZjcZLLrmEs4Z4K3EDK/ORLftm2174Ow/HqYxITY/AMQssHo+jKW5sbLz11lsHDBjAsbGkpKS4uJhVJzEq1fqfbT0h1vC8EK8lg8FwwQUXfPHFFz6fr6Ghgej1iGNiBYF3A0YU2fKhWnvBekxrcTUGvyTp9bJly4455hjogKmS1WoVpz45aGdLB13ao9QWAzjkcafTWVxcbLFYjjvuuHfeeQc1BQ7AcixW4rKG2whAAUGA41WrVskRR5ch9CQcowh79913Bw0axD21hDJBJ4W+QonIWZUZW58+fQwGw5AhQ77++mu4WXkWU0KkGpvqVa98l9IrL6tBddi490jHHXY1qUFPGbqJ82s0Gn3yySeHDx+OgoubK7jIZDKVlZXllvpTuVBlyOQ94CuuN4xGY3V19dFHH/3uu+9u2rSppaVFojFgF0HcHNw9RIbQ8apHNKdJDycBB57WiUSirq7ur3/969ixY5VmD4ToApqVauK0Yxci6FvgXQQpLSoqcjqdyHZsEhaLpaKiYu7cucQRVppJBHf9yajV1rsaHOs1ip5XVoTD4RtuuEFpnkkuA13gGImGVXTLLbegppBwuvAx7ufK0Fxqk9H5+jwcazNuV8Mxh6HU/8g7//jHP7jAKC0tJWtGUvQGzAZKSkq0R6HxLeIFGGGxWBy7/pDpzGbz0KFDb7nllrq6uubmZoGGQCBQV1eHOkWkV9SdbW1tLS0tOuZy5KViLac0mOMrrBGIK/DVV1/NnTv3qKOOEocRcpISSUNN36hBnM5/JQol8FcZS7qysrJfv37g9ahRo+69997vvvuutrZW9KVyYtbe3mTn5rCyatWqHFLNqo20h+GY3fjkk082Go1Y+WBpqJxL5U6rNgy1eovFUllZaTAYDjjggLq6uoaGBhia8wgSB87ZcFvnAVf7CXk4Vpsp6nsKjj///POLLrqoqqrK4XCQSk4WBgvYaDSS104+ag8k6Vu5lMYXCQs2REuz2Wyz2QYPHnzFFVeQ3F5YMRAIeL1e0XUCHDg6o0YQcNTmumy/FTFF0J+XSqgvQe1EIvHiiy/+4he/KCsrw01D8kIR6Bm9gQw/iSy6f8T6O0lxrEy8gmrIZDKVlJQMHz58xYoVBB7BIwzXanA5LdFYv8wI/1etWkVWbF3GIlzXtYZuTDDCqWQeJDHoyy+/7HA4uHAzGo14OmU7NjmkyN0uzMHNr8lkwoVJbFzS0robKrsNjv9L7I7BhdT/klNGoA2bBALN4FzHjc0HH3xwww03DBgwoKSkBG5Rpp3Plg/V2hsMBsQCGJX7QBoXFRXNmDHjww8/pKttbW3dwId6vYI+19bWLlmyRMJ1OhwOQpPbbDYCdYk3B7lZU+/61OimVz3iXep/u91+1llnvfPOO4FAgFt9JS/FYjFlfBKsY7kPRHEciUTefPNNvTppNBrx/uBMb7FYBg8evG7dOm1pPdup3O2VJ+paUdmQ3vHWW281m82o5CQwfLYj1Ibj0aNHb9q0SaQMHZMtZUuLboPj/xJDN+XiUZbJiB4KhZAihfcAYtZSQ0PDkiVLJkyYkGQYwP2PgHK2rKjWHhYtLS3t37+/mFL8/Oc/f/7556PRaDAY3LJlC8bO+i6/bFk0q/ZibxcIBD7++OMbb7zxsMMOk6utgoICZVmZPkICs7EFqhFNr/pUIKYGIXTvvfdetGjRd999B7eAwl6vV6JdkwtcAARRmrP1q6++qqMBH+SiVxaL5cADD9ywYYO+/LATjvGpF88LUCkWi/3nP/+ZOnUq13fsmblJ/mpwzMAWLVokxtuSPicrttOrcR6OtRdYtsoKJQQry6J7DYfDLKpYLFZbWwsQJxKJZcuWnXTSSVgTW61WIp27XC4YBnbKjRXTDhCzsD59+ojYMXTo0EceeeSrr75CBSnuvFyU6cVvXf0cLsZFwGpoaHj++eevuuqqioqK0tJSGazNZsN0j0tR8AvlD6s+LdF0rBRtSVLBYDBUVFQgkx5wwAGPPfZYa2urz+eTfbGpqUkCliZ59DH2Z555Rsd+orBlizKbzciRXQXHCCnE9cAn9R//+AdJYggFgupErLhZFZn/R8ss0g05EKuqqjZt2iSvltu8rubUtM9Xg+PMx6jdEs7oPZYV2r1N+60uhm6JRKKxsVH8fUilA16/8cYbZ599dt++fe12e8muP1LMFRcXl5WVeTweOUrnzIdpx4XWEq3FwoULP/vsM6QTr9dbX19P3/x+v9fr1bB7TctUPViJhOjd9ccS41zy3nvvHXfccZiu9u/fH5ISnVG54bFUBaPT0k2XyiQUlo/YMhoMhoEDB6ImPfbYY9966y2CNxCbSRncBmTkHpWxP/jggzr2H+LwQLPZPGHChK1bt3YJHGNKgmUb22k0Gr3xxhuF3KI1lppsC6lwLNKWbHHdEypIbYXk4bjDOdUFjuvq6pBlAoFAQ0ODz+fjHDpv3rwxY8ag0BS0RSBISt8lG1uHHc6kgWDQaaedtnr1asC3pqYGGw9EEwR5bs/U+Ke31be2tsp1H7pXODwaje7YseOxxx778Y9/jDlKZWUlhn12ux25WKBHGRgvE2Lm0EbwN6nAo4xGo0yQ1WqtrKycM2eO5FWRy/+tW7fG43H81OGucDh8yy236OgGImYLCKZTpkxhq9Zx3ncrK/CHxpQCdvR6vSeddBImKSaTSUIB5KCLgaypcFxZWfniiy9i+I3qR/fhZUUpNTjW8bwDyvyX6I7ViA+D+Xy+xsZGyk899dTo0aM5MsNyxcXFotlUrnDMHpBQ9JqX8vJyNHJ//etfvV5vbW0tojESFgdk+plIJHSPOK5Gpc7XCxbTeQyTlZr6r7/++sorrxw4cCD4AlWJ2sh6B6z1onO2z8EwWWZfrhzNZvMhhxxy8803b9y4MRqNtrW1icpLGd4vEAjMnz9fx1x5cCb9MZvNp59+OgaOnZ8pecLuqzxcOSU6STAY/OSTT/baay9iXZPCVmJEZUtWNTieOnVqY2MjrI+Szufz9eBhMA/H2jMrpxmmjB1UOCm1kGpBTA23xGAEeS6wdsJ0RwKnlZSU4LSJUxmik/L2X7u3mX8rzk19+vSZNWvWSy+91NraGo/HfT5fW1sboBYKhRDk9T2cphJNxxoorJTrBZe9Xq+oxT/88MPzzz+/oKCgsrJSzFdIvcbKzZyS+rYEfMrKykinjZjsdDrFA3PkyJF33303sfwJakqwIfQVLS0tc+fOzUF8VBuF6GzZvebOnQsNdZyynXAsyv5oNEp527Ztzz//PGxqt9txD8UGM4fhqcHxzTffLF7RsVgMZSKeTjqOMPNH5eFYjRGp1wuOwfHPP/983rx51dXVdrtdaUKEkTu4kMRsfBQHM+3eZv4td4YSb2zvvfeeM2fOmjVrAC8uuuUevwf5M3NOpmVqLJ5IJEKybTZUv99PJNu6uroVK1YcccQR4otBPCYMsTOnpL4tZWMGQGRvcDqdor4oKys75ZRTXnnlFSYLrRfHmqamptNPPz2JhTrTQ6Vpmdls/s1vfqO7GdhuZQVHGHiO1TJ9+nQUdliMK69Qsh2SddcfBx+e43a7DzzwwG+//balpQWPO6VberZsp1f7boPj/2V2x7KdMxHIj3AUGzy6PLn73rFjx1133TVu3DhQWHZr+AT5Vxe3z8wZlUWL5EFQ7yFDhtx///3/+c9/RMak4Pf7JWMZUpiwjV582NXPkW0mqdDS0nL77bePGDHC7XZjx2KxWERrAVmUCqXMyatvy4KCAuK0wTkOh2PYsGHTpk1bu3Ytt8RMkNfrHTt2rI5wjIggXo6YhImjhi6zthOO4ScBxLa2ttbW1kMPPVQvOEbKlssZhJHzzjuvtbWVXRodPJrrbgikqUY4WVdJIYT0ZabeY1mR7bjUpGM54uDRjoQSjUb9fn/brj/O+5FIZMOGDX//+9+POuqogQMHctgqLS0tLy8v3vWHk5gAcbbdy7k9a5sIGHJar6iocLlcP/3pT5988kks81p2/QmE4QMtu46+y1KNRXWpD6n8ocrfvHnzr3/9a6KJsl9ihix3Ylz36Qhz2U4cihRcMRHvbDZbdXV1ZWXlnXfeKWaUX375ZcmujFzZPl+tPbp14Ot7IxwSyGl4CeYwWTvhmNUiIUd9Pt/bb79dXFysLxzLzQweUK+++qoS/ljJ0WhUI2JTDsPL6ifK/uRDCKUypRoci8lRJBJpbm5mi1UqwWKxWENDw4oVK04//XTyDCDXWK1W5YFUbq5l55bzaWpndKwBgs1ms+glOcnx9urq6tNOO40kpAj+JNVlgI2NjRwOepBvszx58zIAACAASURBVGJyiQaHb6TyfyKRwO0wkUisWbNm5syZHo8HjwyZEeKLoivQcQqyfRRT43K53G43KMmUORyOo48++m9/+1sikVi3bh35hrJ9uFp7+IS7QZvN9swzz+humPuDdEyuFE6UixYtYsBc4imPBjIxNMjkP1E8JIBIQUHBfvvtR+qaSCQSCoWCwaAceHWMD5stm6rBcSZjzKQN09x7pONM+pzUJq2hGyDl8/kkMHEikSBGYkNDQ1NT0/bt22+//Xbi/pSWlkqWCllI3I0kvavbPgpLsz0gcBmNRoIH0Y2hQ4deeeWV//73v9lsmpubZRPCK2yPu+ITMV8KEqWgtraWS6qXXnrpqKOOQkY2mUyFhYUiVGGO0m1zpHyRzBe6FIIiKXWqRUVF55133i233CItlT/PuUy0DYKXVlVVrVq1Sg732UKNWvvdumMcovBb/X5jOfnkkzmb6ALHmC4qg67+7ne/g32J203ecmELtb52dX0ejjvkVDU4bmlpkUNiY2MjAU+am5u3bt16//33H3zwwVyDEAaIt3DYJKiNGO102IGuaCC7Anf36EwQhei2qAuPOOKIxYsX19fXsw4DgUBzc3MgEBAVeVezqC7Px8kw9T8HZWSjeDweCoW8Xm9DQ8PChQsnTpzIOaawsLC4uNjlcgkud8WMaD9T7vGUzZjE4uJiSVZbVVWlvPRTNs6tDBgiOgwdOnTjxo0dGhdlO1+74ZjoLei/6uvrDz74YLfbrZeyQg6kQseVK1ciDpMET463IHK2Y9CrvRocqx1ecqvvPdJxtv1XU1aI0youUpgqBgKBV1999ZRTTkFCEcgj3K0kqshkYWTbz2zbIyjQT34rRnV0z+VyISEajUaPx3PMMcc89dRTnCMDgQBsswcpK1KBmBoxA0/yrk4kEu++++4FF1yw7777kodbDhDZklqX9kyKMow9mgqlFx9Xjri06PJSEbQpTJgwoa6uTsfoqYDYTjgWkRuIXL58eWVlJSoSkY6ZgNz092KvhxA0bNgwXJ7QvomxOjzRg4e+PBxrM64aHLOJ+v3+bdu2wULvvvvur371K7n8cTqdIkwVFxeLAQPriiTwckMiAE1nlApl7e7l/C0QQ3AMeTuF4uJisjjCw5zz7Ha72+3+5S9/+e677xJlpaGhoQft5bMVR+QYmrbg8/nq6+slup7P52OFxmKxZ5999ic/+UlhYaHdbi8vL8+Z4J38IVODQxCAS2RqLocLCwvZ+z0eT2eCX6d2kvfCyTNnzgwGg2zG2dJfo/1OOMaOmv+JROLOO+9kb9FLOjYYDKT8wM7/tNNOY7Lb29v9fj9DIo0NE6/R3S79Kg/HqSyorFGD40gkQtqkRCLx9ddfX3fddUOHDjUYDB6Ph1sHdLIiIMtyQhmXVM+33ZxwnpWcticGg8HtdhcWFnK2I1ETPR84cOAll1xC9grdTVC7lNXVHq48p7a2tsrNXktLC1awLS0tDz744Pjx45WM0c1lTCFFXOUoI7evnGNcLhcxkpSR6jrZT0RSAk5dcMEFSkFWjZ7Z1v9/umN2y8suuwx3wE72Xn4OuMt94D333NPW1qa7nJ/tyFPbdxsc76F2xyUlJccffzzHF2IgSEi2RCJRU1PzwAMPHHXUUawThE2WStJ/YYwMC3IyY8nhLGs0GuWmmwaYRoDmRDoXyVogPsM3ajfDD0U2lSOPPPLhhx/GMAmTTbmX5vwnkeqI4MMq24OUG9JhpKVwOPzRRx/de++9gwYNAvsghc1mw85BTkIOh0NU8GKdpk3b3vwtkQW5Trjtttughr6GubvhWJyO/H7/qaeeirpaL9IQO8rtdhP74qOPPuLSIBUQe7am2+B4D41Z4XQ6Tz75ZMyh6uvrhVyBQODFF1886aSTxEfA6XQWFhYmobB8zJavSktLkVutVmthYSHpnDFmZ7WXlpYefPDBEmyorKwMSZb1o2PUAnrOqwsKCuQupKSk5OCDD16+fLlkryAyopgJeb1eMTtpamrSPdZBly4ckgOEQiFBiUgksmXLlm+//fbMM890Op0lJSV9+/aFGgLQWDTKrqz7LGTLRZ1vb7VabTabyWQqKip6+eWXOUl0CRyHd/21t7dv2bLlRz/6EQJO5wcg7Iu+iYRj+GX2oI5YjXcFX/JuIGmn3mQyTZ48WRSO0Wh0+/btn3766YwZM0aNGsU6NJvNYgqa9iE5VKK3lfi8DocDiyun00kcsnPOOefzzz9fv379xRdfPGjQIIQJt9uN8ZPL5QK1c3h12p8gDCKMyzW12WweNGjQVVddtWHDhmAwKGo37jnD4XBzc7MgMuns1Piwt9WzLoj7LoicSCTq6+sjkcjq1aunT5/OwQU9u6TfhlAYouV27ZSW/j1YCStWV1d/9dVXeADpe8rfLR1j1xKNRtesWePxeITJIGgn/3ONjgJk9uzZwWAQQ6jeyXaohJRuIJ0cvvwcNuo9lhXSscwLc+fOBUqwFr/77ruJBwYCSmxGgpyoLZvMX0dLOfBaLBaPx1NcXMwlYUlJyaRJkwiJuWPHDqSVf/7zn5MmTSKdWFFRkVi7Sz+zfXtqe+XqwFzP7XaXlpZSv88++9x3333Nzc3BYJD7mG3btrGHoWQXZ/Hexv9q/VGKKX6/H/ddqE00tfr6+gceeODwww93u90QgS0zNbdsKjH3uBqz2TxmzBgiX+N6qka3HOp3w7Gopf/1r38ZDAZ9g5xyv4ki6Z577hGFYw7d7dKfKNkuD8ep66SsrOz000/HWeD5558fN26cxDEQIwp+xSVw6hNyq8Hs1+Fw9OvXD870eDwnnHDCww8/jKGkJBUlClVbW9tdd9110EEHoVXo27ev5FvKrQNJvxIdBRpq5D4qPR4PpBg7duxzzz0HeCUSCa/XK04W3Mj3wtOh2uJCDGRHoY3EmRHBORKJ1NTU3HrrrXvttRdna5vNhoUy1CM4XxIl96yPki7v/PPP55TAfzW65VC/E46hKZv2nXfeyVWyjocLlIZwqvhG6yvk5zDy1J+owbGalJdbfe+RjrPtv8FguOSSSz744IMLL7wQqdNisVAwm814rCoDM6otthzei1UTDxw2bNiNN96IUCzmQNu3b6+trSXpPfazDQ0N1157rYQo05GfZVycBkjc53a7S0pKJNU6i+jMM89ctmwZ5tgY9cu12B6UBRWqtu/6E6xgI8QPgkFFo9Gampo333zzggsuYC+E5nK4yXbee1t7g8GAOeZ9992H3gnXp1QkyblmJxxzEYz3+sUXXyxmwnqRg1kxmUxDhgxZt24dr2tubs650130wzwca894ZWXlwQcfvN9++4FHJHimbDablakwrVarhjSk/ZbUb8UiuLy8fO7cuatXryadqM/n27p1q1KbKQFYmpubGxoaQqHQhx9+eO6551ZXV2PYk/rwHGqU0rFAMwcFBEOiEdnt9oKCgvLy8osuuuiNN94As+p3/QmodREn6/tYJDYuJwFlrppINUsyF1GXJxKJ77777oEHHvjJT37Sp08fpb4iB1L3qp+gkTObzStXrsRahhOPjtTeCcccRvBXPuWUU/S1cjMajaI7PuWUUyTudS+008zDsTb3i4CJrAr0FBQUOJ1OkYBoowSp1LL2W1K/JT/FlClTli9fHg6Hg8EgduvwbXt7e3Nzs4gU8XhcvMv8fj+J+J588smf/OQnqU/OrUZGhFyMGSw6U7idMs3A7kMOOeSWW2755ptvAGXUrzou465+lDJPEEPgPzeWKF6o8fl8bJBbt2697bbbhg0bBh2Kiopyo3av+pXZbC4vLyfsaiwW65Lw85IKu66u7qijjlJGWdaFFtghGo3GefPmxeNxEWe6moeyfX63wfEeanecAzOgpyIqGGXiQhQUFIi6GfshToJAvN1uF9tVt9t9/PHH33PPPZJQURBNbX5pIDdmsVisra2trq7ub3/728SJE7EBkDAU4iwgVnp4oIjlstjnSSFbOsh14jHHHLN06VIULDAbAeDpsNfrlXSuokLkK5JYqo23t9WjWabn69at++Mf/4juAiNF+64//OisVivnKmxgnE6n7GTKDV72PwrZ0j/b9kw9rMhVLXtqWVmZyWQ66aSTGhoasH3oEt2xHPG+/vrr4cOHS0qobIeh1h7Kfk/oa665Ru4Me6FTabfB8R5qd6w2v9nWs6hsNltJSYkSdsWS1+Fw9OnTx2w2Dxgw4He/+92///1vCYuBwCuAmxaJENaUDmahUKilpcXn83366adXXHEFseWqq6u54hM3aKvVKmYbOrot4ISN+deAAQNOOeWUF198Uc77eNBIvmrMQNvb20n7phxF2sH2wkoO3PX19ahW/X7/Sy+9NG/ePEIvoAstKiqSqU91hlSmK03CYjmiZct1mbdXg2PSI/z+978XoOBMpuMU7L7Kw5tozZo11dXVjF9Hs210LkVFRUuWLGEhEZ5Cx2Ho8iihct7uOHPe1WgpyWplRSF4imTKysTtmMVpt9v79u1L3OFTTz317bffFiCGc3BJ6BCOEdBkQkXgQOpcu3bt3Llz8eUrLy/nEhIrZlY74rx0O6mgMeS0X5HzTayVTCbTuHHjLrzwwi+++AIFN8MhZoDy4E9vEVz2IEsMzFgZFEEisfBbsmTJ1KlTxU8EWCgpKXHv+iOcqTJEURLZ5WNaIutYqQbHBoOhrKzs2WeflflCh6ML+PCQnXCMAigUCq1YsUKIJacGoUJnChaLpaqqauXKlbwrHA7vQdJxZwau/C0c03ssK5R964qyGhwTFFxA2Wg0ut1uj8dTWVnJuX7IkCErV66US2bvLisxyR3TITCJdKyEY5ZQIBBA/AwGg8uXLydXOnoSvEYJqyKKFB3JYrFYysrK+vbtS9ADg8EwatSo++67TwleXFGmdpuILjou+y59FJYkZH0Nh8MtLS3iJr5t27ZbbrkFG/CyXX9CYZQD4gefKjJLy24oCOsqlRUGg2H06NGbNm0ifSL5bfXFsZ1wjLVKJBJZunQpQrHoK/Qaudls3nfffTds2IC5D5cwXcoTOTxclkGSdKwXEf7b4FjGKwSUGqvV6nA4TCaT1WoVW12LxTJ+/PgnnniisbHR6/WimGMlozzlUCUZOdWmGOTlW8r8VyoEeOy6dev+/Oc/H3TQQUVFRTj4iThSWVlJb1P/y3AyLAi44xzh8Xicu/7wYDzuuONefPFFetjc3Nze3s4JIBwO+/1+uSsTf2u1Ufee+kQi0dLSsnXrVgkLh0dMPB4n8Wttbe0111yDwIcGIynIn7ZGIkOyd6ZZWji2WCxnnXUWCopAICBGljpS/gfLikQicfvtt6Nc1yZHKoNq1+CjNWrUqLq6OolK16GMo+MgM3yUGhxrjy7bb3uPdJxtz3NrT8AdMuDxBDm2y4JxOp0DBgz41a9+hUOHWLPi26aE1Fgs1t7ejkZVbVqV7eVCj8pAIOD1ellRWG4lEolNmzZddtllXOUVFhb2798fUJa7u6RCtnSQ7H8SC8lms6G25kVOp/Pcc89dt26dXKrTW5/PJ3JlL1wvavSXPClIkUr1NwP0er1tbW3r1q276KKLBIi50yOaAoyRLZ31aq+mrPg++ciiRYsYTiQSwaxC/1x5pM/6nna/+93v2MnhG72Gx73ksccey1Yv2kC16eyp+jwc6zXjPAe2Jrom/hGCR06ns6ysDNVEaWnp7NmzX3rpJaX3GsdzUKmxsdHv9yet6g6ZhN/SjLKEi+Q+mWMmomgwGHz//fcvuOAC7k7QraFBTv2fLZUAF5PJpIz7TKVn1x/n9O+jbVxzzTW1u/5ksOFwGLm4FxqGqk0Bux3HbllTbW1tSu8+kPrzzz9/6aWXDjroINwrTCZTSUlJUVGR0+l0uVxJu6B8zJb+2bZXg+MBAwasXLlSDGMQGpD31UiRbf1O6VhMj+fMmQN08j/bYai152lTpkzhXeItmm1fu7q9sE6SskJtXLnV//dIx7C13W537fqz2+3AsQQIdzgcJ5544tKlS9GfKu2FYRVO7pThUhGcNaRFgTD5obIQj8dju/7we2LSgbyGhoZHH3104sSJEn4Im+Kk/9nOu6hBxYROkrwJKKNQttvtw4YNe/rpp9evXy/ciFOcvsu+S5eS6I4ZgpxC4vG4pJiQGYnFYps2bbr++uuHDBkihCJYtuBvUiFb+mfbXg2Ojz/++NbWVrHTlS1TR2LuhmMePWfOHIyO9YVjVB9EnyFXNOKJjsPQ5VGyALoajvdQu2OwQ+0/ECPyL5YSnNPlDl3i7BgMhuHDhy9atIiLEZGkAMqk/7pMrsZDBBoikUh7e/umTZtuuummQw45hOAtmGlaLJby8vKioiIlZAATjE7MtqBPJhCQhDLKj5MnT5bc1YSWVqZ5VmpgODLLEJQFjSH3yFdJfWObEYBes2bNaaedVrTLAA7FEQpci8XicDhE/57EfpnQOds2yhkUVZvZbL7hhhuwddm6dSvSQJc4SfOORCJxxhlnYJQDC2Y7DLX28OuFF17Ii1BZ6HsjqQt7dRsc76F2x0krQT6S/l0+koJLDCWtVqvSf9pgMPTr1++yyy7DXZ40zIFAoL29PQmF5aMuk6vxEMRk/64/ICMcDqPZxEK5X79+kjsKzbKAstVqdbvdYLEa/6vVp6pBqDnggANYhhdffPGXX36pRDG/39/U1BQMBrHBSDr+K1tqnB40SNGlX9E9Ticke2X/I1Yn557ly5ePHz+eCOlms7m4uFj2uZKSEizE1eipVz2cDBvb7Xan01lQUOB2u19++WXl4Yzh6BvsYbd0DDhi98PRTMfbPC7Q58+fD4vobjutFw/l4ViboQVwkwqSnoNTnvhTFRcXoxUV8Npvv/2mT5/+/vvvb9myJRgMio0E1pZ6zWO2z0FKILw6Ktr29vaWlpba2trly5cff/zxWMLtu+++YncBBQoLC2WwZWVl2tRL/TZJByIfDQZD311/bF133HFHbW2tz+cTnz1yPAMHYr2QhMW9EI6ZFxGKwWKEs3g83tzczL1lJBK5//77R40ahRgHFArLkVI5lZj61iAUY/+DWbrb7b766quZAqWaQl+xcjcco9Y57rjjGLasH6FCZwrkBVi0aBEcoxxMtiunS9urwXFnxq78LRzTe3THyr7lUJYFgFmkRHkn3a1oLQh7Zrfbhw8ffscdd3ATogRiv9/fs+H9gsFgKBSS2ScshgTECAQCTz/99IEHHigHRwFll8tFPkCop9Q2CHHEnDaVwmrSsWRErqio4OdHH330yy+/HIvFJJNIIpFoamriVrxLF4WOD5cdgnMPaorvFYNbtmwBGfx+f01NDTGJ2traLr/8clRGaI3QoCrNVNBmCKlTKZxbDfOYOjsVFRWPPfZYa2urRE3qKidpTO6JYMumlNtI0v6KAFf33ntvHo5ZXb1EWZF2sjKsVKYWJaKQ4C+mxMXFxd+r2xAei4uL58+fj+xDDDa5DyFzLiKejis/q0dhxaF28Od86vP5Fi5ciDGywWAoLy/v27cvUovH4yF8HanmBS9k91UjqeBIagHSgQh4V7tcrpkzZ/7rX/9iEbW1tXHKxBkhq/H2VGN6nvQfPXggEBC7l2g0isjs9/vffPPNuXPnkvjY4XCgWc6Wzmr0V6tXTkdSm5EjRy5dupQgVmjtvV6vjvTcKR0jF0QikREjRihPl8pudaYMHD/xxBP0O6+s6CVwnO2cCmsKFoMXYilBbjrBZZRus2bNItfyt99+qwwDRFgfUcZJIWm5ikilI9MnPYo3IqyFw2Gfz4cEFAqFJJ0SxqDvvffenDlz+vbtKz6rsl5KS0uJgwNYiOCmofQTeqYWiAyH+7i4AhgMhgMOOGD+/Pmff/45y7bXLqUkCvMxdWapkb05EongJhaPx8XJIhAIPPHEE5MmTRJz9Wzp3Bk+Z18kyhV+pIcddpi47Uiy7bTjzaFyJxyjPYjFYgcddBAnAn2v8sgq9sILL+DizdbXC72M5Lja1ZYV/zvgGE7l4psTlcfj4crLYrFUVFQce+yxjz76KM7NTDrhcsTSUdygsaxQW645sHVWPwkEAjL10geQDlNoUdoyiqVLl6JQtlqt/fv3l1BwhJjpPBwnXY06HA6Px1NYWEhYJTTLCxYsgIxkCZJrT2UhKyJ0Q2OhbWqBnY+wSn6/XwREVPnRaPQ///nPLbfcMnbsWFRhIDIHEdBWY9vLDY6ROTj5EUlD9oMJEyZ8+umniURi+/bt+ooLO+FY9tghQ4Zwj6kvHGMA/89//hN/Kk6FeTiG5/S9Cki7qMSWaPPmzQcffDCymIhvmTOrCHFwqggORHa32WxyCT5+/Pjrrrtu27ZtAnPBYDASiYhzB8G1WZYgSOoSlZq0g9KxUi4z6JUAMUsDOzOR4ODebdu23X///WPHjoUmuLrYbDZBZCGvBkwodc3KMhI3JqcihuMyAzTb7faioqJJkyY9+eST7CVKFJayjiTqokcxxXIwCgQCojJqaGgQtzev10vL11577ayzzsqWzplzOC1Fa6ycRG4OmBSn03nGGWds3ryZMJs6EucHOI5Go/vvvz/2fSjFsh2GWns2tBdffBFGF3bXcRi6PEqwo6ul4z3U7ljQlrs7h8MhEU4qKyvJFrrXXntdf/31WBMLLiQVdJmsbnhIUrflozDwe++9d8kllxx00EGApsfjkUwLXM0D1kajUaleF1WP2npRq5crRKfTyQodPHjwtGnT1q5dKx40YpKM9Z5saShk+bYbSKfLKzC9CIfDiHEMIRQK3XfffSNGjMDcRWgiZxShuVJ6UCNpVvUGgwFvnYKCApfLddZZZ2ERxJmJsCooG5iOHIjwg7IiEomIY4zucGyxWJ5++uk8HPeqq7yseFEaO53OoqIitm2LxdKvXz90alar9dxzz/3oo4+IqYitgkCYspADm/bIT5R9VpbJMCLRJP7973/PmTNHcIGooW63m0VEiDLCtqDSIbi+zWYTkmZYENOCgoICOb9WVVWVlpbefPPNiJA+nw+VoAC0yP4gxR509YdtMp6Z0J+TSktLy+rVq6dPn47FhUTIE/zF4BKFhsbpJEOyS7OCggIOMWTAOeCAA+68807UWXLuxyOUXTAHpt0Jx0iF7e3txJ5nMDoOA+H/4Ycf5kUiXOTQ3S79SbdJx3uu7ri8vLyqqgq+r66uBoidTufPf/7zxx57bNu2bcrF36WT1YMPF5ETvWFzc/O6deuWL19+zDHH9O/fXymdGY3G4uJioFPqWQ5yEJbV3mGBJ5AlVpmDrry83GAw7L333k8++SSp5uV0H4/HsdsjHVTOMNEj1BYLZVmYBJDCGqempubuu++urKzEoxqFu81mk12QU4iOOEbiGIJpcEDZd999P/jgAyBUTERE35ID0XbCMQ8Kh8M//vGPmXK5HOdjJ//Df4sXL+ZFyPY59LWrfyKznqSs6OTw5eestz3X7ri8vBxeFywoLCwcPXr0tdde+9lnn7HUGxsbmV+/39/V89VTz2ek7e3tbW1tcu+USCQ2bty4aNEitPNGo9HlcpFSRLKmisu4sERWBfCFAxa+jqK1IFizwWCYNGnSypUrSeMWCASUok97ezsH/56iW7bvBea4XJGNJBqNcnuZSCQaGhqee+65448/Htstl8tVWFgo/pNZ0TaTxmyraEUwOTcYDNOnT+caTG5owuEwCv1sxxuPx3fCMcNub28nk5hIx5l0MZM2cOH111/Pu0TVkkN3u/QneTjWnk232819nUSqvfjiiz/55BP4x+fzSfyEWCwmFktdOmU98vBAIIBCBn7mv9frRT+wYcOG2bNno0zn9IC7ncPhcLvdcjWnFoRBYwogvlL6A+gJ6SCRKisqKs4///wVK1bQMXSagUAA12p9LQG6lP50VVYlw4lGo2J9iGP9qlWrTj75ZOgmyWTF7Ed3yVKMHb7XEbEd/ulPf/r222+VQUWw0suBOLvhGGifMmUKWMyUd3h6yrABirPLLrsMgiLMd4NFQbbkkIlPko4zHGaGzXqPdJxhh6UZqjq8HqZMmbJs2TIWOQneRZeaGkqReZf/2c5LT7WXDicVxBKAOOstLS3COaIleO2118aMGWM2m/fZZx8uPDHKFsVFbrn4QHagx2g0IuigUzYYDG63GxW22+0eOnTonXfe+eabb4oXtQQp7Sl6ZvtegWNO1XxEGyZWyfX19X6//7PPPrv00ksl5yHq+xy088LqaQuc8omnwRQQjrWqquqZZ55RRhwkUFq24/1BOmaQs2bN4tJcdzg2GAzz5s2DrfNwvIfqjslpNmbMmNtvv10cOtra2rxeLwEoxFAJ6TgJxeRjDmzaIz+RDqcWCCogqoBoNNrS0gJMRyIRxLdQKPTwww+PHTtW4tkrz52iwUi78tNWiuBssVjsdjv2XiJuS4opQXyDwXDMMcc89thjpEGJxWI+n09fL7KunhfUx7LbKXNUf/fdd19//TVTAyj/8Y9/PPzww1HmQF7Zt9LSM9tKu93Owz0eD4Xi4mLoP23atI8//pjg+rBBbqfDH6TjRCJx9tlni2O+jipwwH3OnDnQDjjO2x3DZN1wShCtVuftjgkAxDy2tLQ0NTWheuLWnlDuvE6WUFos6+plrMvzU3tOjVI6ZrBig8UNu0hzoVCosbHxyCOPHDhwILIVWVkx/cwWDsQNISmMgdFo5LGgjyS+AinKysqmTZv2wgsviJisC3G64SFgMebqUF5ywQjXNe7K40Xm5UQi8ec//3nvvfdW0ieHbU9tXnCShMiSXstut6OS4vTf3t7O5pcbfXbCMSsnEomcf/75BQUFaLVyO0ylHQnKigkTJkBTcYLKrcdd9ytBkK5WVuyhdscGg2HWrFkgr/jRdd107HFPFv5JuoPi0MmyQqrSUdZJu+KoxGcBYblfv36XXnqpKPplpyGOnYj5gnc0IBjmnjIRuPA98cQTQ4cORaxEjSOWcEnGiBqkhsQgsgAAIABJREFUy+orxM2ysrIXXniBYKE5Ryj8AY6/11dcffXVGEWissiqTxqNgePDDjuMqx7SSPfCKwVZTl0Nx3uosiIPx9rAJPzTS+CYSyej0VhZWYm9wbhx42699daamhrSPAeDQREzRfUvSM0K7YXrVG0W0N7G4/G33377yCOPBJExhLDb7bg1cv9ByCcNyMrqK4PBgNp6/PjxX3zxBXd6uWVv+QGOI5HIQw89ROwSpP2s+qTRmP35Rz/60XfffQencsRTI2tP1ctyysNx2tnMw7E2Zwr/9BI4Li0tRRhHN8Ip22azHXnkkQ899BAqF6yyyFrNwd/v94vAJDKy9sB7ybdiOpJIJF555ZVJkyZhX4HSxmQyiTWLvndjBoNBjPGvuuoqv9+fc+DN3bpjnK+XL1+OE5HyzoFZ7Mx/4HjQoEGrVq1igsVls5dMJN2Q5ZQEx50Zu/K3YFzvsaxQ9i3Dcl5ZocGxwj8ZwnGGNO9Ms7KyMhKaJImKHo9n+vTpH374IVYxYhCiFI2Ri8PhsMaQe9VXJOZobGxsaGiIxWIrVqw49thjcRKBhi6XS5RFIHJnaCu/xZauvLzcaDQOHDjw6aefznkb2w3HsVjM7/evWbNG3qG8n5XK3Apo00tLS5cuXUpHcajvVXOJmkx2i3POOUd5IZDbwJN+lYfj3jbj+vanF8KxhMuAFU0mE2f2wsJC7qDmzp37zTff4OcmzC8WMjnDir6EzfBpaGy522hpaQkGg6+99tqkSZMQMQWL3W63aJOTVmhuH8vKyngFjz3llFMaGxtz28b+PzjeuHGj2O5JrrO059asKrlT/j4M1W233SZw3At1UrKckqTjrAbbYePeIx132NWkBnllhTYuCP9kKB0nkVf3jwR14tqwuLhY3NVkjZvN5sLCwpEjRy5cuHDz5s3ixdPe3i737b1wnarNgujBxRze6/W+/fbb++23H/oKDASdTqdo1XWhOW44JpMJE4vS0lJiWaj1U6N+Jxxjc9be3l5TUzNs2DDkeR0NRMiVZzAY5s+fj9kKhNPoVo98JcspD8dp2TQPx9psKfzTS+AYh4Xq6moJxedwOOx2u0S1R5dqsVj22Wef44477rXXXhNzciTNYDDYs3mztAme9C0ql6amptraWsQ+klc98MADY8aMwS4bxDQYDDo6iaAP4cDBnjdy5Mi1a9cmdS+TjzvhGEPgeDze0NBwzDHHoKbAHCLtssy2En8kg8Fw4YUXEvc2D8esWP5nMk+daaOj3XFed6wxEb0NjgFfOYDbbDa0nA6HA2FLQrkjgTkcjjPPPPPNN9/0+XxJkSI0Rt17vhJlBQWs9xD5b731VuyRsdHWVzomtBA0LCkpwZzuf/7nf3KgzE44xmqdDJJnnXUW86cjHOO+aTAY9ttvv+bmZt7YDe4P2ZJDllNXS8d5u+Nsp2aPaC/800npmJO1RNc1GAx4f4GhSdfsdrtdGbpeyhrrV6yeyV1PyHyJhTZ48OCbbrpp48aNktHV5/OJHoCoSciespCVA++Fyg1k5LvuuoscS5i+iU+N0WjEvxHcy1bWJK4TKWB4gs1mKy8vHzRo0EcffQShGhoaUEJgTajBzD/AMfE45s+fzxWWxnRm22OOBg6H43sHoc8//xwzmv9mOM7bHWtw5J77lRKViM+LoJOtGwjrRUBTxFsKJpPJ5XJJyGNpplyVgLKyRlmWnxAjn9D43BWVlpaiwRg7duwzzzxD+BGwOBwOYxsXj8cbGxtF0SwuiFyGRyKR3jaDGALX19dfeumlRUVFCLOy5yVF6cntzoxYImK2YbVa3W73vHnzYrFYfX09dOO/tj3yTjiGjZDt//a3vxGAQzl/nSyD7IWFhSaT6amnniKUSW+bMw3Lik4OP+nn+au8Xjj1unRJRzgWFWdxcTGB3CwWC1HPuTgSjHY6nUoGk3rBXOW3lOUrgWPJCIeFANYXZrN5xowZb7zxRiKRqK2tJRCHjBEjX/mIUEzAeF2IqeNDQLZIJFJbWztjxgwSgScdMgRJc7gz41HKDLPMQt++fV9//XWfz4c2mF1Ne7vaCce0CwaDsVgM02PR/StnN+cyGw7PvOyyy5izXnioEd5KUlbkPPCkH8pi6CXScVL3MvmY1x1rwITwT4bKCg2Ck5daGhBkHRh1Op1ut1uiuCmvpKR9hwVYESEawyeO22az2e12l5eXc6K3Wq2VlZWzZs0iWE99fb3SQlkCdEATpQZDg0rd/xXBOsg/+84772BoYTQahYbKTFodkk6tAQIy2nmC7TmdzmnTpkk+ciK6aOPeTjgmnBtRXNevX19WVqaU5NVen3k9ey8e9MceeyyRQbS71f1zpiEdZz5S7ZZ5OO6Rae22l+oIx3L1bzAY9tprr5tuuulXv/qVhFxwOBwlJSXi9atUTWhzIN/Ch0pE5gk4EIsoVllZiSFtdXV1VVXV/PnzGxsb4/F4W1ubSFRAMIHWgJFeuK4TiQRZt8Hl1157raSkRIZMQAhU8JlQL22bJJKSytbhcLhcrueeey6RSAQCAZ/PRwc0GHInHPMXiURCoVBDQ8O4cePQ7ivf0ckyc1xYWLjXXnsRqjmvO2b1dgMd8pYVGgtAx6+yhWO1NYWEZTabbTab0+k8/vjjiQy3ePHiadOmEW+BA7Jj1x9yWVKWe9FIqL0ltR5HNZPJVFJSIl5g++yzDzBts9l+9KMfkf8JzP1/yLHTFgDNMmoBHUmqy6PIG6J0dbnqqquU+Gu1Wl0uFzWpZOmwRhnpTcCaSTSZTEcffTTxtrjH61hZoVQfRyKR2bNny+bcYVcyaYAyGutjm80moZp1obWOD5HllKSsyGSMmbfJ6451nLJe9SjhnwyVFWo8g3ZYAizst99+W7duZTF/9NFHl19++ahRozAMcDqdFRUVtl1/ZOpUgrLa89XqCeIo6mOxPWADMJlMBQUF5eXl06dPX7ZsWVtbm9LiAmGOxJ29alLYKuLxOAIyInxdXd3pp59eWFjIrkM4C5S/OZgwpIVjcJmc06+99prohLVPD7uVFRIS/vufYVyRQ2pFtWnmOCBnq2uvvRbpvbdNmyynPBynncq8G4g2xwr/dBKOcd9ANVFUVLTPPvts2LAhkUggewYCgTfffPPXv/71XnvtxZq37/rDWgsVsFJ9kXYqpVKkubQFm80ml4oWi0X0GEOGDPnNb36zZcsWSY2IzpMk1tpU6v5vQRsMurhYa29v//bbbwcMGFBUVCThhIQCQpzMC/wWozeQU0IsFBYW/vKXv8S9A3MUDQr8oKxoaWkh5cnNN9+MLYhyUqWvORyCuG1gC7JYLEOGDIFATKFcCEjiWI3udulX7JzsTNOnT5fMN5nPinZLDn12u53YHbyOe1Q59ykLeg02r6zQi5K5PScHQzcu+kGKYcOGbdy4UZgThmltbf373/8+depUuY9yuVxFRUUiUyuvf8SCIjclJHd9qf+HDx++cOHCTZs2ySUVMiDxzNiT/H4/Bl5Kxk4q50bVzH+F0WHq/3vvvVcUFKATe4/2Ks78W4PBUFRUZLFY9t9///fff58Y+WIXmEQEpOadcCwmhC0tLfF4/IMPPiDBl45wzBEAE4sBAwasX7+erV76FI/HiSvUg1lCxCAmkUjMmjWLM0gOhxe1CZMVsmTJkkgkgt+NUCC1kDnDabfMw7E2fbr6W73gOBKJSDQG9KFvvPHGAw88MG7cuPLycgQmfKAxG3A6nXa7HSWG8kCtxp9q9alATA0Jon7yk5+sXLkSzSwKAYA4tOsPrm5vb8cVIpXJtQ/vukxNKhBTU1tbe8EFF+CkphRp1eiQbT1R9DBh+P3vf09OReURKokau3PlEUUfiRVDFpRTwLFoLURAzrZbOMOgsuAg9qc//Qn8lQ5xV9uDWCz9QQyZPXs2PCfDz3bUqe0569lstscff5yBS74coYOyoAsvktWNQXU+OVPe0C2HSdELjpWnSSWffP3117/97W850YqDmbhEy7Il+G8O4oXgQFKhoKAACcNms82cOVOc0DhfAsrKCPfKPivLOZBUl58kEolVq1YNHDiQe1FOJLm5gaQudqPRyHbFY/fff/+1a9dKRArl8KX8Q+pSn8/HmQJS/uxnP8NpkgO7QJJMbVYFiVnBwcpqtR577LGtra2hUKh9118oFCIeHT3ThdY5PISNi6vPOXPmoP3hhjSr8ao1lhlasmSJzEEoFMqhq1n9RE06VuunRn0ejrOiPI3V4FiDzmrKCtiGRMWi5mLlfvTRR9OnTwcf0XKIVAuMiqmGxnvTfpWEwvIRf4qBAweyrvfff/8FCxasXbuWMGHRaJQFLqyuJJ1UdoN0rHyvshwMBltaWhYsWMAat1gsffr0SUuB3CpRDTkcDqbjL3/5SyKRaG1tVfYhiQ67dcecg8Ajv9+/cOFCcZVOQmQYJdv+Sewo7m0rKytXr16NqW8oFBLHFXZUZXe7s8xtCSY75513HuI8pMx2vGrtuaR+5JFH4vE4rvR+v7+rx5iH466msPbz9YJjbCJZwJj6tre3Iz9JovsXX3xx5MiRnEEtFovT6fR4PIWFhU6nM2dOFvxNKsjlfFlZWUVFBdLG4MGDH3zwwY8++gjVXywWa2lpaW5ubm1t5aJPLDsFibSp13Xfogmor68nJrLZbCZysdriza1ehNEjjjiisbERn2S0JQxNSYedcCyeNpyd/X7/Z5995na7xVEnFZHTCudqlUAwpyQ6ZzQab7vtNtFqh8NhUSXnFrZZlzlDjd7e3h4MBlEqceJTG1e29ZgK2Wy2f/7zn2RhiMViuSUAz2q8anCcbf/zlhVZkV0aq8GxGv25LZerebnKE72TLBzEF8zLQqEQ8RBqamruuOOOI444QgkfKAxBZLX3ZltPbCPxGERVarFYqqqqTj311GeeeaampkZUpSgDYUXlvtIN0rHgXVJBVAJLly4tLi7G6E1HZYXQH2HU6XS+8soryHxqdNgJx3ijAxCS/u/QQw8V83LRorI95jBtskUYjUZCgv7sZz/bvn27qJl6CRxLyKUrrrgCc+kcLEnU6MOSqKysvOqqq9asWdPe3t7a2krkprS3DbKeO1nIw3EnCdjJn+sFxyBXJBJpb29XehOgU8bpi0uC5ubmL7/8csaMGWPGjMHdGWZ2Op05xGRQ42eRjs1ms8fjKSoqQpsMSvTr12/27Nmvv/46IOjz+eSuvpfAsd/vb2pqCofDtbW1Z511FifXgoICtfFmWw8Kk5CFjfCss85i7rBFSaXDbmUFjZR2KqeddhpwLDKyHFWy7RaIJi6ezOKAAQM+/vjj+vp6Zks4TMlnnVwGOfxcDn3XXXedyWSiz9mOV629x+PhmTab7eSTT66pqcGPPi0Wy5kuh1Ek/SQPx0kE6eaPesExyj3yTGIeytoRqVnwGlCOx+MvvfTS1KlTS0tLkYdQ8qrxZ7b1HJqV2kugx+12yxXfiBEj/vjHP3766adgiyCyUsDv6ulIEorlYzQaxagsFov961//GjBggL70EXEbMRl3x40bNyoROYkOP+iOpZcEcHr99dcl0B/ybFFREaTPdtrkJpAfihXkpZdeysYeiUQIYCTs1dUzlPb54tueSCSee+45/J3YS8RnlD0J45Vs6SCe7OxzQ4YMufLKK7mPljOd5F8QUsi5RqlvStt/tco8HKtRpnvqdYTjtB1W286RLXw+3/3333/EEUcoxWQ5R2MGJx+xkEvC2Wz5nKeJjYfFYpk2bdqzzz7L0XPr1q1AM5koetCYSpyn6+vrg8Hgn/70JxBPdAAulwt1JTZRudEBkQ6gr6iouO6668RdG+M/MWz7wbJCiAIu+Hy+tWvX9uvXDyTFXVJ8crLtlhocjxs37quvvpLO8WodpcK0vKtRKc4psVjsm2++6d+/PycD7kOwGMeQE4bLlg7wusfjEffTioqKsWPHPvjgg5s2bQoEAqLEj8fjgV1/YkLf3t7u9XpzSxieh2ONSe+Gr3oKjhOJxLZdf4lEYsuWLddff/3BBx8M7yEZiGDrcrlKSkrgZ3ibRCFYK2fL54WFhQQFpYCeZNCgQVdfffXq1atF6MHtq2fvilCWskDefffdsWPHYlEmcfKgg6gdsiIFuAcQizw3ZcqUlpaW9vZ2TBjk0MDJZrd0LFAo1jMNDQ1Tpkxhu3A6nWLvlZvdonIYIh1brdaHHnpI7hLZJWRj6IZ1kvQKgWNOgmeffTZSsMlkkiCzHPpyuxLhV5I5UPje4/FMnjz5vffeg1Pr6uqUJ5VIJNLS0sLxkwZJ3e7wYx6OOyRRlzboajhW6zxyKJdDnMrfe++98847r6ysrLy8XDKZOp1OymKSxS2iBMFQLt5MyjA2/127/kCPPn36zJs3D913KBRCqGfVqw2hS+vBYiQeUp9cf/31NpvNYrG43W4g2Gw22+12AmZmMnZlG67c2PPEBaxv376sdJIQpodjUTYp79YWLVokYTXkcWCKkuIdltWkY4PBcOaZZ3733XcotmWn6tI50Hg4WQOAwubm5jVr1mA5D3c6HA64ymw2ix68w7ErG7BPUkOwruLi4urqalzdnU4n1KAbcC2dCYVCfr9fdkqNIaT9Sg2OlX3LsJy3O05LYe1KNTjWoDlrmLWmtKzQflHSt0m7e11dHafjN95447jjjkPU2HvvvRHcbDYbZ3O5wNfonvZXyssr1g5RNSwWS1lZ2b333os6FGVFN1hWJJFFPmI+wIkTo7J33313v/32I5gBbjUknxa1rfbAU7+VfFriMvO99feNN94ICouuX4iwUzoWhzQxq0Clu2LFikGDBvEOAEhE7tQXa9SowbHNZhs8ePAjjzyitO7owd2SIwKThIh65pln4rFD1m7Cv2JfqTFeta9EpuaoKHfc0NZut7vd7j59+vzhD3+oqalBx9/Y2Lh9+3ZAua2tDVNl4acMC3k4zpBQXdSsp+BYfD7b2tpE64UtQWNj46OPPir5lcvLy0U7gaAgUpcU1Lg6bb3VaiWzMt8icKDtHD58+CeffELMSbTbXUT2Dh8LyrG4uF4Lh8OXXHIJfRZLX8RkUdWmHa9apYTrkRzeBoMBJzje6/P5EIXRCuyGY5G85MY2FAp9++23U6dO5U30hv9KgTyTsgYcGwyGU089tbm5WdilB3VJ9MHr9bI/BQKBdevWHXjggXCkxWLhck/gOJOxK9twDkLbo5w/i8XSv39/me+qqqpJkyb95S9/2bFjhxxWmLx4PJ7k1dMhzymv3fNO0pmQS/c2anCs5A1lWcPuOG3f4I3U/zh8Kuu5k5CajRs3Xn/99UQ0xmcPRaLT6QSDcruyVvI2i4U4kwaDAT+LU089lT7kwMxpKZBbpZj2SmcSicTrr79OqDxJmoFiICkJlnK+1MoSs4IrKDGcraioeOedd3hpW1sb8h8WZbt1xwLHWKKwdwUCgUWLFhHiGkjiHkDt9Wr1anDM2b9fv35PPvkkBu0965XHNoVOJxqNkvT6zjvvPOigg+AwLNXg0RzskZPCCJDfsOj/5VI0m82DBg1SXn9PmzYNh5FEIrFjxw4RdrJlPjXpWG2+1OrzbiDZUp72PQXHrCa0XtwMAwGkCxJ2Wr169bnnnut2u/v164cS2Wq1okfm1kSNH9TqKysrRTHNwpH7EnxGSkpK3n77bSKc9eBdkcRolktFFtqvfvUrzsQAMWORyz21UafWc+AQaw10IODGn/70J4S/eDxOAROGH+BYjuqgEpj9wgsvlJWVScxTTIZTX6xdowHHKGjmzJmDnqvDeKC5rYcMf5VIJNAGoNtibtrb2y+99FLijAiTMU/ao079VqQGTCwkH4HNZpPEwFarFdkERXN5efns2bM/+OADFhIhPjIcjjTLw7GQokcKPQXHIB2X+PBPNBqtra2Vk6jf72eZNzY2vvPOO6NGjaqoqAAvHA4HHJjKxh3WCJ/bbDbuwSwWi8fjcbvdSGAlJSVnnHEGStsetKQC6MAc6EC0hqeeeqqqqsrhcAB3IoR1OPCkBiJ+CTEFSM855xy5sQ8EArx9t6GbGo+Gw+H29vaJEydi/MGOkaQ+pgdiqZfUIe2PVqsVYdBisbz++utwiWhS8JwWm0rRdqv1tuvqfT7f9ddfj5W4x+OBTcnmgv4BXTD7p/BiakGbGqnf8gSz2XzQQQctWLCApFacYxoaGtg+fbv+cO9O0myIKJSH467jDeWTmRHILkbiBGuVuyCxLUudbqnJVlmh7ENnynV1dffcc8+oUaMsFosseZfLxVk7VaiSDmdYkAD2Fotl5MiRCBkcRjvT7Zx/y0zJf/GyaW1tPeGEE+QQzI1R0vAzGXLST8SiDPFr7dq13A8pNTa7dcdph0RkpsWLFxuNRjGCSVLt063c4BjzETQsM2fODIfDKLaTPFVAkx7cRQk+99prr3EfbTKZCgsLhQ4Wi4UraUJz4GqZisU5KDc8Ho+ErzUYDEOHDr3rrruUxGnb9cc0xWIxjIe4oMD3GlbLw3Fa9ta9ck+HY+TE1atXn3/++YMGDZLjuV5wLHuSwWAYMGDACy+8gIeh7hOR+QMFi5H20Fp8LxdeffXVBoOhtLRUwgLraOCL7Qo5KMS49gdlhVrv0SPX1dVVVVWZzWYk7bTScSZ7RWobparbbrcvW7YMOBZYUaJJD8IxUxUMBjdv3rx48eKRI0eKaZoYuhNDS/w7dIFjudxzuVwFBQUmk2nQoEEnnXTSc889x32juI2Qp5Z+QjRRzIHOnDnyV3lqrK5L/Z4Ox4JNzc3NL7300syZMwcOHEhCOfHTk1WcJPpJvUYBOEaOcTqdt99+OwdiXYif20NkyEo4jsViq1at6tu3b2lpqdyZ5TDepJ+IdMwzL7zwQgknxCLtWFmBfgd7L+VeIXCjpL5UZl6oqqqSxieccAL4gl0Om4GweA/CcVtbG4ID5Hvrrbfmzp0rGXbLysqUKCwYKuPqTMFsNrvd7sLCQs6MUPv71A/XXHPN+vXrW1tbZT+HsYgcTTkWiyEjq0nHOXQsb3esseyFV7lDg2M1lBUa9NfF7lijq2m/ampqItAP/FNTU3P55ZdLOMZUcNHov9pXGCBjjHzllVeieUvbme6pTAvH0Wg0EAjMnDlTjCvQV6gNSq0+lWL4MXDzdOihhzY3N4uC8QfLCo2RA8fErxDfh05CsLL3klSmsLDQaDQuXbo0EomgNQ6Hw8FgELEOHNToZ5d+JRHv6urqsJTcsWPHM888M3XqVLaTgoIC9iqDweDxeJT0UZaVA8+kbDQaCwsLJW4W9yFOp5P7z5EjRz788MMbN25saGgQKgUCAVQrSj7Lw3GXsoc8fE+HY3wTAoEAwSVCodDtt9+OuiytdJwJDyvbIB5iQmexWC666CL4VgjY/QXlMhHdMTL70qVL2TaII6ocSIZlNThmRZeUlHz44Ye8C9GzA+mYTZ78V4ceeijUTNKBKnumhJ5Myug9uGy1Wq0mk2n8+PGrV6/mnhHmEBbvhqwZatxAVI3m5ma4R/LNbNy48a677ho/fjyXe2JQnMnYM2nDLgrBy8vLKysrxRrU4XCwO44ePRqfy3Xr1glvsaVBOsRnep5XVqhNsS71wqsZSsdqPNBTV3mEKxDjoi1bttxwww1Fu5JvpoVjtf6r1XNIR/C3Wq1z5syJxWI96GegvIZRKisCgUA0Gt2+ffu+++5rMpmI4p+Ee2pjVNZrwDH+03fccQfHbgJVdwzHEt/nnnvuIROieKnx4s7AMeCCS6XBYHC5XCaT6cILL6ypqWHTSHKb0WXN5PAQv9+vlNMxyha97caNGy+//PK9994b+wrie3C3mfRfOVWZlMXSSDwskb6pdzqdiOQWi2X27Nkffvjh5s2bZScjJDnHLjXpOJM+KNvk7Y61mWdPh+O6ujq27dbWVo7FS5Ys0VBWKHkjk7Ly2sliscyYMUPcgLUJ23XfigSjhGNyrMRisblz54rrbCYDTGqjBsdYrZhMplNPPRU6YwPeARxL5DciNFdUVBCbWWlH0Rk4Ri7m7hKVq91u79Onz8cffyxGecAKxOq6WdF+srydQiAQQOMTj8e9Xi/6r1WrVs2YMaO4uBg5IgmIlRRLmjONj+LFp0wDDMHFtENU1fvss8+tt9764YcfAgpojePxOLejeelYe4p1+XZPh2Nu+bFWZiO/++67EQ91kY4Rv3iUxWI5+eSTZWXpQv8cHpIWjsWRdcmSJbK+MKDWWK2pX6nBMYK21WodNWoUeiEJfqBl6CZGGChPSaCHxRsnZTk7E986tUPaNSL/M+Vk+rPZbBMmTGhsbJRAFqTb6kHvHbVpFhGeSa2trX3ooYdOOukkyZyNH05JSYnT6WR0nNQYr5igKrc0ZVmNepKSMqlgMBgOPfTQv/zlL5s3b6ZLeGTJoWzDhg0//vGP5RVqz1erz0vHapygXd/VbiDab8/8W8EmNu9oNHrnnXfKIlXjiszrOVjzQIPBgLKixxE5lT7ik9zc3FxdXY3UKJGVUkE2cwooWxKzadmyZSAy+ooO4JgNn/8rV64cOnQoGuTi4mK80dEHidpB+b4OyzLTYgICZpWVlV111VWBQCAUCqETQMOSSrger2Hm2tragDy/379+/fq77rpr7NixOIYyl+Cm8n5WUkmieRCIVBbUCJiEwvJRspZNnDjx6aef5gSEIszr9UYika1bt44bN45XMINqr0hbn4fj3PgtD8ew0x4Exwh/wWDwhBNOAOI0rjTTLhaNShYgVhYPPfQQx2tyZmrBMZuk2Hh9HxL0iiuuoHNFRUXsEgCxaDk1OpH6VSoci2VJv379Xn31VTynRR+a22Loul9hyUQCc+lkIpFobm7esGHDb3/724qKCpfLJaYRTENRUVFJSYno0aCnEoWlnEoxatJqQuSE4XA4iouLDzzwwDlz5ixfvhyRJxgM+v3+zZs3H3jggTw/aZNXe5eyPg/HufFSHo7hoj0FjvFHul9wAAAgAElEQVSo5OLqlltuAeK6Ao4NBsMVV1yBzQJXmlpwzEpGyAKaly9fjr0t0eeEvmazWWl7K4DSYUGJL0h54JTZbJ4yZQrxs2traxFCc1sMXfcrMSyle83NzY2NjSh22MNWr1594oknEjIVF3js+SCL0+lMCsnUIblooAbHuAuWlZWxO2Kp8j//8z8fffQROQlra2v33ntvGCvDdyU1y9sd58BOanCcRFvlxx6xO1ZTVig71skyh0VG12uVFaFQCOkqFAqtWrUK9ze5yEmSY+QCLHPK8BMW6eTJk0Un3MFVHvsDGlIiDzU0NPz617+22+0EB1F2RVnOsGdKyUsJMeCXyWSaP3++3+8ni0kPGrqprUDsmTjXJKX7I/wQNoIvv/zy4YcfLnp2xFgIyBzL2DvUJkNYaZ9UUIrhtl1/tB8/fjzhOrds2TJs2DBeneEcJTXLw7EaM2jU5+FYuAiU6OVwLHmcfT5fU1PTiBEj8B9WcxaX0WVYUO61Bx54IKEO0KF3IB2Hw2ER3VHjrlixYu+990bPgKuYALESXjtTxrYGn/FHH31UAq1pcHyPfAUF5T5dbsyampqwX6Hnfr9/w4YNN9100+DBg5H9KyoqqqurmTyuRsUeQ4nI2dKQSeGKgHBxEqRp4MCBc+bMufbaa/fff3/ONA6HI4fn5+E4B05Tg2M1+jOP4oOQczaQbLuqJh2r9TPbejlM93I4hm6E5fo+zeA555yDGa4aHOdABwFuj8fz2WeftbS0cNTuAI6Vlr+EkmhpaZk7dy4eCgRSwGwg2z5ptEeM5yA/bty4N954Q+zysuWwLm2PDh4mJkaEz+fDJiQejzc2NgLKoVAIQ5a1a9deeumlAHFBQQERgshIppxpmSoNEqX9Sn4oBZRInLZMJlNFRYUkNBHFfdpHpa3M645zY6c8HMNOewocc+oV6Lvrrru0peO0i0WjMokO//jHPyR0mhYco0DBxhYZkFxbr7/++vchH4nMiySb21WesseCIHg6EG2E8JuTJ09ubm6ura3NbTF03a8EjoO7/kS4kMtPv98vDtbAdCAQWLZs2fTp0wmdbDQayX+uCxzLIUgSrSJhYZVIqDkUGojkSvpnUs7DcW68lIdjuCsJhnqt7pg4cyznWCz28ssvI7soF6mslyRVstRrFCSyHQrMRx55RDLSacGx4At20ThWg0Hnn38+dtECo1zE0TmppKDRs7RfsRdh/YYN7xlnnNHY2CiOcFLo2VgWaotTYjRHo1EhGnTjfzgcXrp0KTZnJpOJXcflcnELR7Jq0dhADYlPn4NUm6Rilo9pia9RmYdjtRmnXtRWe66TNEs+b3csklYsFtuwYcMBBxxAaiViOQi+EdlRY8mk/UoiKROf/g9/+AOJhxKJRKZwTOgDwMXv969Zs2bw4MGgu8PhwG1MXHekuznDMZmpyKptMBj69et32WWXJRKJbdu2oQHw+XxoAHowfHWHi1PiRUA3XEKbm5s5m2zatGnhwoWjR4+WJFqQix3I5XI5d/0lbXsulyvtHGtUCv4mFTR+kvarPBx3OOMiweyJ4eel83k4RjEAHbZt2zZhwgRCIOgLx7j8nX766TnCMeIeB/CbbrpJFAs8Vy84lsxaZrNZXCf69Onzf/7P/yEjRiwWw7sBBtJeJN3/rbC1vJrFWVNTw1eQEbfD999/f86cOSUlJS6X64ADDoCSyrwJDodDeVlqtVrTYmU3VObhWCY0bSEvHWsz4Z6irCC0m2SxCwaD5557LinTksIV5Cwdc/fGYh8zZozX6830Kk+8GMEU4tEEg8G6urp99tlHHIILCgrU4DhJWO7wo4SOI7QdZ3mz2VxZWfnUU09hNY22hTNF2rXRg5UCx2kL0WjU5/O1tbWx9xJG64033jjxxBNRKvXr1w9tL9sSHGCz2dxuN/PXIQGTGqgtkqRmmXzMW1Zo8FW2cKxBcLkGMBgMPW5ZodHPbL/aIwzdWJjIfCzhBQsW4KHGYhTzJ+A4WyKgh+TeyGAwVFdXNzU1YcOWkbJCEBleTCQSmDo8++yzBoOBdIfl5eV6wTGZPRmksmwwGIYMGfLII4/QH0wX/H6/xgrpka/SojCVuPBRxlSZYxGple6//34yn1dVVVksFtKhi/+ezWZDL5TD9Ov1kzwca3BUHo47ZLM9Ao5FyJM7+YcffphbcYE4pYjT4ahTG8h2i+3Tt99+i91apnCcBDHBYBA4nzx5MvFAldeOSa9Xdj2TMoca8ZuQMw7WCMOHD3/88ceJu4HBtsYK6ZGvkmglH5U3kN8nqG5ra5MbA7/fz7eNjY3XXnttv379xHmamz35mIOyImk65GMmc6Fsk1dWaLNTtnCspK2ynLc71qZzV3+LhBSPxzEqi0Qiy5cvJ/xvJ29fZJZF/Wi3251O56pVqzrOBiI4klTgl+3t7YFA4O233x44cCBGVLJ1yIKnIJ3IsMCvsAADizFtJh+dwWDYf//9H3vsMfz0kiT3rp6qTJ4v1zjiGCIEjMfjwWBQmQKHKRd7uGAw6PV6X3/99XPOOWf//ffHqdrhcCh90DMkozRLmg75KA0yLOThWHv283CszUgiVyEb9lpDN+YxFouBy6FQ6Msvv9xvv/0YHYgM1uVg5cbY8TZAa+FwOB5//HEgIhfpWEKFId9deumlBoOhT58+esExem6eBnZg1wxAs7GMGjXqhRde4DZMe5F0/7fRaFQNkUOhkEjEoVDI7/dzrcd/zhxMTHNz84MPPviLX/wCauD0bDKZJL+vNusrvxX8TSoo22RSzsOxNi/l4Vibi/YUOGYBckmG/OT1eo844ghOLdxsdRKOJZsP0d7//Oc/dwzHaswHpqDwDofDX3zxxcSJE0V0dbvdnKz5j3ynPU8Zfkvew4KCAm66Bg8efMcddxAdgsGIa7IsDEzN5GMvFKXViEx9c3PzkiVLhg8fDpJyX0oZrTo0EZVchpTMrZnBYJg6daowKwXZXcTYFiL3bNIdbap28ttIJKLkKFLERiIRFrDyK0hxxhlniJ8Uxkjkg1CbhbyyopMT1MmfJ4EJXiFHHnkk85IqdKrNo1o9amjxPbbb7VdffTWsoiUda4yKH7e2tkaj0XA4/MQTTwwYMMBqteL0JboFMnuqdSvbemCIAEMM6Zhjjrn55psTicS3335L0LK2tjZAGS+4PRqO29rafD6f3+//4osvbrjhBmLpGY1GnO6wIReBt7S0NFt6Ztu+urr6vPPOQ18vO188Hv+/7L13fFRV/v9/J5PpmZlUEpqAKE1FQDAWECtWUBFZbOiuorjiWlZ92NZV1FUWcC2ogMrqd1fFDmJFxUa1gRpcARWkhSQkmUxmMj3354/n4/N+3MckM8xMbtpu8gecuXPm3nPf531e533etb6+nqItknsFhk7CP536K4KPKNrNK+NXXltbS8Pj8XCCZIuaPHkyJbs46JDphbXd7BR0wXH7socWjomAU1X13HPPZV5QVohzRZJ5bHZy+SHJ7Ak4MBqNN9100/51x4mIwnDJjyOywIwZM6SYnghxPXr0yGC4iV6DNzEYDIRCcPY54IAD5syZgx1MiuxJ/aRODcdEzaNcDgQCK1asuOSSS7RJJwjYKy4ujkvUmYSALflKUZTzzz9/7969ZOGQNB1aAVl4A/ZKxEKd+jrviNAkpYzYkH7LCS41YkKhUHl5+ZYtW8aMGYODFH6KEkqQaC664Lh92QNZE1cHkTBmzJghdjwmTiShRPOY5DqODxJ5e/nll+8//XwiosRiMXEBCYfD1Lr/7rvvTj75ZDxnkQXACPHTktFn3EBHQYiheOCS5PfWW28lLXJtbS07hMfjkUrdsmdA6ETv1dGuC5ErKyuRtjZv3jx//vzjjjuOrEB5eXkYURVFIc1exrRN5YecdcaNG/f666/X19f7/X5ojo8NkiDWy2g02gEdEPWaX9lyaGCC9/l8Ml+Yauvq6v75z3+OHj26Z8+ekBdnIYkdSEJzJA/UfV1+x3pNXIr3EZQQNZSqqjNnzjSZTFSLF5xNMoPJvxLDGFM8adKk/RdnSjT6UCjEj6kzTWFTVVVfe+21IUOGsLc7nU6Xy0WxuOQjS/1bhs798fdCZQHun3POORS3x2kMsaVTS8eoX1nzkUikoaEBOXT79u2zZs3q378/pCgqKoLUqVMys57UGSHb9YQJE9asWYMkGNz3R9i6KDGEpxNxUee9LrALEKM1Zmr27NmDk8yKFSuOPfZYRVGKi4vRUSCpoOVnVSeZhS44bl/2EAEOZUVjY+PDDz+M17+c0ZvNz5NkTrVfyW8Rk0877TTwKhPdMf4fJLFHS7B9+3YSMjzwwAM8lTO1iAOyn7Sk0ez7aAtRjx079tNPPw2FQnglI6/h5yASTftOc1pPZ7cjhz3jDwQCchwpKyu79tprJW8y0NwS8u73t6L0tFgsRqOxV69eV1xxxfr164W2KFW1rJzW+3aWzhJOGQ6HRTUh6XE3btx47bXXdu/eXYJLiegRpT8yRJL54ivp1u7S8X4ZI8UOncWzQlzcOOqx6T7zzDMOh0OCIZhcgeYUKUA36MAhiajmMWPGIL5kAsf8kmBlDtEY9FRV/eWXXyZNmmS321EmIBekNdbknckbx5to48ezs7Pz8/PNZnPv3r0XLVqkqmplZWVnh2OyI7HP+Xy+YDAoyS4okhIKhT744IOJEycWFhZmUIo0OambfqtNPofjndFoHDBgwL/+9a8vvvgCnRWIjMats8BruuOU7Qf9OK9cWVm5bdu2efPmUTxCUZRevXoVFhaCrQUFBeIJI/kVm1KYK11wnO6M6N6fXRazDaXXXnrpJafTqYXj7OzslsAx2y2OCcOHD28RHJNNjYH+/PPPiAZc/Prrrw899FBisbE1JWK7dK+L/hsxmY0FsR9vXPi4uLj45ptv/i/wrJDtRHZpdC8S3Qco19TUPPPMM0cffXS69Ey3vwTE22w2Sv+JvDNhwoSlS5dWV1czQhmw7uukI9xQSuRIgPvWrVs//PDDUaNGoTUyGo24MYn3p2TCYj1jXElE/y44bvdZRucmEkY4HF62bJnL5RK9EyXWMnMwlVWDcGkymQYPHpw5HCciVjQaBZFffvnlgw46CNDElIfTRXZ2tt1uF05NxI4ZXMdGKcQqKCgYPnz48uXLKyoqADVRX0BickeIDUrknWYbid63va7jcYERH1VMKBSqr6+/6667DjvsMCabg5Xk6mQWqCXOlk43MRZrG4nor1UW0YdfYWLNycm55JJLPvzww99GQjYsES4CgUBdXZ3WAQOVnKg1IHt70TPJczkC7t69m92dsCNoHgwGceApKyu7+uqr4UAcmCT3N/RJRM9E17vgOMmMtMFX4XAYF3K0Umy6L774IpsoC0drx0o0j0mus5TkJkcccQTvlYmyIhFFkPCrq6tramoefvhht9vtcDiASJFeERzYW5IMN62vBN/l+GAymbp16+Z2u2fOnIk/ssfjoSAVK0pgF9JHIhHZCeUraSR63/a6zkYqLjiCzqqqvv/++xdffHFxcbHBYMjLyyMhEXOfu+9PaEUa5bTonASOuY/b7T7ssMOmT5/+0UcfQb1YLBba9wfyBgKB6upq4AzqoeYKhUId0DEuEolUV1eLB3FVVVVFRQXJnsS3fdasWWgk+vTpo8ViidrKII62C47ba2XxXJESOOQBazrCsdjxtHC8/wSb6RIF0xNCUGVl5U033UR9TLL3isebad9fBmyaCDtEKNYeErOysqxWq8ViOfnkk99++23QQfyRVVWtra0lzShfaWU3AWIa6dKhtftrRyVDxfWCjx988MHxxx8PehYWFspJxWQyoWKOS3ivxVmwoFlSa7vRAelPvFzo4HQ6zzjjjHvvvbeysnLv3r3ihwAuo2mVYTc2NhI6gWW5tUmX1v1lWbKXM2Zkpd27d8+dO7dv376KorjdbpIaokzTisbNknG/F7vgOK1p0r2zMCcHa7bel19+WS/pWLzcBBJHjBjRKnCMKAq0bdq06ZRTTuEQR3ljQWcZh3aFZ9yWu5FbjnA13pmKR8OGDbvlllu++OIL1lJDQ0NdXR1bH8lCkYB0n9dWuqGWXaTNdEoR6507dz799NN4giuKkpeXB2RgR3K73SImZ0Z2LRxzKDEajfZ9f+z5BoNhzJgxy5cvxxSJ7w2CvFjAGLO8QiuRK+PbMnJ4BlEDldfrr79+4oknUl1YPFuKi4sBYpGLBXYzoDAKJSjZ7p4VGYw/0U9E2aooSodNISTIoIXjV199VQpBiM+MbJyJ3rfZ62IDE+BqFThGV1hVVUVQf319/WeffXbIIYfAVVlZWVSelmIfzY41g4vMsVgqkZFRaLpcLoGh44477rnnnqusrMSRRYgu7goZr9s2/iH4JePnI4doBDpy86uqumHDhnvuuaekpIQDhM1mwxxB1SvBi7hGKlOghWOCtklSJbZmi8WSnZ2dm5t78cUXf/PNNyhhpQgNEX1+v1/0y1K9sY2JmeRxyBaS3VtV1U8//fSiiy6y2WwkTuGcZ7Va2duaysWpULLZPl1wnGReWvsrcWTkQRzvWgmOmeiRI0fyLD11x3gigw7Y9CKRyOLFiw855BB4TrKR4QYXhwIZf2SzEsUxzzKZTL1796adm5uLabtXr16XXXbZ2rVrscxoQ1o7bM291JkP2bOhoaG+vl5UBFVVVWvWrLnsssu0rodJ7HhJlEha4NDCcRzlwXqSU/OTQYMG3Xvvvdu2bRNBmEYwGBTZswPCMdIxZ9WffvrpjjvuGDJkiNPpzMvLYxWJYodjmZhDIY6QK13GFpmrg0jH6Y4/UX+4Tt6uw0rHojdDuEFieP7553VXVhAun5WVNWrUKP09K1RVJWpWzGUoAR599FFykknqdCqTJpq2dK9jGIwDBZQkDofD6XQSTgNzK4py4IEH/uUvf9myZQsO3n6/H1wmK2bTf1MHxLbsCaLJExE/a2pq2Nuj0ehv6nvsk4iib7311tixY4makfzUcr7WNhLRX/BFYAgAkuvZ2dk5OTmSmtlqtYr6wmg0HnHEEU899VQwGNy7d68MUqRjeZGO00A69nq9ixYtGjVqFK/pdDphY5PJ5HQ6JXDfYrFo/SiEJkKrRFRtel0AqwuO24UZQEYMziyrxsbGBQsW6AXHspcTOWE0GktLS/WHY5ZWTU0NumPxZGhoaJg+fXpubi7V6TGyZcCmTRmXK+J6gppCUrRolwR9LBaL5P8cOnToo48+KuVE0RM1xWL0m+3CFkkeqhUztVoLHMi0ThfV1dWRSIQZKS8vf+SRRwhkR5mAM0Dcv0noLCSlj8Cx1ogK4judThGQnU4n2pK8vLzjjz/+iy++2L17N+ULamtrSfrcMen87rvvnnvuubxIXl4eZRvZ6WV3J5WBHDiEJ+NolYiqTa93wXESzm+Dr1hcAseYoB9++GG94FgYAyVydnb20UcfrT8cc8c4dODjq6++mpOTk5ubixs83vJNGVHfK4L4iM9o+shhDygbjcaTTz75jTfeqKuri0QiVVVV5OUSP39xBkDABObiVEttwB8tfITWaSQcDq9du3b69OkFBQUCKKJ2l31bvGiFdciil9YE8VvZI+VxDofj2muv3bBhAzHfTRUXtfucXriOrkC7/Ug7XbLIg9gA+BgKhfbu3Uu7qqqKYM5gMLhhw4YpU6Ycdthh6IVFIYY5Oi06pNu5C47TnVl9+xPdxhEfZZrP55s5c2a685iov4S/GwwGrHnnnHOO/nAMWol7kCybYDD4wAMP4FyBlERa5ETD1eu6Fo6JgACRwQWLxVJSUkIi8EmTJq1YsYLYQsZPQjK04WC0vA6+tJSG0pcPWu9ukUjEv++Pt6ipqVm/fv2ZZ545cOBA4EaAOM4r0Wq1cjwXYqY+OwiM2dnZRFRLUHt+fr6iKP3793/yySdra2tJ/8bpREtqHOCE7E0b6ZJL69cYCoXQXCOVV1dXi+Fuy5Ytt95660EHHdSzZ0/Y1Wg0Sl33LjhOnQHiesIPstl0WN0xVnGtX00gELjxxhvjXqclH4EgxERFUS644AL94bjZILfGxsbt27eTvBm2xuk1icmoJe+p/a0giIg2VOcWXwtcAujWt2/fm266aePGjdAFsxgGSYQ4CV4QXEgXDtqrPwMOh8Mej4eKAZScaWhoePDBB4lfyNuXqxMfFfGBc7lcksg0JydHS9tU2pCdyEAOJeJxmZeXxzlpxIgRzz//fG1tLQcRSE1Qn8fjSSIaM01pkVQmLhwO86BIJKLdAKqqqhYuXFhaWsr+gXSfnZ3t3vcnKuNU3r0lfQSwWLTt7ujWknfR/razwDEhuxyCRcS86KKLtO/SkjZ2GmRkpvjqq6/WH46F3SUElsZnn32GwzyumnI0loNw6zWgGipOqMDpwOl05ubmghR5eXmAjtvtHjRo0Pz588kgKuKSvFcgECCQhGWcFha0Y2cJEEcChdvq6uokQ/Qtt9xSUFCQlZWFiVX0GKQiE3ROd5rI9MS5BDUZe3D37t1RhvTq1Qu73/jx41esWIFeKxqNSiCcqqo1NTVa0slcZADHWqUN92lsbPT5fDxu9erVo0ePxkebsglsITabDZMdvCT7U7rUSKs/h5UOAsdpjTx5507hd8zxF1GAgpaqqp5++unJXy31b0U0Fg/dv/zlL5zSdHZ0g8vD+/5oRyKRxx9/HFHIYDCIJZoxpf4OGfTU7mAgspie2BLkhG6xWAoLCyWke8SIEZ999hnjb9j3R05b8criIKOFiY7cbgpDvBpgh+Z006ZNf/zjH+XcUFhYSIpIartJkvsWzgI/J9Uk2UuysrIsFovb7f5tP5g5c+Ynn3wiybSgthSgE1ufDD5dmhMQT4ZSv98vWrWNGzfOmDGDd5S9B6WEvC+8ZDKZxD4pX7VGowuO051cHfvjTYEQI/WF2ap1mWtQWHJeGwyGxx57LPN8x4neHP4mWleQq76+furUqbyGthS0FivbuK0FF7PZLLExuAT07NkTs9Ull1zy7bffas1NCMUZw0EiurX2dQaMNRKdaSAQIFu89l0qKysXL1586aWXotknfg/lqaIoGSgrEvEupUz4VrtBKopy5JFHzp49u6ysjGR1cJG2KmhTQ3Hq1EMBhdJfVVW/379mzZpnnnlm4MCB3bt3FzbQairkFVC8gJKtza5dyorU57Q1ekqSWBxhQ6HQ7t27DznkEL3mXVSC0nj55Zf1l44JxguFQtR9Ipxpy5YtgwYNQuhANEZSFsWuXi+Z+n3QmRQUFDidTq2QzhGVczSQMWTIkH/84x9btmyRqIqampq9e/d6vd5OVHwI7z1B3rhGLBbzer1EwYTD4erq6kWLFh1zzDHQoW/fvljeMp4vQTS5A1dsNltubq6c/R0OB/42ZrN50qRJ7733HgIsTi8gMiwr4093Ke7Zs0eU0dXV1YsXLz7ttNO0w3Ps++MKwrvFYsHAILKMvEXq/JZuTx4h9vcu3XG6E93C/tRkwr+ChLFr1qwhLVe6U9lsfzBHgjntdvvHH3+sv+5YpGPx7d+5c+fnn39uMplQEfKvrMBmx9pKF7WrTkoZcVLmK0ZltVrdbjeCElWIFEUZP378vHnzJKhMBLQWznqb/ZyZ5tSPDzJmCtL3YEPDUBmJRBAeN2/e/MADDwwcOFCwKQOPAgx32glFxgTjZEZc+/5QMefn58Mkdrt96tSpn3/+OSdHbZqhjOEYHXEoFHrrrbfOP/98thli93Gc0O7NCA146YlSKysrSyJLte+lb7sLjttsaTT7IPHTF6PLkiVLMsiAmIgrgBdUowaDweVyffXVV/rDMTrKQCDAGRMl4F133aXV22rbiYbbXteJhhD3ZMv//WFbP//88z/99NNoNBoIBLS2pmAw6PV6ZQeSKQQ1BLszMD01yys6Xmw25iUWi/F2wWDwo48+mjZtWu/evZkRLHuym2oNxJAOhDUYDHyV7jyKZYOGw+EYNWrU73//+59//pkCdJgioUCcD7goIsR9TVAbysOT69evv/nmm3v16sUJKTc3F2cbraVR9olE45cOIinD1UIZ8fDDVkzFB7Fgi7dpkvt3KN1xonGme72zeFZQoxL3Hlhuzpw5zFqzEka6dMBmjsLAYrH0798f9m5sbNTTlAcci7soJ9/f/e53WgjWttN9jdbuL64XLFHx0OrWrRtqFuqMUP0EFwuPx8Ouo6qqZ9+fFgUAArmiI5LqcqtEcCw1UlVVraure/nll+MO9Yi3nN+1exhZhORcn+58UYLPZDJJ6iyz2dyjR4+BAwc++uij1dXVwWCwqqpKFEcCwZIyCVLL1hiJREjfEQqFfD7fnDlzRo8eTSR3UVERkJeTk8MryEoTtE00fukQB8eod9xuN3p20EekaSwTCODIR0nu3wXHunB4ZjeROC8ALRqN3njjjUyuMInMXQYOu3ACPGC1WocNG+bxePQ35SGAYDJCcfHtt9/2799fht7BG9qtAmgWAdDhcBQWFiK19e/f/29/+9tPP/0kpnkc4AR2EzUyY452+VVdXR0xiuwoGzdufOONN0aOHMkB32QyiYkP3QIIhS4CMgLKac048oLRaNQmvlAUpU+fPoqiDBky5K233sKnhfJUHEoaGxvx2/f5fF6vt76+ngSewWAQ4A4EAosXL54wYYJWCa5FfGaZYYteQqC26SskgmNyAMi3bFoGgwFnDIPBIETD/7/pnbnSpaxoF56Xh8q6Zl+vr69HHNEeoWTuMoNjVHMc0c444wxhWj2lYzEZiTfCW2+9lWS4wrgdqiGElgZnW1y+yFrgcrlGjx69ZMmSX375BU8Skcj27t0LHbRqCgBa5ruDN5A68cEIh8PiYbZ+/fpbb70VcARQ+Bclu8ViES8xrUdj6pMrygr8yciqwT3tdntOTk5RUdFll12Gos3v94sPuJbUGOtqa2s5tXz99ddTpkxxuVycb7R5n8lwhHOmF/EAACAASURBVAzbFItTHDZMot2BjEYj1j/K6R588MGDBg0CYcWILWa6RE/pUNJxokFmcJ0p5u06bFSeHLYCgUBjY+PWrVvh+URwnC4d0HsgHdvt9hkzZkg6Qz3hmGWMCxGS8mOPPZbuWDtmf5PJ5HK5cIDj2OJwOKxW6wUXXLBy5UpEtl9//ZXIEdwAtBjRARXHybeEOAE/EAhIZqi1a9dOnDjRZrPZ7Xb8T8BKspgK4sBtac2m1pImP0RxxEcWc58+fe68885NmzYxSAprIQgTbUgs5c6dO6+77rru3buLrC31Q6moK+gv+648NPWGFo6Li4v54QEHHIAz5bnnnvv999+fffbZkAWayHOTPKULjpPzZ6t+i1lCPCs++eQTCZFvVlmRZB6b/UpuAh/OnTsXrNBZdyyWFvGaoqRjs2NKchiU5dEujWZHqxX98vPzCwoKyO2gKEp+fv5VV121fv160MHj8VD5TY48HVY0jsNc+Yh7dUNDA86/ch39OBvt22+/Tb1wwSCj0ajN4pbB3MESSJraWRBPGKysiqIUFxcff/zxixcv/uGHHxjeb1kFxKC6e/fuOXPmoFoRRYHb7ZYQJLvdLjqWJGEdiV5BOzb6yJjz8/N5ymGHHfbaa6+hhbz66quBYyR92bGS3L9DwXGicaZ7vbOY8pCu8D6OxWLz58/PysrCxiBIKu+e5PQvfeIaWv4xm82vvPIKgqz+cAwic2DctWvXscceC2NpRyDtuFG2+0c5scaNmUMKKZBkLbGMzWYzSTtHjRp13333fffddxhkOeMLkKHfbNUtPYOby/DiGmKcREDAGtbY2Egtj1gshvdIfX39Qw89VFxc3KNHD1FToGHAuSLdCYUxJNMFW6DIktnZ2Xl5eVLrT1GUkpKSCy644OWXX965cyevsHPnztWrV0+YMOHggw9GeZ2Tk0N6T0Rvm80mvnRyyhGGjGskGr+2G33gHJfLZTAYDj300CeeeIJYR6Sea665hp/AM5KWKMn9u+A4A37W6ydSRiMcDv9mPWb6bDZbImVFonlMdB1mgM/dbve6devYAFoLjjk5lpWV9ezZU8u7ce1Ew22v6ywqtru4oQoFsWKRBw7dhYjJJpNp0qRJb7zxRiAQiMum1LngGH9kzMqC1HKCI6cEU9zQ0PDrr7/+/ve/Hz58uJzHpcZBuvMYl6haW09Aq7IQvw4mpVevXn/+85+//fbbLVu23HLLLVolCTslDp54F8m04k0hWC/XtY1E42/aB84pKSm54YYbyEKFuzS78uWXX47gj5gPHCfx46az6Je7wkD0wtkU7yPVMyiqedZZZyHX6wvHdrvd5XJ17979l19+aRU45nguy/idd96x2WxSASQRc6d+HQcRFoPkpkv957r3JJq26b+XXnrp0qVLJQUJiEbuC7xihS34Sj520kY0Gv3www+nTJnCOZ2wDkETLXjB1npNBPCNJ0bxvj9UELKtxjXSfa547MkrwHWi4+bApChKUVHRKaecsmHDhvLycgJqmG5WxEUXXUTEueAsjUTjkW48qAuOW2ldiKghph2M8AgckUgkEAhs377dbrcjfommQviBRpJ5lJ70gSElMYPJZDr99NPJ64vZUE9THt4FREg3NDQ8/PDD8FOi4aZ7nYS5BoNB0jNmlksh3ecm6i+0bto48sgjH3rooU2bNgUCgTgNbDQaxSUAAaq2traVuK3NbltZWUlenmXLlomHMlY+h8NRVFRktVqNRiPlPpMjUSJSN3tdBGFunpOTg4Qeh8LysdmbJLnItJrNZofDYbfb5XGoTYD+7Ozs0tLSp556KhqN1tbWolhHZServQuOIXJH0x3LBMlKAY5JNQWOvfDCC6Kf1AuOcc/nnD1t2jRRHOusrEAWEGfPK6+8kjdJwvFpfSX5y0k8hr4yA//WtB6apHNTFOaKmJ5KS0ufe+45gty8Xi+J+0QirqmpEX8AYYjO2BC2DofDGzdunD179rHHHmuz2SQ/HBWsIY7b7U5C0rS+0mozWOoZ2FWSPFHmEQu41hiInNG3b9977rlHouehA7MsuBwOh7vgGCJ3FjimwiT+CL/73e9kG9YLjlGREfP70EMPSYYfneEYdgRiwuHwuHHjJDdYIuRK9zr4jmDSrVs3jCfp3qQN+rvd7qKiIlIcnHbaaW+88QbrkwS7Pp9PlqsclDojEDNmNF+1tbXwsaqqy5cvnzFjhtls7t69e7du3SC4c9+fjsSXlPZiekWZkAhhM3i0w+Ho3r27FpcLCwvNZnNJSclFF120atUqTpoVFRVIxBJDjzkUu24iOE4yng5lyksyznS/Aol4u3b3OxYxQpYe0nFNTQ0n14qKCoozSLhpEsNSclLAkxzUwHez2dytW7ePP/4Yw7j+Gd3IfoQwWF9fP2zYsCReRMlH3+y3oJuiKMAxScH1fUSzz010MdGyZ3goVThBDx06dPr06e+//z6A5ff7d+7cyb5VV1cn3NBJG/j5AsrAUCQS2bNnz2uvvXbOOedIHAdk1HGHJr+P1gEDj45E85XudUn4R0AHQKwoytixYz/55BMMPtu3b8ebjTRguFKQrUmE5S44Fsp3Cjiur69nTpcvX070JrlNEknH8nZJGlo4FjXXMcccU1FRgVKBUFI9dcdY5EkJ9uuvvw4cOBAjciLYSve6ZATPycnp1auXmMXTvY9e/ZNQn/DH4uJiCT2wWCxHHnnkXXfdJa6y2rqonRSIGTaCYSAQIO4+FAqJOfenn3568MEHDz/8cO061JH+iMOixUo+I+k+l42/oKCA29pstnPPPfeRRx6pqqryeDxyFMD+zm4kAhcGvVgsFolEEsFxovF0mfLaZjnIZMnjkI5Jc/wbmt1xxx3MEcejRHCcZB6FIemDdAwqKopy1VVXBYNB4JiEvXrCsVgwIpHIqlWrDjjgAEVRqPeTaMRpXZcK6na7/YYbbpg2bdrIkSMdDkdaN9Gxs9C6acPpdLIHYmwktBqPq9LS0kWLFiFRxmIxNEfCEJ2xgWCIQBEOh+vq6oCqyspKrLtVVVX3338/NZkKCgp0nAKOvVSBEpVF0+ngSrrPdblciPY2m+2II464/fbb165dixTT2Ngo9ljEZK/XK5tQNBolFIiEpV1wDOU7i+5YVVWfz7d9+/YxY8bgzSVmqmaVFYn4SsuH9AGOZbtduHChVKgBB/SEYxH3vF7v4sWLsa3rCMdkjTCbzW63G+/Od955Z+zYsYnI0V7XSeJFMmWxA3BIz9n353K5JkyY8P7770sqv86IwjJmyenu8/kkhASNmMfjkZKDa9euvfzyy3WEY62fsrigyZlJuxgyg2Pw3eVy/e53v3v33Xd5NVL1I1jhVowgjA0AiYQ1Rp/GxsYuOGYldhY4jsVi1dXVq1atwuzBytU6HcexViKc0Xajj+iOybiA7UErpOsJxyJ1q6o6b948cRNONNx0r4vHSd++fX/55RcCEzwez6OPPjp27FjWIf+azWYJZSalluSiRRkEXeL+TXc86fZHuhchbsCAAbfddtvq1aspm0LO07ggCxG4ZM6aXpGvBB87SINYmGg0yphjsdivv/66YsWKE044IS8vz2AwOBwOXBTw60yXnun2F4WJBFuzYATBiejBWR7emDBhwpIlS3BGROBNYnqF/5kOOfaqqtoFx8xUR4NjMadLNu1AICCTOHXqVIQnojczcNDUwjE/JxJPURSr1Xr44YeL1wMGYZ09K7BjcFCdNWuW7nAsOQdGjBhRXl4O3zc0NASDwQ0bNlx33XW9e/cmX4zBYBALEooCohJwfU13GevVn9Weu+8PCHA4HAMHDrz99tu3bt2qquru3bup7owikuQ4CGXBYHDv3r3Mn+BvXKODoLAMQ4YXCoVQZUQikaqqqj179jzxxBPkOTMajYWFhdhj9aJzovuwPCicSlIYwvasViuueMIqbrf7sMMO+/e//71u3TrREVN1LMmBRlYyMrKUkuqCY2ako8ExB7hQKEQDqSgYDIZCoXXr1h1++OFgiCBpIr5KdD0RHGdnZ+fm5l588cWi32O96wzHgo/RaPSOO+4AjhONNYPrRBMoinLmmWeSP4HX4K1UVf3mm2/OOOMMoYLUozQajXa7XYQj6RDXyGBIaf1EHmez2URat1gsffr0OfLII5955hkOvx6Ph4WNIYj4LoE2eXG5Ig3BwQ7SEEGebETs1ow2GAzu3LnzgQceAAHJRJwWMTPoLC7qiORMh2iTjEYjNpYePXrIBim0xVdfcvU1S+EuOE4+KR0NjuFPKnwy0T6fj4tz584V849s0snfrum3st5pYOHAHuh0OqkeDUdhYmkVOOYB1157rQSGxg0r44+SDP7KK6/EnS4ajYqysrKykqzkS5YsOfLII9EJkCQX4UtOChkPoIU/lGBChHeLxeJ0OgsLC4kycDqdkydPLisrI0NpOByWnJbiREVq/2axoANeFJ0y8aZoVOF+6nT4fL7vvvvuyiuvzN/310Ly7vfnlDuTUyf92aRzc3NxmJs4ceLatWvJl4Q47PP5KI/CdpKEzunCcZIBw71sG+0eJJ1knOl+pRWJOojfsUgJUkTC6/WOHz+eKnaKomi9ztN9X21/gWODwdCzZ8+vv/6apHHEIqAE01N3LC8Wi8WmTp1qNBpF26sdVkvaMOjMmTM5tkvZTTnFV1dXh0KhrVu3zp49++ijjxYXv8LCQgTSJDk0WjKwVH7rdDpJTC5B6/zK5XJJEVW3233nnXfu3r2bM3JDQ0NVVRVhI+S7SKK7TIIU7fKVVrSkTZREeXk5u6mqqhRbeuGFF1IhoF59rFZrTk4OObqIeDYajccee+yyZcvQM0jtMlTA/IsSHD/OZunZBcf7naAOBccINziJU0qGc/bSpUvFsw0fSl1wTODYZrONGzcOiRh+q6ur0z8MROA4FAqdddZZ1JoTYaSpMJ/uFaRIRVEWLVoE65NFX6BZFMqIzGvXrr3xxhvxtxNGgb5xRjw+pjuedPvLGKAMxxYYtKCgQBsfMWrUqJdeemnHjh2CYqKQ2bt3b7NY0AEvMnhULsIbgllS9e7jjz8eP358GzgsksWNnKhiUFUU5cADD3zwwQcrKytZG013Ea7jVZ1kO5RXo3+X7jhugXQ0ZQXCKdPd0NDA9EUikRkzZhA3IBFnaLTiXme/H2W90xA4NhqNN954I3s8Y0BDor+yglVXW1t71FFHGQwGqdu436Gn0kFotHTpUogor7F7925AubGxsa6uDpsp6Lxx48bzzjsPUx6+dyg9mv6byhha0gcgkIzAMj3ioWy1WtFgcOWss86SN62pqUFelvgCreBGu6MhMvpWTjCidVVVtaKiAun4u+++mzJlSkFBgdPp1DfdRLPThKEcz0ucJktLS6dOnfr999+LtB4MBv1+P2PGqhPe96fVMCaicxccN0t2udgB4VikBMSdSCTy7bffDhs2DG9awiYQKDMQKxPBsdvtfvXVV6WWo+j09IdjJILdu3cPHjwYU57YT2RWMm4Idd5///3GxkZRHIvDivipcAzBVFpTU1NZWfniiy+OHj0a/QlSUtN/Mx5Yij9kRhGKqV2I7oXgb7yvxLLkdrstFovdbp84cSIJqoPBoCSAb4rFUD4RUrTLdSBYhE3EZDBr48aNd9999/Dhwy0WC6+fIg1b0o3ZR1OUn58/YcIE2e0YmxxBEIFl5DTo0+VZkfEUdEA45niNbUZV1e3bty9atEh8EBgwubYxPKT17onguLS0lOoE8BURYfCVnrpjkQ42bdo0ePBgMrxksKskemc0OEaj8dNPP5WTYBIYiltOZWVlN998M7oLsepkZ2fHKQq0x9jMqlokGn+i60IiYhnAZbPZjB5DUZSDDz74vvvuo+YFjhb4YFA11efzgSNi1aSKh9RDbG0s5sAFP+GcxwYJP1Bnj7FR8vnZZ58988wzYdacnBy3241HUSL6JLquZXeOGtorqOMlFz6uzfiQHnPMMU8//TTLoLWJ0xUGItPXAeG4uroan99oNOr3+6urqw866CCAi7RBcmiTRSqvs9+GBENL2ne0lPfff39lZSWhmyxVkEpn6ViEi40bN1IdRzT3+x16Kh2A4+zs7BThGBlZGyrm9Xq/+uqra6+9tqSkRFGUHj16iKKACkMCghaLJTc3F+tfKmNrSR+ZaXw/2I2ZOXQX5CEaOHDg7NmzPR6PnAa0+w1HHsLtA4GA9EmyXemFRLgVS3Aao6qvrw+Hw3IQw13k7bffvvjii/Ew4Two9E9iYk1C22aLeuTl5YkfIT6O4kB60kknzZs378svv6yoqMDTg7TfepGi2ft0+R0zgx0Njil4j9MxxrRZs2bZ7XY5p0qSCkS0JHzY7Fcc+0h0ZTKZsI706tVr2bJl2CHQtSJasU71lI4J549Go99++22/fv1AGcGaZkec1kUWlclk+vzzzyl3lMSuIlqhcDhcX18v0pnH4ykvL//ggw9OOeUUlNEHHXSQgAIqZpfLJUqD/Pz8tAaZQWchkcAxiCwOj3a7HXzp0aPHmWeeuXr16u3bt/t8PqrYAX+iRtfWhRIzWrMwoddFgf7GxkaPxyMJ3hhYdXW1z+fbtWvXHXfcUVJSIi+F6gnuh2XTJR3LO65mBxIAUR4IyzabraCgIC8v77777lu+fLmEYKHaboMzRBccM7MdDY4xGMAPwWBw27ZtQ4YMQVPBNt9COAZe5IyLrf60007jmEshPqy+BBjrLx2T1G39+vV9+vQRONYeIVvSRtNqsVhWrlyZChyLtI6imbFhECMU56WXXhowYAC4oA3NkCkRNmrJsFP5LQ/CwQMbIyF87Aqcu202GxQoKSmZMWPG119/zZaDv2Q4HMYAJSJzcN9f8h1LF0RG8pXQJk5/GMRItTN//nxS0cORvXv3Fl9OIpScTqdWR5QKxbR9tB7lRqORrSsrK6t3796cqE4++WRSYqJX8Xq9kkSxDeiTCI61rxDXhhpMd5ffsS5c2vQm4s6Pr9uDDz5otVoltbE4PrUEBBwOh8Ax57/Zs2fj4ubz+cT7oFXCQECHWCyGdCyK1zhWy/ijCD7keRBVdVNCc4UOoLAIy+LdQkLI2trae++9t1u3bgBfbm4ucRmKouTm5hItlvGAU/wh861FZHCZ3VUSOlutVtqcEg455JD/9//+3549e3bt2kWaHmy1wWAQ9uKw0gZwI/EdnP7YD6LR6M6dOz/66CPKNdlsth49eghBzGazpEttqvaVbskb4g1qs9nw6WYJkdibE8+oUaP+9a9/1dbWoqoTFk3FUyIRX6V7vQuOZR5Zwmw2HSEMhMCxaDT6/fffDxkyhFOa1gtWuzblLVJsZGVlEUgsqrPBgwdv2LCBogTaMALO7jpLxwJ5ZWVlBx10EM4D2vdpeRtPwLVr12pdRJMsD07rkX1/4XDY7/fX1dXV19fLgToUCvl8vs8+++yKK67Izc2FXYxGI6ddRNSWDzuzO8isS2oFrmRlZRUXF7N/lJaWrlixQlVVShhwABcPE4mFT0Kiln8lcrHX6/V4PI2NjXv37l21atX06dOLiooMBkNxcTEjt1gsaO1xIccPkq8yIJGYStioRAxBqDzooIPuu+++n376SXtcQE8nV+CillMg+R0SwXGiV5ZjZQeRjhONM93rHU1ZwaGZkNF77rkneSmZdF/WYDCIwlMY9corr+R0LmFrcI4YfvTUHYu4+sMPPwwYMIBDtyhGM3ifuJ+wbnNycr744gtwh3WVaDEEAgEJfZEVKBoMv99fVVWFxxjk+Pe//33SSSehqejXr59UFYobRpt9xCtAoml4/d69e9PIzc3t1auXbd/fxRdfvHLlyh07dsipR/S5lPxKRCJdrsPQfr8fBti0adNtt93Wt29fbZS8zWYT0T4nJ0egkwKO2LLTJSx0ANlhffxkzGbzH/7wh2+++YZJr6+v9/l8wpwNDQ319fVaxtCFCElu0gXHzGxHg2OgIBAIvP/++4cccoiwa7p8mKg/PIkmzWAw5OTkSJE2kWCQiyXpuZ5wLBAgcCxnk0QjTus6y8/pdKYIxwLBZAGXxPva8CpRcbJf7dix45FHHkGjL+s8rUG2sLNAjPAuV4gQ4ZRnt9tx15XODoejR48es2bN+vLLLwWDRDOVBCl0+Qr3Nby8n3322WHDhrGlYRE1mUyil8BtSIQFrZoig7zY7PQ2m83tdnMqLC4uPuKII5YvX04EUCwWE76PRqNxJQqDwaDYP3WhQ6KbdMExi0JYuoMoK4DC3+zM06ZNk1Uma4pGS5az3W43Go0wp9PpHDhwYGVlJSoElCR4GWBr0b84k8SZbNy4sX///ryPOO615MVkOtHClJWVgTWiHU60Epq93mwMBbeKxWKBQGD9+vU33ngjVXko4YFqkjfKzs4WD2iUleAC1tiWv+Z+79A0gEUePXTo0Llz56K48Pl8kv5N63Pm9/vr6+uFCJBIti4a4pLBR/rIdouTJl+htm5sbFyxYoWk07PZbGwYWjWctBO9oHYl0IefEEupKIrb7RYbIJhut9tx1TAYDKWlpU8++eTOnTubnfR2vNgFx8xme8ExpmYQQ8wbHOlUVX366ad79uwpCRgSMWcG1xVFKSwsJF/YbzB4zz33ELmWhBV1lo4RNzZt2jRw4ED2QKqvZ/AyTX/CacJgMHz11VccNpFzk7xes18JEsU1vF6vHGn9fv9nn3122WWXiShH0mh2PIDDvO9PHIRFE9p05PpeaRrezRWHw+FyufLz848++uinnnqKd6mpqamuroYXtZjLWUHrlSzfNjQ0CPKiFBKrAKnOECsCgQAq+HffffePf/xjz549s7KycnJy8vLyyEwt+BvXSESNRHCMwUDsITk5OQLK8FhBQcGMGTN+/PFHVVWrq6ubnfR2vNgFx8x4e8Gx3+9HLxGLxcANUaytWLECh1eUZqzxRPyZ7nWLxQKjms3mESNGEFubHLL0hGMxr23btu3www/nKKpj2gqcgo1G44oVK8ALQg/0WmngUSQSEaFyx44dL7744nHHHYcBCndgUEPsfjAZruNaR8V0Jy/1/nHoJh9FSFcUpVu3bhdeeOF7770nunLeq7Ky0uv1ioNBs3AsuBwOh9G/44dQU1MjsF5XV9fQ0LBly5aHHnpoyJAhbFpab98MijAlgmPA3Wg05ubmwt9U6UYVNmHChG+//Zb6ZhUVFW3gSZIuv3XBMbzdXnAs8W8SlERK8d8SqN5yyy2cdKXEsI6prOBb5NE77riDp0utxWa5SGc4RpgqLy8vLS0lIFW8kbSLrSVtk8n08ssvgzKSmKbZd0v3YiAQwPtEgo8Bpp9//vm+++4bNGgQgjCRe5L+QvQV7Bbil9aSd0z+20TALbYyOd2PGjVqzpw5sVistra2qqqKswvuFli3moXjYDBYX19fW1tLqBJEkN9WVVVVV1fHYrGlS5ceffTRcnowm81k7MYfIIkJN/nb8S3vyE7DKYTrRqNRpO/S0tLXXnuNyqG7du1inKjn0p36Vu2fCI6T0AGpv4N4ViQZZ7pfiTFJUZQ2c3TDqoGMhQmBPfvFF18EpijkxrtoI8LSfbu4/jik4ju7cuVKBpCc0/SH41AoVFtbe/zxx2PPkcUZN9YMPsKjZrOZRPp4ECcX/pO/fNy3sVjM6/WKzd3v91MPibidDRs2/P73vy8uLna73cwZMGGz2RwOhzi16L79pE4oyVXGmYvQamLBn3vuOdBKKjyJ+liIQAfQjdA+djvKXaMj5pS3Zs0ajnjoxZxOp9TNwl9bmyw09fFre2rhGInYaDT+Zq7kQcOHD587d255eXlNTQ1+1sQ4tY1pTiiWYqMLjmVm2wWOycmHcFpTU0Pe2rKysqOOOgrEzMvLo6Hd+GXMGTeAPovFMmXKFI/HI7rQJGyjJxyjrKTgOTliwKZE0ly614E8s9l85513tkRZIbjTbEMbskXRCrx6WervvffeiBEjFEURWyVGANFs6pjBLhF9kvCH2WwWNzJxNMTYddRRRy1duhQ1BVsOqnNhDqGGKNDJ/oOnpKqqlZWVZWVlN9xwQ2FhIZsQI8HFkmoaMjYhiFyRRirvRR+kY0VRCgoKSCpywAEH3Hbbbd999x2vEAgEZHhYqFHFyEt1hEYiOE5Chw4lHScaZ7rX20tZAVbAJ2L2mDZtGkIV7sbYpcQsnO6rNdufMC6TyfTSSy+xGeDnk4Qn9Ydj1IuTJ0+mRmSSQ2uz75DkIudii8Xyxz/+EXAEOJK8XrNfCe7ENRAYiZkRGRknOQ74HNJDodA///nP4cOH9+vXT0CH2ErU5UleoVW/EpnUsu8P7s/NzTWZTPn5+W63u3v37ldeeeX333/P6ySC47q6Op/PV1dXJ8riYDC4e/fuefPmIVDY7XZMAoCyHAgcDofb7ZaPgr9xjURE0HajD3BMgHVWVhYJoFlXzAsMwLaBpNylO26W51O5KMsBTWA0Gn388cd1XL/tBceqquJSJjn8HnnkEZfLlZOTY933hxhLOnJ93zcnJ+fMM8/89ddfwRNC85PMhZ5wjOTF/nPJJZeQTEvH1+OgarFYLrvsMpHvMlh+wnZxDbF6oQGXXDxerxdblmB0IBDYtm3b9ddfP3r0aDS2hCACKIngRq/rYruLa4heSPzeCC8UdTZi7IEHHnjXXXf98ssvieAYkjKPqqrW1tYuWLAA7YToZIhLJgwfKcDtdnMU5aGiU9aCbHL6aHtq4VhRlKOPPnr+/PkU7BA/TSzmkUhETOecY5Kwe7t81SUdM5vtBcehUAg/37q6umg0umbNmgEDBogFyGKxUKYLpNLxdEudvVdffRXxXGJlkzChnnDMLoTActddd7G6dPSsAG5sNtsRRxwhivkktcuSvLYuX0UikeXLl0+dOrV79+5ZWVk4V/DWDocjJyeHIydfabEmrq0XTCe6j8lkstvtot4lt86oUaPeeOONbdu2sSfBMaqqFNXObgAAIABJREFU1tXVkZiNK2vXrp0yZQrHukT3T3Q97jXlo4C4NvUPUJ6dne1wOEQJbrFY8vLynn766S+++ELM4iQRZZy6zKNeNxElDy5GmElVVe2CYzikteE4EomIwMQmDW8jWDA7ZWVlF1xwgcFgsNvtifg23euSphzDCXxuMplsNtvo0aM5zBF3t1/bhs5wLElvH3zwQdBTR79jRDOTydSvXz/08fp6VqS7LNkSYrHYO++8M3HiRCxOdrtdjLNOpxPTH1gjeBTXSHf60+2v3fZ5tNlsxkP5kksuWbFiBVuahA7Dvr/++uvtt9+Oh7zZbM7Ly8vguXFvykdRqkArNq2cnJxevXrRhpKKolx++eW7d+9GR0Si7vr6etk50p2v1u7fBcfJOaS14VgOu8FgkOLfVJuVM1Ntbe2tt97KYVFfOEY96P6/MCWHw2EymQ444IAFCxY0NjZKjWp4OAkf6gzHPElV1aeeeopVp2NUHtbPrKwsu91Oekk2wySv16pfMf2xWMzj8Xz//fdPPvnkCSecgLsb2ewYMFckUVxThErOxC3/licipFPKWjuGAw888Prrr1+9ejXEDAaDO3funDt37sCBA8HxgoICODjdkWifEtdGPHG5XCjfDQaDxWLBs5ie48aNW7VqVSwWw6MDUmsziLbqzGZ28y44Ts4hrQ3H4k0vPgzYSGBsj8cza9YsfEDFez35gFP8lgy9WVlZssZ5ykUXXUQhCPLGIEYkz6+tMxyjdlRVddmyZd27d2c9xy3FjD9mZ2dLrvElS5ZIqoTMFk/Lf6WqakNDg6Qzj0QiH3300T333NO9e3cKXuB5rT19Z/zuLfmhlDghbzLJ7ClPgNnNbDaPHTv273//+xtvvPH666+fcMIJZBbNyckRSV9SF7VkJPzWarU6nU5RQ1ssFnmKoihHHXXUs88+W1FR4ff7Oeh5vV6JIRQJSLKutHwe9bpDunCchJIdyrMiyTjT/apVHd1EU4FOACymWpiqqi+88AKI1K1bNwn6SHf8ifojejJrBQUF2dnZxcXFb731FmGiMK0Ui0jCb3rCsexOqqp+8803iFeJXiCD63i5ogP5+9//zikgA1NeEnKk9ZWEtzEGdIWxWGz16tXnnnsuzr+ST5Lo9Wb32wxI0ZKfICZjanO73XBPVlZWUVFR//79f6tyLxl/sNG5XC4R89N6brMvC8uyT5M4NCcnhznt3bv3zJkzf/nlF5KuiU+emFiJEvyvUVYkIWYXHKe1EuksWzXr0b/vj4tLly496qijjEZjQUGBeAQkoX9aXxFgzTkvOzsbUeamm27Cx4wqpaQgp/5IklfTE45ZJyye8vLyUaNGseoSLct0rxNXgoh38cUXI5y2IxzjgIFDmPghiIPhiy++iIeyyWTS93CUAd0gndjQ4Dbx0nM6nUVFRVoHNW1eCFLF6ziVPN1isXTr1g0g7t+//9VXX71y5cpt27Yh48C+4XCYUocInhQ/FNknCVu3y1fpSseJ5lHOlBCn3auBJBpnutdbW1mBZhb8lT1bVdVPP/30mGOOURQlPz9faoPpqDtm4ZBClnNez549yaDi9XrRX4vrgTYOtimX6gnHQBKEiEQiY8eOZQLSnbZE/cEUzJeHHXYY0WLtC8fMPXKclg9wkvN4PAsWLDj44IMVRcnLy4vzS5OPid5Xx+vZ2dkWi0WqKQOIrHZEYKDZbDaXlJSIGgE/B4vFQhK7dMcjLxjXKC4uFui32+3HHHPMs88+K5RkOycAh5SYtbW14laB04K+uUqarorMrnTBcXIOaQM4lrISklj1ww8/PPHEEyVkgTG43W4dXQw4yiAmWq1Wt9t99913w88MQ4zk5DBKwl16wjFrRoSXcePGiV0r+Tyl+K3EzxQWFrrdbqp7tCMcSz4dim7hmyzeNlwMhUJlZWXXX389wXJxwMTHFF8/425wXtz5S3hIvD4wpkmmES12Z/boZl9W69w2aNCg2bNnc5pDEBbmgZvj/qXOFga95KlYknB8633VBcfJ+aQN4BhDTjQaJeF1WVnZxIkTEeAQPgj9gMmTjzatb3Nzc1lQZrN5zJgxVVVVJMBBtgAYia5Kjld6wrGo0tkEZs6cSR3JtF4sSWdFUThrIMQ9//zzRATELVr52HoLL/mdUWI07PujZ0VFxYYNGyZNmoRBzGq1orHFUVwOUFrcTGJtSEKidvlKZG3CT0ToxuJM6gwiUOx2O0aPXr16TZ8+nTICKJ3aoGpJ8llL/VvZhuE0omk4FGr1lT6fDxP/5Zdfzp6HCp5M0EnS7XcpK5LPBWSX4sV8BPgkk5Tf71+7du35559PqgD8u5pKJGmtF5KFiasY0gbl9cTjuHv37osXLyadTvK3aPZbPeEYZYUY9J555hkiXtJ65ySdJUU0Wot77rlHkLfZRrMv3AYXZTAiLpHcMhKJvPXWW2effTZHJ6IzWKikRkUnII5lcdwjH5OQqF2+IvGKSNkIQRJyqihKSUlJjx496OB2u88+++x33nkHtcPu3btxn0guNbTBrKX+CJCXYHoK4FJ1DUSgggHX2ZjPO+88tPbMO9tVkpnqguPkcyH4y/qSepgcs9BXbN68+cQTT0SfK2lvZQXRSDIFzX7V9CzLFVGAKIoyffr0mpoaWDr5WzT7rZ5wjNQAU6qqumrVqoKCAovF0uy7ZXARaUtoOmnSJDGgCQJqG82+cBtclBM3WnwBZSbpl19+ufvuuw899FApfizuivn5+ZIbUxryvtLIgHSt+hMZGJHi6KlxVc7Nze3evTsAZLPZzj///IULF27bti1OwCRbcRtMjS6PgMcIDpS5JiKJIyodQqFQeXn5Tz/9NGLECKPRiGgiUEuj2XmRPtCty5QXN2tE/4qxjr0QgRS1wLp1604++WSHw4FFRC84ZrKE22UGOeMqijJo0CAOfLt3785MvNATjlFWCIPu2bNn0KBBqFS079CSNpU6kTIGDx68efNmHRNsxs16xh9Ra8I0nF5JAqmq6vbt2/fs2aOq6tatWy+++GIymKDJkvJ3yMhaU0NLKNYGvyW0xGKx4NEsM+5yuSRdxtChQ//+97//+OOPsIfH45EEFHV1ddidMyZ4G/9QOJwlJ7opEfPr6uoolfLPf/7zqKOOwq/GYrGADvhrJp8XaNhB4Dj5UNP6lhMSb5dxvmOkHLGfa7fASCSybt26Y445xmAwlJSUGAyG3NzcRHCc1si1neNw2Wg0MsV/+9vfVFXdu3evVCxLlzP1hGPkYvGviEajpNnUvkkL21lZWZKT1G63v/7664FAIN13bu3+WgmdtRoOh0WxHo1GxeCwZMmSSZMmSQYTnBzy8/PZb8QUJgDXQuq10s8lGwaWWyyucrFPnz633nrrN99809DQgJpV4CwQCHg8Hrne2vOi1/0lUJsyE8jFCGtSHfWDDz7AuUpyNkr5H6lYnGQ6uuA4yWTJ+opGo4FAQBJIBQKBjz/+eOTIkVarFfbLzc3Fq71Z3XES+if5iqyN2huyTidPnkzmBqnzkOQVEn2lJxzzDHAHD4+//OUvItI3ey5L66LcSvbYu+++uwNKx3HusShJKZXo9XrFBQeDZzQanT9//mmnnYbvlyCvy+USK4R27oUIaZGuVTsL75rNZnGSs9vtLpdrypQp7733Hq8ciUQEiFlRHo9H1E0dsMZdojUTDodjsRhYIOMXq/LGjRuvvfba7t27a+tkW61WJAkEXv5NNClMMXuboihdyoq4iYB5otGotqgjaW/x9BdRADVgIuk4Ef0TXWdeRCMnEcKKovTs2ZNSeOivEcLihp3KRz3hGPUNS46EW0uWLNERPgiSpioSB/wzzzyztrYWmavpv6m8f2v0obYTYrtgsWi4UGJwkohEItXV1Q0NDRs3bnzggQcOO+wwg8FAfh+8fXnlDg7HDofD6XQWFBTk5+fjPFBUVDRy5Mj58+eXlZVBAYEtglZF8RcKhbxeLzzTGnPRGvdER8GJhyNzQ0NDeXn5li1bZs2aNWDAAJC0R48eZGpWFAV/EhyNYN0k66ILjpPPGswjORJUVf3+++8XLFjQq1cvqcvjdDr79OlD4QK94Jj9VSq0mUwmFmZJScmsWbNQUVLEfb+pghK9oM5wHAqFIFZtbW04HP7uu++0OtBE206K12V3ImFSVlZWz549v/3226ZAzJVE79za19mWxKQZDodp4zYLfbRtdvtAILBy5corr7zyNzdyCaLrFHCMdAyzWiyWoUOH3n333V999ZUcKsGvUCgkNOGrOF+l1p4Xve7PQcfn83EQDIVCmzZteu+990455RQCZF0ulzgv4rAoOnRwGW17IrbvguPkMyV7eTgcjkQiv/zyy5133okgzOFMvICpn6sjHCMLkr8Nx/zfCtufddZZ2KKRKnbu3IkIkvwtmv1WTzhGAvL7/RidVVXdvHnzsGHDRJ41m83a7AeJ2DHJddG7oW8tKSmZOXOm7JYcimOx2H5jw5ulRXtdlFMFwvKyZcsmTpyIJMXxn0zK2dnZWmcyQJCoCg5QSeiW1lfCviAsH+XsjLuh3W7Hy5hgU5yLc3Jyzj///FWrVoG2rBZJgiro3F50TvRcGZg06CkuMbW1teQvlzBcr9crhrvly5dPnjw5NzcX9qYuDHITqqe0iC8/EYL/1ysrhOxJGhwuxXy3d+9enCjWrl07YcIEBFWr1UpDtGcwcLr01/aXW9Ewm82OfX+iD2F2ysvLpRhCKBRCAkvEb0mu6wnHEAgohLLBYPCaa64BLABl1jZeBNrXTqWtBSO2QYPBMGHCBJ6LqBIIBERBmeS1O9RXoVAouO8PbvN6vevWrfvXv/41aNAgyTKMthGeQLYS1Y2om1OhYep9eJb056P7/zK6cuLOyclhIiwWy0knnbR48WKslNR2iuz7k4BmWWwdiviywmV4yPKIFHv37hV+rq6urqiokDNyKBRauXLl9OnTyRJFqUCwWLufJVFKCG3jGv9r0rGW8to2xc7Rw6IKCIfDdXV1W7dupduiRYt+O4ohouFTGwfHeATHkTfjj3l5ednZ2Zx7cFv8zaF+4cKFPp9PMEe0xsJFaXG7nnAMjRBRAcdYLPbUU0/hJwB8sKqRkdOlC6IioCxKot69e//www+hUIjnoorN+LCQFu306gzdsOyJRKaq6po1a/70pz8RQCGnCqqrQEb+FQE5XXom6q+9ubaNNw9XcnJyZEinn376rFmzyJlCVkP05sjFnQ6OZVplXrQmx3A43NDQUFlZ+fzzz48ePZoFj6wEFmv1SyLqJiJ1s9e74BjKYx2VNBT4sfDV2rVrr7nmmt69e0taFfR7TU+QzVI4s4tGo7G4uFhmx+FwPPzwwzU1NbKjs4WLV6swUuoN/eEYlQX1mIPB4Mcff9yzZ8+srCybzSb+WyLQaVf7ftsk6cCg6XK5SJ5kNpsfe+wxylfj9McAOqbHRbMTI8wXDAbr6+uxF0vJ1LVr106cOBEPZVSQeFyICMaxQ05P+yVjKh045cmJG8QHf00mE9ptjP433XTTDz/8wCvU1NTgAE+RJ4BYUljJazZLhHa8KAMTiQbbA1uLGCFDoRDbzJtvvnnaaaehTEA7SYysnFe04VupULtpHxbI/7jfseAa2jxSuauq+tprr5177rkcy5xOp6Sjgv5x2BL3sSmpm17RgrU4myIFduvWzWAwYAA488wz/X4/p6Xwvr9gMIgTNEJVBiytMxxzPsV5AAG+srLyuOOOI9k55ePsdrv26N2UHEmuyA9NJpO0x40bBwqQD5fJk6WVAVHa+CdS01CLC7T9fj96jNdff/2oo44iLjE7O9tms7n2/Wl9lpPQLa2vKGWCJhToN5lM7AdOp5M9tXfv3lddddWKFSv8fj86YpHrcQKLo6H21eK+avePMjZGIpZh0tA0Njbu3bsX+8T7779/3nnnEXYo69xms7FRaZeudkmnRXw6d8FxY2NjfX19Y2NjQ0ODVIRZv379bbfdVlhY6HK5bDabIADZbER6yIDgcT9h+phQlkB2dnZBQYGiKH379s3Kyho9evT69evxzkRZrIvYoSccc9yGucVoHg6Hp0+fDr+yj4mVWcuyqbTFjidKZHbI/Px8Eu9LYQ60ye2+zlMcANu+SGRCQJHLKOhSXl4+b948gguEewgugC9ToWGKfcBfcbbTFuywWq2nn3764sWLRalaV1fn8XjEa6K2thbFkcBcXCNFsrRZNyE4TMtE8DoowWOxWFlZ2Z///Of+/ftLkmiTyVRQUKD1oEiRtvvtJsdhpvW/3pSXaKJFaxyJRHbt2vXCCy+cddZZcadAGFWLy7I0pLFfgsd1gP5ix8ZkjUDJPfv27btkyRJVVclYxClQy+TNSiSJXlN7XU84FrGURjQaRbJ79tlntfnJAGXZyuJokeRjdnY2i0EqDaOvMBgM06ZN09ZJAsi079mR20wkp55gMEiKzvr6epE3Benq6uq2bNly4YUXlpaWiiaXPCkkqUlCvdS/wkxntVqBY/ItkJnwqKOOmj179ubNm8nbIolyKEJTUVGBzUBVVXFF0LKpFvg64IyIXEzy+6qqqsbGxqqqqgULFowcOZKlyPlAUFhRlMLCQvzbUqdw8p7/a3AsZI9rYAcKhULffPPNlVdeiexVVFQkmePt+/6YlySInJzaTb9tCsdSJN5ms+Xn5z/yyCOY37FRyf4NLhPDHQqFMuBwPeGYaLQ426Kqqhs3bhw8eLDItuxvGaQW4tQghQIl36aiKAMGDNi5cydCGcJmBwyeTjQ94kcJCgh+AXmopVCFc4VShBMnTiwoKBB/OOGhpuyV7hW0oqSrZ9fEv+dPf/rT559/zvCk8BdZp+UV2InFuCHvom0kokO7X9euK+bitddeoxytoijdu3cHdkVZWVBQIJmeRGoGHdKlubZ/FxwzEeFweOvWrXPmzCGyJi8vr1u3bpBXDFGivuN6s/9qaZtKW5YS4f5gsdlsRmVMIsmGhgYEDiyNktJPRKjMlKU6w3GzK+o3sl566aWgsN1uR1J2OBypkCaVPhi17r//fnTWWGCSIEKzg+yAF+OEBfkI9lVXVy9YsGDs2LEiJqNw5JAlfInUgBVUfCFgOK2vC/W5wRQRNHCxdLlckydP/uCDD9gYmv7bAUnX7JBkqTQ0NIg6RTRC0WhUPJY8Hs8PP/xw4YUXAgSUPYS8hDtr1cTSToVXU+kjHsfIg6Wlpd99911my7tZOiS6KIcwcdtauHChYFMqI0/ehxg5bmi32y+55BK0cDIFpAjHg6K6uvruu+8+9dRTYW+pteFwOITgcY3kT2/6rawReUduKM5L1DvHK5c9+IYbbvj1119VVfX7/Qh8+roMtAUcx2KxBQsWYI7X2j2aEiizK6DMCSecsGnTJp/Ph5JEK47FtROxY2e5jvclxZW///7722+//dBDDxWNvMi2Sax8pFqGHY1Go91u1yJ1VlaWy+UqLCw0m80HHnjgI488glJe9oO4RmehWzAY5AgZxw8owaEqapYHH3zQ5XIdcMABLEIJWwcU4lBAPmbGvU1/xQ0xqBqNxuHDh2/fvr1d4HjBggUCVU3Hme4VRVEAAavV6nA4pk2bxkTI1sjHPXv2zJ0797DDDuvbty9cTbVJ0RoLweMaGYxHEJnfyg3JmYlbG4m9nE7nhRde+OmnnyLtSW6KvXv36sj/bQHHkUhk06ZNAwYMQAQTrUW65EvUn0NEbm7u448/jotV3HqL+6gj+Vr1VnHDlo9iseQEEAgE3n333auvvtrtdhcWFkINiGy327Oystz7YjecTmdOTo7dbpezNsCNB4Xdbi/Yl3TCarUiNffo0ePuu+9GcqmrqxPRUoYhjVYlgo43ZyHJu+CHw3tJOb7XX38diRi9BGBks9kcDoccGhLxoV7XOe3ZbDbQf/jw4ThU6UiKZm8lUyyqp/nz5+sLx1qd+5QpU0KhEHthJBLBLvLEE0+MHj3a4XAI+GLJ4KCgb1iHYLG8I3As24aiKL+tArqdfvrpGzduFPM12SAowNYsMTO72BZw3NDQEAwGp0yZItpeTHBacrSkzd0cDsfJJ59cX19P9Co5jIQogh1tIGXIQ1vY0I45rh0Oh71eL3YzylI0NDR89NFHp59+OidrSV4j6jbJgI6BTkypZrMZ1GYK3G53SUnJRRddhDdxZWUlaQPjBqD92MLXbLOfNzQ0iE9hY2Oj1+sFhTmbr1y5cvz48SSbFtTQOq4IiyaCXenQwgYoTNUfg8Fw6qmnthmJmFbgOBaLPfHEEy18l7if4xNFpZibbrqJx+3YsWPdunX33XffsGHDsrOzTSYTWEzQc1xkh9VqbQ36c0+BY3zaKGRjtVqHDx+O71YwGBSvLWqc64snbQHHuEYvWrTIYrEgu2lz08VNWMYfcTB49tln2eRxveJYDTcLgrQZc7fwQTLguIbwAdf9fn9DQwN+mjt27FiwYMGIESMMBgOOyQgUWEFFuWyxWJxO5yGHHAK1EauJZTjhhBOWLFlCrPnWrVshJjePG4Z8bOFrttnPWUhke6murpYz8ldffXXLLbf06dOHgn4E2orDtXhVAs3yMWNG3e8PDQYDEgaq/FtuuUVmoVVpBbJgisckO2/evP2ONvUOEqZBycSpU6euXr36lVdeufXWW4cMGQKjytlObKQYq7XKtNSfmHpPLRyjIcnLy0NtPXLkyPfee09V1fr6erwmPB6PiMn6ltBtCziOxWJ+v3/Lli0jRozQnpQT7XLpXtceLkpLSysrK9neO0uQbqI1JngX16ioqOCKz+cTf7Ldu3fjiB6JRP7zn//cddddJBhEyKJUB2dAbVy/0WjMz8+32WxWq/Xoo49euHAhLvcVFRVSakuSgSQaZ2e5DtG01UU3bNiwYMGCYcOG5eXlZWVlORwOgQNqv2sVFNrIo2bXebp8m6g/2nxSNXXr1u3NN9+En1ubzrhtyb+hUOjRRx+Vg3yi0aZ+XdJhIxYUFxcfc8wxHOO0ju0Oh4Nk30LkrKws3BuS74Wpj4Secn95R6RjfEYZ7eDBg5999lnhHKJ/EfKwaXc+OCaZZDAYvPnmm8VqLCRIl4hN+5tMJpYTSreFCxdS7KezpLBJd5mpqur1ekFMaosIdLIDxWKxurq6Tz755JprrhkwYIBW7wnf42WIkGI2m3v37n3bbbcRhEagNqnLKioqCAvk/umOs6P1r6urI90g9rrXX3/9rLPOkjVpNBpz9v2RPpFKhpyU4SvpmajRlDMzu4I2ifyNJ5544p49ezAStDY9xUUVYTwYDD788MM6rlOhGxohChSIuwUua7m5uaAhSbS17oPaSkByK20jXWo3/a0oKzA5HnLIIa+//jpZSlgC2kx+Ho9H96JibSEdSzqhxYsXY6ZE0EiXfIn6M2fiWjB27Njt27c3NDR0lgSPiZZZnAODfEQtrqoqSnm2bk5SnDd9Ph8L2OPxrFy58q9//eukSZMOOOAA+E9q8ZWWlp533nmPP/74tm3b8BGE57izKKa5Px9px/2baPwd7TrDbmxs/OSTT6ZMmcJBLS8vz2g0Op1OsWfgYYrbNRQT3VpWVpaolbWLmXYi/kz3OpyM0v/KK6+UYbc2PQWOxUT8j3/8Q184xj5pNpvJNUEuFLL/iFKYooKiWIN6uACTPL0p5TOjv/Y+8hRAX1GUwYMHP/XUUxAf1YQsAd++P6GSjvPSFnAciUTQb+7atev444+XAHMmQzRKUEdMTKkzsTYwhDKCWAnw0K6oqCApD7pCcXKMwxR9VfI6zlDLbxWNRmtqan788cdVq1Z98MEHH3300cqVK7/88stdu3bV1taKtymBDy1/nO53SJSKiAFHo1HywTc0NPAuUsKOKcaDgrX0ySefXHXVVYMGDRKlmdvtTp3TMuupXfZxbdKPSHpCg8Eg9itFUQ455JBPPvlEVVXK3epO2Lgboh6VnM5VVVXXXXcdx1lWZdzgM6NG2/9KO2yeLlJwfn4+2zD2QzKdGY3GQYMGCRZTy7Ft8KEt4FgMEbFYbNasWWyG0EVSIbMZZubIIk4wWPMURRkzZszq1atVVaVWiujdRdPaFIvbhtxxC6BtPvKygFQwGKTUG2tPHP55fXq2zahSf0qz9liyL4pLlnZCOUKqqlpbW1teXo5PUkVFxZw5c8aNGyextr1792YptjZAaOFA2xanFxxAUYySpTMvL++32OtHH31UzAOoWVInWgY9iW4QOPZ6vRdffPF/BxzLFAPE2GlxK7bZbP369QN/2KSHDh36yiuvwFFi78VangFV0/pJW8CxGNZUVS0rK+vVqxdzjKO7LtIxXC5w7Ha7r7jiCqrMSqieqqpSTF67eqWdFuE6UWfyYHC20r6stCX0nisd7dW042y2TZYP0hviPlFbW1tRUYGwXFFRsXDhwsmTJyPikY9NYJFCPrJcW6Mhz2q2gUSWk5ND4C+aN4vFcuutt5KnkHw0+kZ/NTvFAsScIEOh0NixY0GuTi0dy5xqsRiHDUy1mLvRYpeWli5btozFIr6kEKRZoul7sS3gmEOl3+9n2Vx66aVokBPBcbNcm/yixLCjALFarT169Hj33XdVVcUPQXQUkgcPOmqXt76U7Th34x21GTAkDypfSeE+uLDjjLzpHMXNF0J9aN+ffIVjJeDy8ccfX3755TjzsyxJRCWOU9JIzmCt9K1z3x83x/uQCMDx48cTjMvxrm1MqZICDMVOQ0PDgQceaLFYsGTK+bWVSNEGt4UBAGUcaURDzTnphBNOoCA0OeQgPtbytjk9twUcM82xWAyuev/99yltoi8cizaQ3GOKopx33nn/+c9/WKVUssJIlUgX2dFgSK/xIPyKn4nAFgIXH0Uh0DZsl9aryYDjGmJawQaFNkZMmj/88MPtt99+0EEHYYyyWCxY7Vj2drtdNLatDQQincU1iDfDv4VUGIzk6quv3rJli1iK8HiJC2tKi4ApdhZTHs4txq8FAAAgAElEQVRbu3btcrvdVqv1vwaOZaKZCHaa3Nxc9FeTJk366quvGhsb/X5/bW0t9BdtWGYZ2lKkvHRrCzim0D0hqtFo1O/3H3/88Rx/dNEdSzylBDKxAq1W6/XXXw8Ei14MIRGBHUlZFrkQ5b+sgbSInwkvHolEqK6IWl8oQKOjvb4MTwbG5iHXRRve2NhYV1f3008/PfHEE2PGjCFTvt1ul6z5RqPR7XaLEwVW5TiUbLOP4kXrcrlAhEMPPfT6668vKytjB8XUEQqFCOyW12+lBmITSZ+j0ejatWtJZpIIjtuMUC18kKBwnJeIOFHYbLbLL7+cCtAej8fv91dXV8NdtbW1CJH/PbpjcWWlvI2qqgsXLiwsLEwkHadLfYFjHDbFHqgoSp8+fVasWIGLhVjeRU78H4FjgS1pkA9QPmobrbTUW35bIFi2EyQ4dnoRk6urq9euXStefSaTKTc3F/0gHgsgi4QVsFDT5bd0+8vpOK7Ro0cPsUJ369ZtwoQJb775JnNBWpLy8nLU322TQohSbyIVLl68mLC0zg7HQnb04KSTz87OlkpLf/3rX3lrDiIIcLW1taRrp95N25wa20I6Ri7GpIbwX1VVVVpaqhccx1U1djgceHHjzz969GjxQWYMnd0fOQNo07pVwHkCwdpUrRlXMchgSKn/BCBmbGylBESxQsLhMPLj559/Pm3aNG2hA8mjD+rJbo2UpI24Sxdh0+ovcBDXYDNwuVxjxox58skn0VRK8k+AOBKJcD0YDKZOsYx7kjSSZTJv3jxSN3R2OCaiz2Qymf/vD2RQFKW0tPSVV17BV9Lj8VBmSbwpJFcXVzKmauo/bFM4Fo3B3r17n3rqKQJvWCriEB53oEiF7+Uwoq2nQtUW6obceeednMoRo0SYEjcvNBipU62rZ2tQgB1Cq0ghRQA5ofBso6hzJBLBefG3UE+/3//TTz/Nnj1bchOnwjOt0Qc+RAunzTpN8iYC/IgukTDoQw899N5776UIN1rLtjkUNzt9LAfOH6qq/uEPfyBQu7PAsdAfIuOyhanW5XJ169ZNIsWQ+qdMmfLBBx/AdTU1Nex/baMjbpb+jY2NbQTH4tggS+vLL7889thjhYKAMkyc7lJpFo65ocPhsNvtvXr1evnll2UzwMdDPA2YhrY5jCSahq7rIqRrK4+hxwSnhIWkLo7P52toaHj77bfHjBkDD7jd7gyqzKTLb4n6Cx8KV5MqBDHcbDajoFMUJScnx+VyXXvttR9++CGCQkVFBZlz25EPGQlx9pFIZPz48XhAdRY4JqajqQdIUVERdv6srKy+ffsyHddcc83GjRs9Hg/cJZGucZ5Xbbww2wiORSAV+T8UCs2dOxcykcIGZ+QMar7JMgDNEbQJz1MUhcS1hx9++FdffUU2ZPy62BVDoRDySDsugzae8g77OLHIMTVSSFSA2O/3C//4/f6vv/6arK2KouTl5aGhyuB0lQheM7iOMTkulpfSVnCp2Wx2u93jxo178cUXMWtTMEFOBu1bVIwjSDQa3b1796GHHopTYGeBY8EBIXVcBYZ+/fqR/vv5559HCCO7Wcc5Jbc1HNfX10uewx9//HHSpEnswJjj0O/EkTWtj4LIWVlZePhLRe7x48dLLjTRkaGLxEe1w+LU/87AQCU8rlDxozLGukIddVVVP/300+uuu87pdNpsNqfTSVI6gFjSxqfFNrp0RpLAkixeEzQMBgMyWlFR0dy5c/1+v8/ni8ViNfv+UI5L2sb2mm5QiYGtWbNGm1ai2TAQXYim702o/YZHDeIdsnDPnj379u1LvO6WLVu8Xi9+t16vV/K0yKmrvejfpsoKtqNoNIphjX142bJl2DdINUvy6RbOkAg1kizKYrFQauiGG25gGBTcFJupuPi040x0PRpUwq4CFmN1rKurkzWzadOm+++/f8SIEezcbrdb/M2LiopEQG4hC2X2c7ENsjFkZ2fb7fb8/HxGlZ2dffPNN/MihNvhWQXvUTVZjgXtwgycQhjhc889Rx2DJEHSmVGp9X5F7iGpdCf5QHCq+a0+zt/+9rdIJLJ3716v1wuDQXBMwaKvaBfi89C2kI5xoBGHaq0DclVV1THHHIO6nbxZHPQEUlNpJJpgBBPRh1CD/fHHH9dqThhV+yqM2nH6O9SjURxRFFLLLayZ3bt3L168+JxzzhG/xpKSEqZelF1k0E+FZ1qjD4PJzs7OyckRAQ112RVXXLFx48ZYLLZr1y7MJ3JG9Pl8YsondWp7TQo059+bb745KyuLLGudRVkh2yEp+jDjMykjR45cuXJlfX291LhDOYl/NymwUZ23F/F5blvAMe8pFjMRRQOBQENDw3PPPXfggQdCNWTkdJcKv236LwUFOHORtyg7O7tfv36vvPIKiCwyFxrJ9p2JrqeHQiG/319fXy/K4kgkQumTZcuWTZo0iazWOTk52jgOShkRJY/3Qrr8o1d//OqcTmdeXh47xIEHHnjiiScuWbLk559/9ng8Ysem7CxZnLT5rejQjpyAqBSLxcaNG0fQGv4JzSor9KKbXvchV7LVapWKkRaLpX///rfddlt1dXUkEoGvfD5fdXU1WYxJJ69VkbVBqqYk89sWcCxHMFGZS8Pj8YTD4ZNOOglHCKPRyFkjrRlqCsRyRTSJRUVFHB6zs7PHjBnz2WefxWIxkVDYM5OQqeurNqBALBYjDZDs3HV1dTt27LjpppuGDh3KhirVOgoLC5uNck6Lc/TtLGoT2O/www+fO3cuqSeQSDBRCPOLNCBu1KBhG5A60SOi0Wh9fb3X6z344INJZtSJ4BifCpvNhnbIarVOnjz5zTffpII4grDs9BBfGwgm2cMTEacNrrcFHCd6DbSEjY2Na9asgYNBT7PZbLPZwGVOTDB6uotHjOzkrsYbnFtNnDiRdSI53sjKGIvFODIHg0EBhUTj77qenAIidEhD+nOlvr6+rq4OOosrsaqqOBfX19cvXLhw8ODBBFM1/TddfsisvzCP1l+C8ts4HiA5AgEkZissLJw2bRq1X7GMiTZMSNGOnjzaMTAMsZdSmuvtt9/WFjzLjG4t/xW59yTHk9Y6qvVmIyUpAOJ0OhHshg4d+tRTT1VUVEQiEWwSTf8Vbuw4jfaEY45pKHSuu+46AjdwU6MyDSSWar7pTrAWjkmOASLn5+dnZWUdd9xxW7duVVUVFqypqSHiVkRmYpPq6+s7zmx1rpHELXsBoEgkoj25Uwkb+bG8vJwgtHXr1o0fPx6kawrEXEmXH9LtD/vxK9r8S2Id2jk5OYWFhUAAiDx69OgVK1agkePUBRDI3AlZ5ErbN2QMWjhubGxEW/Lggw/+ZviSNZgu3fTqj48KwyCUBv2JzAuWf/BBQjzcbveNN9747bffBgIBUv01BeK4GWl7+id6YnvCMQcH/t2yZcvRRx9NXQ+z2SzGUCAVM3q609wUjpk/OfBOmDBhw4YNOCOjTda6JBMelohwXdf3SwHtmhcslpQIfEvSH7ZATvH/+c9/Jk6cyJJjjcXFFsvHdPkh3f7wj1RmYkggr33fn1zBvbK0tHTRokXsK16vl32FM7JIx9oI9f0SsPU6aKdGcgYhedTV1Z166qmYIrGapks3vfoDxxBcIFhkZIPBIIIzWvusrKypU6d++eWX6HyqqqrAltYjo+53bk84VlWVzElkv3z66acJyiT5od1ul5kguwVTkta/cAYLGJGKexYXF5PcYPLkyZs3b8bxSJtYJxQKeb1eztG6E/1/5IZxa17COrgeiUSqqqqkPovf76+srLzrrrt69uyZnZ0tBlgyTwoEaxtpcUIGnTmoiQgmqWeoIoEbJVw0YMCAOXPmIFoGAoHy8nKyVlHxIE4WE7K0IxvIGLTSMYq71atXFxYW4qVgtVplDWZAwBb+BLW19iYojqSeqdVqte37KykpoYQHGkjqv/CO27Zta0c6p/vodoZjXBpIaldTU3PWWWcZDIb/S/Tx//8vzitabZF2hpK0tbt03DI2m81ZWVlY6s844wwyORF0Ky5WEq2bLk27+kMBWfN8lDMjmx/f4vJZVla2ZMmSfv36YRPX2ugodqmdPmknmXpdvkIuJg2jY9+fiGMHH3xwv379cJ284YYbvv76a95Ra2+oq6tD6u8scMxifPjhh5FAiWppRzgWQRgjvMPhwKRE5gMUF3a7/dhjj12wYEFlZaUQPxaL+Xw+CeDsROuxPeEYaSIUChEboqrq8uXL+/XrJxzAZsisoEbUImzGbax5JpOpZ8+e2OtvuOGG3youAxDRaNTn84lvcpfuOGNuhp5xWMyaCQaDlZWV7HyrV6++8MILWXICo2Ta5WPGE93CH8rTMdmJqEieM0VRJk+ezNGYN5U4Am1ef7/f31ngGMePCy64ABlI9p4WkjHjn0N/o9HocDhcLpe4cuPAqijK4Ycf/thjj2l3d6/XK5USMcszNc3+mzFjt94P2xOO8X4HjjF9/JbE9q677pKUH6iEREjJeF7jfoiZoqioiOzjWGAuueSSDRs2SGZkj8cDcLRvhqfWm/i2vLPIxWQLq6mpQUe/atWqq6++unv37oLCbre7pKTE6XQyZeBC3PS12UcC0sxms8gHZrMZw8PZZ5/96quv7tixQ0JXWPB4T3KuEsepTgTHX3zxxcEHH4zOENW5GGDajOzyIJQVWJJkhwCLTz755BdeeGHHjh0SuoJ/njgUMh2hUEi0YU0RuS2XQIrPak84lorlaJAh3ObNm4cMGVJUVIQ4zJRklulN5rWpoqOwsJAYUKqoAdDnnnvu0qVLmTbxVUyRjl3dklAAPAKLo9FoIBD48ccfZ82aNWTIECDP6XSaTCbRUWAqEB8b7Ty2cdtut7tcLnEottvtPXr0mDVr1vr163kp/KioqyArn3LdMBJl4TuFKS8QCDzzzDMsFlJQtq8pDw828S+0WCwDBw487bTTli5dunnzZsrZxPkRRyIRv98PzZvib9yVJBzbXl+1JxyLDzY2NDL7xWKxDz74AAsJhnVkEwKuRGUh8lQGu3cixylFUU499dS33noLF/HAvj+mkMS7tDFJaV0F2mvyOshzRSSBSkwrYktjY6M28ImcbY888shpp52GDspqtebn52OcEaVwXEN3CJb7wwkcwtBL/n/tfXd0VNX2//ReMyEhhRASAggiKAihiKgoFp6VZ0dFEVGfou/pUr+A4vLxsOFSsSCCAoqIoICF6gKkitjRp4iUAEImZUqm1/vzl896m+MdJmQmk2RmcueP5Nw7d+49d+9zPmefXdlxxfpOKRQKvV5/++2379q1K03InnQ34MEJrpFSDnFr5513HiXpx+tjb5oQC3hJlFi/YKy+hLAstSESYbKLxWJ6OryPS0tLb7vttjVr1tDyRlsuaiRNkPT5YTrCcX19/YMPPmg0GvPy8jBpi4uLiccYGSwjExorbMo3mpZodOnSRSQSdenSZeHChUBem81GaYZQUBb6biQYSx8utm9PIpGIs/FD0gcqdCCag04GAoE1a9ZcddVVXbt2RZSzUqnU6XSQPXm8YA8T5e8pr6ebA45JKalQKKCzRvUmyvYrEomGDRu2bNkymObal9opeTpFYAGU4Xq/efPmnj17YoLg3YGep6Qn7wKEbiHfBYu/rK8U+RQrlUqLxUL7V3hKYHZrNJr8/Pzzzz//hRdeOHDgAE1Jwl9eIyWUad+bpCMc+/1+p9N53XXXiUQibGBlMplWq8UsAu9bAse80UOHCoUCM9NisTzwwANwmvH5fOS0REGuqHXUvpxLn6fThrGhoaG6uppWLMwfl8vlcDiqqqqefPLJ4uJi2viLxWKkigcrDQYDMaK1Gzw4xjAjAxFKvhNGDxgwYOHChWyWn/ShfHI9Ab+wZIJH+/bt4zjuoYceMhgMtBTRliVRdgCCyRII5EUeIvAaLsPsBXK5XK/XQyKWSCRdunQZMmTI5MmTV61aBfk9HA7X1NRknB9xogxKRziGh8oXX3yBlF15eXnwKIoHxyw0t6QtFouNRqNer8f8HDt27Oeff47xGolEKDk6pUhOlNZZfD0ssUi/AopB4AoGgy6Xa+HChSUlJYjxgU8x+S+CXxKJBPm3TjrzW8JT9rfszTGWIB1rtVrqj0ql0ul02JP16tVr2rRpkMsikUhNTQ2s9pnOR4AaPIiQxqi2tvbgwYNDhw6FfwtgkQpBsDRMqA0bAEJh4Z0CTQhCZFEqRafTEfFzcnJGjBgxZcqUtWvXImIW21CXy+Xz+RCW1TY1A9uLxekIxxzHIbr0rbfewpYnJyeHlAyYVAkNi2ZeDMFNoVDk5+ejPWLEiLlz50JfATGZpCRUMm4vtqXVc6GLJPsJNsIcx1mt1rVr144aNQoJEODKAhUhOAI5VKPR0F61mZxK7rJ4cExiWl5eHtxsiouLr7vuuu3bt6OE2vHjx6nSe3V1dVoRP4nOkGc9dC9YOOfMmdOpUyexWKzT6QDHSK9IWNl8mhM3UQZFq9VScDPgnnZIcDMtKCgYOXLkE0888fnnn1utVorbRJQzFYsit+IkXjlTfpKmcGyz2VDL7t577xWJRLDzxpOO2WnWnHYTAwvCEYagXC43Go0Wi2Xq1Kk//vgjhD6koGv3zFtpNbxIO4E4Gq4xB9D27dsnTpxYUlKiVqvhxwJQxl6H4o8ply7N4VjuNIenCV0Tq6yAa5dMJjMajaNHj164cGF1dbXH4yFLVzQara2thdoqrYifRGcwsxC9jQKSoVBo7NixYAGyI4ELcPJLiLYAcfwceg8yBrIugzKZrG/fvpMmTXr11Vc///zz3377zev1hkKhhoYGp9OJBQOWYUqAh0nHag4xJelvEqRIt5+kIxxDWfFnyGw0Gq2qqrryyitJNE6JZ0XshMcZrVYrl8tR7oyEAkzRiRMnbtmypba2tqGhIbu3S0kMUHK8d7vdoVDIarXOnDkTsIvMv/ApzM3NhaEM5hqSSaFbpKTysdxJFA5OeT0PjlFI1Gg0nn766dOnT4fNAJM8Go36fL6GhgYUVERptSRIlG4/gVyMbQ3HcStWrCgrKyP/QvKzJn3FKUnKu4DHRJRtNRgMgwYNeuCBBxYtWrR169a9e/fW1tbCiwl2coqjwSgicTgYDPKS9BMEs410I3IS/UlHOIaWFi6EHMdt3ry5rKxMqVSmSjrmDR06BGoQLqjVauzaYNXp3r37iy++CC0KJIskyJ2VP6F6lx6P55133unbty82oSQU63Q6Al8ykdGMZY08dJJtEINS1eDBsVgszsnJufXWW7/99lsowe12eygUQlEo7J2RGh+SWqYzkUqqcxyHPEfjx4+HV4lOpyMlL5bJJBxJyWGcYL1z584DBw7cs2dPVVWVy+WCRwS0EOSkBDs5AmIp4ScPbUkPxp6ndqbzpY1q5SVKJuxKQGVk5l66dGnXrl2lUilkLvggi0QiSuZCszdWjm75HEbwHsbWiBEj1qxZg+FCIgYMfTQsANZk+sMhLfXsZWgnSp9Er499YvPPIH4dhhQAUzQabWhogIICLm6ITFu9evXo0aNhHEPoWssp3/QdiOm8BqkmlUolLa60HkA9CvWXSCQqKCgYN27cRx99xFrts2O5pdFF7IaaAvYPuLiFw+G1a9di4QTvaK1qmvhNfAt2wBwqlUrhobFkyRI2mx31jQ2QSXRgZ9/17Skdx6Mm1kkwDFqk2tra2bNnw58cZj29Xg/PJKr3QXMSA4XUGk2Mm2Z+hYGlVCpNJpNEIjEYDJMmTfr+++/JmofQLOow0hTgEBUumsDiNggnQU8S+kuefPhVNBr1eDwolUQ1LBD+xHHc999/P2HCBMw67CfgtdpM8iZ9GXGc15DL5SaTiQAXHh1arba0tBRITVLbyJEjly1bRiUIMPCAGqg1Hm+IZsR54h3hIGmN6+rqEEMYjUbHjRuHBLapgmNKh0submedddb333+P2HGQjoa9AMfsWEpTOCb8okpiVqv1gQceQLhOcXExysQ2Yf9JYpMVDxdo0w3BAVjTt2/fuXPnbt26FZrTUCgEERLjzOfzwTsHUyIQCFD221hYZPnRGu3YJzZ9pr6+nkxYKCmGTTq5eWEXHwgEvv7661mzZhUXF0OVxIJgEkW24tE/3nkeCtMh6f0lEoler2cL6xkMBri19enT57HHHtu1axf4hZXG6XRCRiawaA12tNk9wWU8Dm3AMRS10IZv2LChpKQES2mq4JhSXhBHHnroIafTGQgEENnMQjDbbjPKpO2DMgCOKWS5vr5+7NixIpEoLy8PYk5paSmxvFUbcrlcp9MhvyoS3OBxF1100eLFi48fPw4G8wJPYSohv6K0HQS8jtHUpUUR2mHk6YehtaGh4fXXXx80aBAkTb1eT9sUWMZalR2nvDmyYtJlcJLB4m0yme68886ffvoJr+l2u6EQY0VI8JFHlow7jAfHtBuoqam58cYboS8GFkOPz9tZEhmb34BqCK4UEonkww8/RM2XkyJyxhG29TqcjnAMczamBMdxSD0Dee3HH38cPHgwRa9qNBpEbTR/oCR9JRvRK5fLLRYLxC65XH7hhRe+8847VqsVhiBMg2AwyHpKZdDml9QR9AoYfwBij8fzyiuvDBo0yGAwYNbl5eWxXIAlJ2k6N/+HTUjNRqMxNzcX+KvRaKBB1mg0t91228aNG2FNstls5DWFFwT7fD5fdsOxz+fDdmfDhg3l5eUgOFLOpwqOIW7D7/i000779ddfoQgS4LhpKE9HOOaFFeAwGAxiI7ljx46BAwdSTD1iqGhmspOZTrawAW017qxSqTQaDcRkxJKRtvSss856+eWXjxw5QqEi2POSsb5pTqTPt3A/okxJWF08Ho/NZps5c2ZFRQXqAyAWFkIx1qdOnTphHkJp2EKyJ/1zMuUhAAExln369HnjjTf27t2LQEHyZq2pqfH5fHa7va6uzu12Q0ZGTqv04UhyPYknHYdCIRS7ueGGG+Dogs1EqpQVbDImGFqgpz4pFgvKCpa5aQrHcK6ARIyKotjyg6/r1q2rrKy0WCwwsiEJ50kX9qSnNPtDkUik0+ksFguEQaSYYhVkUqkU5cQLCgq6d+/+xBNPbNq0iTpMAV28jCd0yPKjNdr0oGY2MI3/TOQE4TEUCm3atOnxxx8vLi7u2rUrcp/ClU2tVoMaGo0GICiVSqFBZgnYSm3yAeA1SFTXaDQSiSQnJ+fBBx88dOgQfKog4yNWhTym8cr0NxgM1tbWtgYv2vKe8eAY0TpLliwBoSDDYnGlScTTVyTEQdo1ikSi0tLS1atXw4gnmPJOyf10hGPaLJM6j5SYTqcTMZ0rV67s0aMHUICC4oHLNDkTGkNNXEw+UsjESCWj8DjYkUkqh76sR48e48aNe/vttxFTEIlEDh48GA8NT8mkFl4Q77nxzv/xxx+YyX/88ceCBQtuvvlmbGlZpzFKNUB2M1RtIKeFNjDlEaNjG8g8ZTKZxo8fv2fPHrwORQ8GAgHS8vv9fugusJuGgYsFshYSvx1/zr4F2jDlRSKRQ4cOjRgxAkFPUOno9fpUScfYL+bm5ioUiuHDh4PscENCN+gvdmDtSKJ0e3Q6wnE8GsHkQmA9f/58VC6AvgLVzICYJB8RSjaBtkl/RSiAcUylLfFQiURiMpnOPvvsRx99dNu2bZD0UQUDjnFIxE7CGpyX2Q0dac/J0E/j+KSNePBK51nCom4F7hMIBNxut9/vp23sZ599dt999w0bNqyoqAirUdJUavkPsQcCZwnu0SsE4CJygbZK0E5ceumlK1euxGgBwdnX7whtMsBSjWCO41DK6OGHH7ZYLCCmSqWCU2CinKLJhQZc/hHUCp2V2Wx+9dVXw+FwfX19RyB4y98xk+AY2OH3+61WK3R/ixYtKisrE4lEnTp1wtgqKipC6vq2lM7IKg1EhnKZQESn0/Xo0WPIkCFTpkxZsWIFpHtsnPFGSFUVaPzAEwjbgkThmMVoKttMNTgQ0YS0ioFAAIp4GOvwIKfT+dlnn02bNm3o0KFdunRBjnDsXpH/MNHpmqrrSTtPfqw0/6EyIgUowk/69+//xhtvQCijxTsYDLZ8tmTWHaDlo5EWiUSw71m3bt3w4cMR3IQdj1wubyKjXjw+xoNjsVgM2Wjw4MG///477XEzi3rt0tsMg2Ofz4cIBaCJ1+t96623SktLsWWmZFRQhMUbRqk9DxmZRWTK98puBsVicVlZWUlJSf/+/e+8884PP/ywqqrK4XDU1tYiCQYLpmQDpJOs7BxvoECyJkmQfstW0qSToVDIbrdjbVu5cuWfXerbt2+nTp1ycnJYpYRarQZtW6JMbCHB2Wkvl8tVKhVEYyTnhSxcXl6u0WgKCgruuuuu6upql8vl9/vdbjfBMe0w4lEv+85jlQ0GgzBjwHzndrv//ve/Y/toMBggxpIXf0KcYvkCN39yqtFoNDqd7tFHH6XxhkGYfURO7RtlGBzbbDaMrWAwiMQCHMe9+uqr/fr1I18LRGGRJgENdpzxhlHSh3TPWESGmIx89uR9iQep1Woou8vLy2+99daXXnrpk08++fLLL6uqqpxOp6fxA9kfDkkwgMAATYM70QaCA30+n9vtPnbs2DfffLN+/frHH3/8qquuQkyNRqOxWCyQQ9FDJDEAHIvFYnJXSJpcLfmhVqs1Go2sEh93UygUBQUF2BiNGTPmq6++Av7a7Xbyrq2rq8OOJLUzJ/3vhkECbRiF9rzwwgtmsxkjE/QkU15LGMSDY5lM1rVr1x07diCMq6GhQfCgaM6AySQ4pkUemZ9oLxYKhdauXXvuueciFSdcr2DMYa0TQM8WjrnYn+O2LCKrVCoycLHXYxrgDNVcwGFhYeGoUaMmTpw4ffr0efPmbdy4Ea6aBLvIksGqL+grarhcLiS+8vl8qJ6JLC0HDhzYtm3bggULnnrqqbvvvnv06NEoQ4V5iLKh1E9AGw4p6FvJr00AACAASURBVBEufXRNGzfgV0edQTln6CWwfnTr1m3x4sWgA7bkFFwHoRgmrObMhyy7Bk4U8O3jOO6LL77o0aMHiidRmmkqgtNCtpLuGDnKJ06cGIlEkHIra4patfbwyCQ4JrMM+SfZ7XbSTK1fv/68887DkIK3A1WihQKU4Jik2hY2aPiyiEwqY3wrlUqVSiX8lKlvyDDJAh+MUQTiFouloqLi7LPPHjly5NVXXz1x4sSpU6e++OKLixYt+vDDD3fG+axbt27VqlWLFi164YUXHn300QkTJowdO3bMmDG9evWiqoPoD6+TSqVSq9Wq1Wp4VUulUoVCgUPqUgqDzhMlO9FZKpUa/1euBTqKkpKS5557Dus0otIJiEOhUH19PaV5ogQjrT2j0uf+HMdhiwABubq6etCgQeAsSCqTyWjDQVmJm88d4gsaBMdyubywsHDjxo0kKMD1Pn0ok7Y9ySQ4hm6U8BeZqlFdBrv7devWDRw4ECm74BgLRG5tOCaoIg0JSeXskFUqlTT6cV4ikSBmDIZHuhhFE5B/VqFQqBo/arVap9MZjcb8OB8AKE83gqyhPFSVyWRIQRurgmAXCZpmqKbT/Ima2iuNRiNys5nNZojDCoWisLDwySef/Oabb/yNH+TWwNaYqs1CNHY4HDiftpOwlToGzwrEuHo8nmeeeQZ6PMpxCiEAXIZImxDjaLjSOIHuWC6X33vvvXa7Hd5EsKl2QFNqEmzNJDgOhUIOhwMbdvIPgynM5/N5vV6fz7djx47LL78cww51DYDIZIki6Exo5J30YnY44gLAMRwAoD7GGcAfbbdRoAgmKbJ+4FdarZa0BxKJhG7CPitem8yJvAZMiwaDAbiGnxNAy2QynU5HhnWVSgXlAF1AasGTEqENTvLe12AwTJgwYePGjWw5KGSooSB16HZo5e6AdrxoNIqdwZEjR6LR6Jo1a+CziEEIjmNg0JKcKCt5fCHp2Gw2b9++PRQKYadCMdlJwFNH+0kmwXE83oDrpEo+duzYI488gmqnGDEokog25fcCUBJEJjoWhetTTgF2ekNwI1sTStiJRKLKysqlS5c6nU6ycJJXNTXijZNsPY+8LsiFRPoBeLhDdlm1alX//v2lUmlq81BjKsGtDbuWwsJCkUiEKuwUZE+xtdlK/xS+VzbAMSKpCI45jvvuu++ef/55kUhUXFyMIYipTtUzIYpCZMZXKQcX4YaJUgDyOIQsMAUh12j/WRFm5syZBw8eRPiM2+0m/OU1Ujg9MuJWLpeLVZHbbDY6DAQChw8fvvHGG6F2T60DKPagWDKhdlMoFCUlJatWrcK+xO12g1lYJDKCmO3byWyAYwqh9nq9lBrG7XbPnz+/Z8+emMwmkwmLucViSRQmhOvbhgKI6aB8jxqNBgDdrVu3e+65Z+fOnZjkVKGnfWdO+jydcoL7Gj/AvoaGhmg06nK57rnnHgRGiUQii8WSWmWdVqulYEg85f7770eSlmg0ik0MhaSnD8XStifZAMe0QUOMGSVIjEQimzdvHjJkCHZSIpEImynUdoKaArIYqSyA3cLfVqVAPHAHd1BwGtqJwsLCK6+88qOPPoLjcCAQoHxMcHZM23nVlh3D+EcZZmgGkJnaarXOmzcPSxpkEXZ32HIWq1QqYLHRaMQUKy8v37lzJ8Qj0h0jI2NbEiRzn5UNcIx0iCQjk4suiiTZ7fZbbrkFGytMdaVSSXYqWNJ4jl8tH6nCHZqgAPmf8BpwGy8oKMD+90//vNdeew3ejYgooz14NBoNBAKZO+tS23OUIqUKeJSKb8mSJRaLBUNdJpMVFBTAO7AJ1iT0FSBeKpVSssMpU6bA4T0QCLAVyyhhS2pfPPvulg1wjOWXHE5ZYYHjOLfbbbPZ5syZ06VLFxiRNRoNuXPBewFwHE9qE86nlgI8FKZDwoI/o1SmT58On9m6ujqUT6Xl1m63sxmlaW9EjeybpU2/EVHD5XLBBdtut2/dunXYsGHIDQs1gsFggOtkqrgJX1Kj0YjtZr9+/X766Sd0AIsoBCNMz47p3NI042K/zRI4hoBMC3I4HAY6I2NvIBBwOp3btm276qqrdI0f8v8FHEOCSNUwFe7TNAV4fnh0qFQqi4qK7rrrrm+//TYSiTgcDqrWAQ82r9eL2Y5q1oS/vEbsKM/uM5Q4tKamBsN+9erVo0aNAhZDZYwBj8rrTXOn+d9ixwm1UkFBwUsvvUTeddjHkHVdcDpu5gjMBjjGUozlNxaRqeAxx3E7duyYPHmyXq8nX0sEKwtw3PxJ2PIrCX95jQsvvHDRokX19fUI8gbI1tTUIAtdMBhsOkacQLmZQz9rLoP3AnYPgUDg008/veyyy4DF5CBoMBiQGYoc8FvOR2QbR9jRsGHD9u3bR37fVLgAcxPpnLKG4K33ItkAx/Gow/N/osNFixadc8458HUjNzgKysAwpY1zEsGjLR/oWXMHpVIJMynSdWJ7i8VPIpFQeFhlZeWsWbOcTmdDQwPSLAQCAUpEF4+/He08x3E2mw16WHIvgd9COBxGXOKmTZsuuugipNNK1SiiOYIpQ1NDJpNptVqxWJyfn//hhx9yHGe1WjtgMHoKx2FHhGOO4w4cOHD//ffDHEwOVRhnqLSk0Whg8UvVmO6A90FMs1gsxrwFCsvlcghoqKhmNpvvuOOO3bt3o7YAch7x0telcLhn9K1Ie45yAaS6cTgcwOj169efffbZcNaWy+WpGnKEvwinQqw/UiQjhnPy5Mm//fYbdCaCibUlYyyb4TgeXbAX9vl8K1eurKysVCgUBoNBoVAUFxfDpqdv/GAUwgCSqpHdoe4DP2Kz2QwgRsZOpNZVqVQymeziiy/euXMnKRniNeLxsaOdJ8cSOBpHIpGamhrAXyQS+fTTT5HUEFsQbEdSMt4gFCPlALIO4ebIlTxs2LCvv/6a4zgk9hLyGrdkWHZEOLbZbGTnra6unjZtWqdOnaACM5vNcN+RSCSdO3cm/3kSEIRG8ykASgIdzGZzUVERigDJ5fLhw4evX78eHlrIwcjDYoxp6JdaMr6z7LfICoRYJ7/fDy/scDi8evXqoUOHsglmsQQ2n1lNXIkMf+SMhAoAOMzNzZ03bx7FoUBAzjKat+XrdEQ4xkpOIkY4HN6+fTt8kyUSidFoZAvUp9ZzvolBn31f5ebm4qVycnKADkaj8c/kCU899dS+ffsQtgAUhr5YAN+mZz5yU0CSsNlssJKFQqF33323srKSSsdKpVLUIU3ViIInIu6GMl1kGLz77rurq6vdjR+O4xAK2PRbCN82QYFshmOewEWHMAFzHFddXQ19HKJv165de+mll2LY6fV6iuVLyY6vA96EsBgmu169ej355JPLly8Ph8PkKnv06FHAis/nwzAlNlGjieHbob6CaAyyQFlcW1s7e/bs3r17w2tCq9UiqTwlaE3VqCMsVigU5KR/5plnfv/993DtJ/8lVBrrUHxJ4ct2RDjGMo5h7fV6EVnv9Xpramrq6+tXrFgBvwuZTGY2m1Oog0vV3MiU+0DzAw3jn4FbM2bMqK6uRmbUcDhst9ux6fZ6vcePHyfwjW2kcLhn9K3g0AaiRaPRn3/++bHHHkNhl5ycHKBkXl4eNEJJ5C+ON67ISZ88YcRicefOnd988024OaMcH3E2o4ncvp3voHCMSCHEFKAWKlDA7/c3NDQcPnx4/vz5w4YNI0Eg3kgVzjdBAQCxRqOB1qKiomLJkiUcx8GJDSxwu91wjWIjPgiR23dupNvTybOC47hff/11/PjxCIcDXOr1evJIg7DcBGsS+oqc9MltsVu3bldddZXP57NarRzHUfRdx6xJmMJxks1wnCiZCAUwwvbu3fvMM8+MHDnSZDJB9alWq5Ebnkp5spmU2cyQSDBP1g/K4E4BwWwjobmRxMXYacb+ZfvAtpN4xEl/gmksFotJqurdu/ftt9/ucDjgJBAOh1Gqg+paQjHKhntkcUAXxhs05tQmEQHFsEOhEEorBINBgJ3f71++fPmFF16I0aXX68E7sIDl8kmZ0sRJFM1hRwLauCeywclkMqPR2KdPn8OHDyc6v4TrT0kBAY5PkCgYDCJ8CFswQENVVdWbb7558cUXY/RTLXSMUZQaoTkgl8tRbEmpVEKyxleI/WtiJrTqV9Q9XqNVHwp3YyTYJc9uhULRtWvXK664YtOmTeFwGJWzYaFyOp0QkyORSCAQ8Pv9AOUsdpwCBLMlS1Bi1Waz0QikfCzBYNDn8zU0NCxevLhPnz4ikSgnJwc58FIFx+x92LGBxFsikaikpAQBJhs3brTZbCdmjtBKEQUEOD5BSJr/Ho+H5oPX662rq6uqqlqyZMkll1yCbLzYhufk5GCfKJfLjUYj+XUR6rEJMehkbIMd+q3Rjn1i02dS1Qc8BYnJdTod7XlFIlF5efm8efMQU7t//37kCWJ3JxTsjkXxBJOyqMW+L0EzpGOEw4A+9fX1sHzu3r17woQJZrOZrYSbm5vLwijL2UT5GO+3er0e2zu9Xq/Vah966CHqbRZxIy1eRYDjE2yg1PWQ15CwlQwUXq/Xbrdv3Ljx7rvv7tmzp8FgkMlkcMkkW4dIJMrLy8OwRs1mUrexY72DtKHZRBCBRqMxmUzkrGKxWDp37nz11VcjgiAQCHg8HngL0FQntDrBoexq0QuyDYQ7YwRWV1dDLDh+/PjChQtHjBhhMplEIhGMzFje4OpAmShSOLQIzaH6R/qLW265xe/3OxyOLF4m23GUCXB8gvg0K1h1HiLx8RXtoLds2TJ58uQBAwYUFRVRzCjNBJ1Op1QqUXWUTlJtUBrl1KBrWqlBD2pmI1XdQGVrUtog0AYJxqCmFIlE3bt3X7x4MZT1lO4g0PghdpzgUHa1CNHoTUEHj8djt9sptmLPnj2TJ08uKioC6cib29z4wWqXcjjGUCG5Gzu/UaNG/fe//4UxVnBoa43BKMDxCapiVkB/R3pkCAJut7uhoQHyMqVxcTgcy5cvv/baa0tLSw0GAxmsCM6USiXUGlChYnDH/m0mSqb8stie0PRLybOgMUeSCp7eBsnAsGiJRKJrrrnm8OHDrAWPXRFPcCi7WuSTwL44qZKj0eixY8fmzJkzcOBAjCi9Xg++IKEKTup0OpZrNPaSKMKE3+IRKMtAIoVYLK6oqFi7di3HcXV1dfBsyy5upMXbCHB8gg1er5fdLwOdQ6EQxSywOR7r6+uhx+A47uDBg2+//fatt97av3///Px8s9mMNGYqlcpoNBJM8/JJ0mFKsK+Jm8SDXeoAr9HErRL6CtMbmduQa0ahUKjValKyUwy6xWKpqKhYtGjRzp07yeMN6yKJzCf4lC0taCSwFcBrYshhXH311VdXX301aMhqwwhwsc41IR0nxCy6mIBYLpcrGj9SqbSiouKtt97yeDyIpUR6imzhQxq9hwDHJ5iBzWP4fx/WmsRuJ1nUhhsAHEKDweDu3bvnzp07adKkIUOGkBMoSjCo1WrIGrF/aSa0UiMeHMf2BGdS1Q3aGWCGA0fgMojgGlj56DKTyXTDDTd88skntbW1oVCI0hyf4FB2tQDH8GOj+p4cxx0/fnzKlCnFxcVqtdpsNmM5VzZ+QEPk8SGkTpV0jPtIpVLcX6FQ4KF/Kv2fffZZ+CYihJLjOJRvzy6GtP/bCHCcPA8IvpEckvLzIoHnkiVLHnjggfPPP79bt25wyyfvYwx3uVyOZMowzqjVamxCSdlKchA8mmnWQfF60nKrpB8gH1LY0+i37K0gpSqVSnQPRc+oqCB6hT6kNhyG3gsNuMRBFhOJRLm5uXfeeefmzZuRj4bdnUSjUagsob5k10hs/KFiSp6jzfsl77l0SO4QOIMVhRV7Q40fDBtKK0jBHdFodM+ePa+88kqvXr0QWSeTyViPlFQtkzz60yFyciIPEYQJrASTJk3av38/gqHdbnckEqHIwOYRTLiquRQQ4Li5lIq9juAY04zguKGhwev1Qsiura398ssv58+fP3369KFDh/bq1ctkMp0USQmbSEiheYINqVQqlTd+AKmQYk4Kzbg/pHLa5yK/JZS27J2RcU2v18OxGumecZLMj/iqleCA+gmHKrxst27dbrnlFigrI5FIQ+OHgC+5RiwHkzvTxNNRJIx3ATRgWEu8Xi+rKQZke73egwcPLl++/JprroFDMQjOhh2lMFifx33eIYAYWWdFItGkSZN27doFjTZp5/x+fxYrkZIbFSn5lQDHyZMRcEwqTjZpOm5K0xJJc7xe7759+z7++OOnn356/PjxQ4YMycnJQXFf1CIhXQFmiFarVavVpCLkTRsYx+BsR6pqqGjZ5IoAu9jfKpXKsrKyAQMGjBkzZtq0aTNnzjz77LMhnOJi6A3RTmEChNilCD2EJIggGoCRXC4/7bTTrrjiivXr16OMqd/vh2YZqX5B3kgk4vV6XS6Xx+NBCB+RnddIntN//SXvtrxDeKphMUZUEWuQQDwxKnegJOv+/ftnz57dr18/2HvJcUImk8HPFxSDx2RKVkTeYGAP4YmIcgEikeiyyy7bv38/1g+n0wmVMdKiUiDlX2kjHLWIAgIcJ08+zEP4ALCeAIik8ng8brebfOPIlxmitMfjOXr06Ndff71hw4a5c+dOnTr1yiuvPP300/Pz800mk7Hxw84TtGUyGRtMwV4gFoshO0OMgmIEJRsgb5rN5t69e48ZM+Zf//rXnzvi999/f+PGjb/88guZzlauXHnOOedg8ovFYqwEeES8JYHtQNJt0p9AkBeLxRqNhq1n2KtXr8suu2zu3LkAZYfDAT2G0+mkaB3CRNr70xlqJM/p5v0y3mKAbGesdhgjZMeOHf/3f/931llnmc1mJBEmNTqi8LVaLbE7VoWVNMF5PySIR7kAkUiEzFl9+/bdunUrx3FOpxOO4VAc06LYPKoIVyVAAQGOEyAW71LMc/YknYEQRE5LkKPZQ8IIqEERFuzxeI4fP/7VV1+99957s2bNmjFjxtSpU++7774bb7xx9OjRlZWVffv27dWr12mnndazZ8/u3buXlZWVl5f36NGjd+/effv2raioOOOMM4YPH3755Zfffvvtjz766HPPPff6669v3rz5yy+//Pnnn48cOWK3230+XzgcjkQi5DFSV1fncDii0ejChQs1Gg1gUaVSUdRGrEjLm9LJHRIQoBF7E7lcjsAH5ADp3bv3jBkzjh49GolEDh8+TDRExWKv1wtAZBdIts1yqjXapIWIRCI+ny8QCEAXgeC6uro6iMlWq3XBggXjx4+HUUEqlRIKI3RIoVBAB4W/sWRJ4RlaC+G5THFM3bt337ZtG3IfklBMtke4WLQGDTv4PQU4Tn4AEByctBEMBnkCMjKZwRnD7XYjRwwwOhqNwh7IuxV0kbw6cg6Hw2az1dbWWhs/dXV1drud9Hq4A7bMcA4JBoM8mTEajWKzCekSyRAw2T744ANkQgACIsgFoV889Ez6EGhCQEBYTyKhWq1mhUHk8IX8KBKJVCrVDTfcsGbNmiNHjthsNkQVw5SHVe1/rjH8/8lzunm/pKhOv9/v8XhA83A47HK5oDjeuXPnww8/fPrpp+t0Oo1GQyhM8ArVE6n7cR62hCT8iOMxiB5HLICnI+UyPu200xYtWoSBVF9fT1sQNjwni1M7NY/brXKVAMfJk5UHnXRIUhKdgQ6RgIPOAxYhwaEf0ET7/X7IejDWxxOr6T5osG7RvK+AVn6/3+fzEWpwHEczLRgMHj169Pjx4386MD3++ONQZYrFYm3jB6Xt4k3vRM/Hg2MWhqRSqabxg906gtGB11DmyGSyCy644L777vvggw8OHTpEJIJOgBWKqZ08p//6S7ohr1FXV+fz+VgTgsfjOXjw4NatW2fMmDF8+HCLxaJSqRD8IpFIAMcKhUKr1VLBcsAuISYUymSwTZTUJ72ebg44hk1YJpOpVKqCgoKePXt+8MEH0WjUarVCdIBzC1Qu5OiWxamd/srtNj0S4LhF5I5FPcIFCLY85yfsW7GNxWTmya0o2A5AR+wTFAt0Mew/pIiEWA1bFrl2RKPRUCgEURHPOulTIFAHAgHoZFnvsaeeegrx33q9XqVStYajG5yRaY8MjICjHonGuIY8uFnfW/LE6ty584ABA26++ebZs2fv3r3bbre3iKPN+DEPhemQNjoOh+PAgQMbNmx44oknLrnkktzcXI1GQ96NsMFqtVp6TcJHIjUgkvYNuOCk2JrESXocC8dwu8zPz1+2bBnHcTabDSpjvBSWGYwQt9uN7VozSCVckhgFBDhOjF7pcDUmQ+zfRPtGOMJrYM14/fXXO3fuDC9UKJFJlYzUt5TTOQlESOgn2K1TtBjhGjpAym61Wl1WVjZkyJBZs2a9++67O3fuhHwHJQxpD7BRoPWJtiyoQuD3+2mTQcoOVuDF3fyNH1qM3W73H3/8ceDAgY8//njatGljx47t16+fyWTC6tLa4TYJERNGWiAy7Tywtp1xxhkrVqyAQABqQBaGWBC7UUt0vAnXn5ICAhyfkkRpdwEPPekw0Y7SD3mNQCAQDAbdbve8efOo9g/kNTL0wy8Vh4nCQdLXk0c2OqPVanU6nVqtJsc+hUKBxGMSiaSwsHDYsGF33HHHc889t3z58k2bNu3bt6+mpgZGNqpIgp0EtiAErydt4Eqoejwez/79+7dt27Zs2bIXXnjhwQcfHDduXFlZGblOQxurUqksFgsvBp0Ok6ZDC3+IJRaIbDabIa0PHTr0o48+gpsN2XhdLpfX6yW3et6ylOh4E64/JQUEOD4lidLugpOCBTlvpKS70Ja43e733nvvzDPPhAYTaciRWZ8UCLm5uS1Eh1P+nDbXrDkLgicBMW6CK1EigN3pwwuwoqJi+PDh119//T/+8Y9p06bNnj37/fff//TTT3fv3v3dd9/9/PPPv/322++//75v3769e/f+8ssve/bs+e6773bu3Ll+/fqlS5e+/vrrM2fOfPzxxy+//PJRo0YNGDCgrKzMYrHQEsU+kTpGOSVIxqfGKV+8lS6gIEwsXSKRaOzYsatXrwbTI5FIXV0dxpjX64UTBTYKAhynZHI1cRMBjpsgTpp+1QZwHA6H6+vrMT+XLl3av39/yHQU7Y2ypCxQtmMb9Z+USiULglhCkHgBIS1IYET6WThpGI3GnJycvLy84uLibt26lZeXl5WVlZaWlpSUdO3ataSkpLCwMDc3l6IW8StyQsBbowoM1CZyuRz2T1INx0PV9qIYUJgMp5R1GnbdQCAAVxCYJaCcwf4J84GGX5pOj0zulgDHmcc9mg+8RqrehIqhhMPhhoaGSCSyZcuWSy65BJHTRqMRM1mr1VIIWbsgC6tNJt8DVA/iFceSyWSxYI1UcxDzKVCbgJtkXno1iUSiUChUKhVWJkJbXMA7JAjmrRB0t/ZtkC/jvffee+DAgWg0ikAPMkSTOzxv18UOuVSNN+E+RAEBjokUHa7BTi22DaNNIBBwOp3I4+X1er/55pvRo0fDN4tCM+C2RdDTSo0mkAswSloCKCVioydwGUK9KWGTQqHAD3neHeRvYDKZ9Ho9i+xQs1J/8L5YFRAAyZOaY73W6Les4qWV6BbvtuhDWVnZk08+eeTIEbAe+mJWh45QJjJ1siME7Q43YVr/hQU4bn0ap+sTYicYe+bo0aPQIfr9/mPHjnEc98svv9x8880QEouKipB1rA1gpfmlLiAFo0uUMilWLkbwG1x94dGsUCgovS+KBsTGaEBbDRCnBYCFV14bawA5FMcDx7Y/bzabS0tLX3rpJbCbyo7AhxLpgcg5nU24wQ4PntScrmM8w/olwHGGMYzdTrZwevB+TodItYFDCspCVXmHw/HMM8+gHiCAzGAwtDagsLYvFvIoPWnTQiiMaUj3QeIw3Ydy4UPyRd4PFAhnHTkgcWNhYPUSSLOHaDrcE8Iy/U1DU97pp5++atUqZAIiLPb5fGy5Qr/fD19AQTpuS4AQ4LgtqZ3Zz8LU9fl88+fPHzRoEFBJp9ORelSv1xcXFwPyUHIbLrfk2gWAa2347oD3Z9cSYgeWB2RMRZK8wsLC8847b9++fXV1dQigJ2/izB6a2dJ7AY6zhZOt/x6RSASp1DiOW7du3ahRozDh1Wp1Tk4OiZlwaaBK22T4Ip1DB4TLVn1lnlSOQ/zNzc0lW6XZbL7nnntQVIyiYFjftdYfQcITTkEBAY5PQSDha6IAx3EulwtaC47j9u7d+89//rOkpASOFhDQkJ8MildWycAqW1sVmzrgzeVyOfTdVNRcqVRqNBqTyaTVaqE679Onz7x58xBlR/oupAQCIgs5KGict2NDgON2JH6GPZpSW9TU1EBxYbValy1b1qdPHyhb8/LyAMRwM2CRkRXZhHarUgBackAzFErXXnstvNmqq6vhRxwOh5F2jix1Ahynw2wU4DgduJAZfXC5XMjnQAnnEB2wZcuWG264AfHBSIlgMBh4qolWBSDh5uRMom78QFMsEomKi4tnzpxZW1uL3Gxwh0CIHeVihs0WMnJmDMTs7aUAx9nL21S/GZQV1dXVlGWRMul88803U6dOHTBgABQXsCYJygp2f9B6bexF2FJeUBxVVlZ+8cUX0WjUZrPBcQ2yMMx3SBUExUU0GvV4PKkeL8L9EqaAAMcJk6zD/oDKOIVCIbvd7nA4EEV98OBBSFibNm0aO3Ys9BWdO3eG+5dgyms9IMadeX5+Op2usrJy3LhxVVVV1dXV5K+GItxI1QYsxmqKSgVut7vDDuz0eXEBjtOHF+neE47jfI0f2t5SXjTUvAiHw7W1tc8//3xZWRmC3wRHt9bGYgSbQEchkUhMJtPll1++atUqVHQFp5xOJ6RgShKE80jVhrYQ1pEO00+A43TgQmb3ASEDZK93u93r169/4okn8vLydDodJeE0m828HBcQnKH5pTgLUnFQow0QrV0eQS/Iq8pYwQAACARJREFUa1DcCmhCMd8kC8tkMqPRqFQqRSKRWq1GHmqpVDpo0KDXXnuNYikze1R1yN4LcNwh2Z7Sl4Zg5ff7XS4XtsZer/fgwYPvv//+ueeeKxaL9Xo9pbkwGAw5OTmAEuAOGeLaBRPT8KFKpRLVS4kyyHaE8HScRPEOwLFCoSgvL7///vt37doFAx2MrillsnCztqCAAMdtQeXsfobX64VdHqU0aPPLcZzVan355Ze7d+8uEomKioq6detGEIP8cGq1GvkiCKDZC9BOQ8RMSZdi35R3BpHWyLUP92GdTgcPbqlUqtVqVY2fiRMnLliwgJIBoSpYdg+5bH07AY6zlbNt915OpxNKSWRlRIFUt9uNnHAcx9XU1EydOhV7aovFApdYmUzGxoZQPnseJHXAQ5VKhdQZQFtKkWE2m0GNgoIC5CweOHDgRx99dOTIEdDf7XZbrVYk4Ws79gtPSh0FBDhOHS076p0gDkejUZ/PBxSGHtnj8bhcLp/P5/f7Gxoa9uzZM2XKlLy8PEqqoFQqdTodycXxRM5sReR474usTHhrFAZUKpWIQc/NzUUivX79+r300kuHDh0C8V2NH7Q9Ho/T6RTCOjJxOgpwnIlcS68+AwVQuzoUCpFNDzplfBuJRILBYF1d3Q8//HDttdf269cPKCyXywmReRYtOowHW5l+nl4wtgEshpoCbYlEAu1E7969Z8yYsX//fmTC5DjO7XZj2SP3CQjL6TVKhN40gwICHDeDSMIlTVIAecpJX0Hl32HcA0ag7mckEvH7/ZFIZNOmTffee2+vXr0QPyaRSJAZDr4WvL+ZDrvx+s97TTo0mUxGo9FsNqMWNdyK8/PzBw8ePH369G+//ZZg1263e71eisqpr6+3Wq1Y/wTHtSbHbJp+KcBxmjImg7qFNAjBYBAbZIIDAuhIJIIiT0BqIIXNZtu8efMjjzxy5plnQq0MJ+XYv/HgLNPPx74pzkAcJqG4S5cut9xyy7x586qqqkBbj8cDBTEoGQqFUO8Z3+JQCHrOoBlEXRXgmEghNNqIAoTXiCv54YcfZsyYMXLkyPz8fET0od4oAhz0ej1SvJODLXBKo9EAjnngxSIar50ofEMshSaBnsLLxcFaIwlAqYGLcYhKJTwPNhRC1ev1CC4Xi8VwKMa7l5eXT5gwYeXKlceOHYO2B4EbvGWvjdgmPKb1KSDAcevTWHjCXyng9XrhfUG77GAwePjw4cWLF48fP76oqAgOtmq1GqoMyM5Io5zT+GHriqI+HvxwAY7kisAiaSyMnhKdTwnHPJ0vez31gXCcbeAFO3fuDBRmvxKJRFqt9vzzz581a9auXbtsNhvyNEFTjHQTkHxpVfsrdYWjDKaAAMcZzLwM7TolT4ANCrJeIBBwu912u/3XX399++23//a3vwGFUbxZp9MZDAa1Wk3IBW8wtj4TgkrYM6z4fErwjb0A8EpBcXRIfcBPAMrkLoJvkXFYo9Ggz6jOp1KpKNca3UTT+FEqlRaLZfDgwTfeeOOGDRv27duHqkjhcBiuKcFgkFL/CHCcoSP/lN0W4PiUJBIuSDEFULQYwl0gEEAiG1KG+nw+lB3ZsmXLY489dsEFF5CkKZFIzGYzPJexzT+pdMlez7ZjARdnCBljG1TyDnI3dAixl+E+KIAS+y3OsGoNsVisUChkMplEIlGr1T169Ljpppvmz5//+++/k8zLcVwwGPR4PD6fLxgMIj0IJGXwg65MMXuE27UfBQQ4bj/ad9QnU2UgXgobq9VKlTQBRhCf16xZ8+9//3vEiBFU/4m0ENBUaLVak8lkNpv1er1arZbL5cBHBFNQm6dboMMmAJRKnJAahKRg3JZEY6lUChWwRCJRqVRwSkOdDtyf7bNCodBqtYMHDx43btycOXN++uknoonX67Xb7az7NmA3GAyy44WwWPCgYMmS6W0BjjOdg5nXf/IHQHGgQCCA+BFAjMfjcbvdbAFj+HXZ7fbt27c///zz11xzTUVFhVqt1uv17N5fLBarVCqNRqNQKIB9isYPtdGI/QtgPelfeP5CASIWi4HOuC3VnKYGniuXyw0GAxtkaDQaYaIUi8WFhYVjxoyZOXPmypUrf/nlF4fDgbd2u902m422CDgZCoU8Ho/f72fBN7adeSNA6HEcCghwHIcwwulWowBcZUkeBL5Q5ALrNhAMBh0Oh9frZV27wuHwjz/+uHTp0vvuu+/aa68dNGhQcXGxXq9XqVRIvhNPOibHXl7jpECMk3DqgFaB4BhPQaoNyukskUgMBgO+0mg00KLI5fLc3FyLxVJZWTl58uR33333q6++Onr0KMFuKBRyN34IZP1+P9WHhQch+QvSNbxGqzFKuHFbU0CA47amuPA8SMfBxg8Vlgf0ENBAcMYhpGOO41DejYUnh8Px448/rlix4tlnn73jjjtGjBjRs2dPEpl5jm48FKbD5sMxhGVAMOvERuoIaLS7du06ZMiQ66+//j//+c/KlSuPHDlit9vRbQTCwE2iuroaRTrwarw8paFQCGdALkJwIhE1hBGVNRT4/3AsfAQKZDQFKErN4XAcOnRozZo177///tNPP3377bdffPHFAwcOLCgogJ8ca5GDzIs0+XCfYHE5VqdBZyAmI+GG2WwuLS0999xzb7rppocffnju3Llr1qz59ttvbTYbS9JoNAorHJ1kFxU6KTQ6OAUEOO7gAyAbXj85OCYPNlbaJUQm8I1tCHCcDYMmLd/h/wFLDv1f6cyELQAAAABJRU5ErkJggg==;" parent="1" vertex="1">
          <mxGeometry x="267" y="325.5" width="64.5" height="64.5" as="geometry" />
        </mxCell>
        <mxCell id="W3P_yqv4Tu-tLpdnqWf0-118" value="&lt;font style=&quot;font-size: 14px;&quot;&gt;Any LLM&lt;/font&gt;" style="text;html=1;align=center;verticalAlign=middle;whiteSpace=wrap;rounded=0;fontFamily=Comic Sans MS;fontStyle=1" parent="1" vertex="1">
          <mxGeometry x="238.5" y="470" width="110" height="30" as="geometry" />
        </mxCell>
        <mxCell id="W3P_yqv4Tu-tLpdnqWf0-125" value="" style="edgeStyle=orthogonalEdgeStyle;rounded=0;orthogonalLoop=1;jettySize=auto;html=1;" parent="1" source="W3P_yqv4Tu-tLpdnqWf0-122" target="W3P_yqv4Tu-tLpdnqWf0-124" edge="1">
          <mxGeometry relative="1" as="geometry" />
        </mxCell>
        <mxCell id="W3P_yqv4Tu-tLpdnqWf0-122" value="&lt;font size=&quot;1&quot; face=&quot;Comic Sans MS&quot;&gt;&lt;i&gt;&lt;b style=&quot;font-size: 16px;&quot;&gt;SQL&lt;/b&gt;&lt;/i&gt;&lt;/font&gt;&lt;div&gt;&lt;font size=&quot;1&quot; face=&quot;Comic Sans MS&quot;&gt;&lt;i&gt;&lt;b style=&quot;font-size: 16px;&quot;&gt;Query&lt;/b&gt;&lt;/i&gt;&lt;/font&gt;&lt;/div&gt;" style="text;html=1;align=center;verticalAlign=middle;whiteSpace=wrap;rounded=0;fillColor=#dae8fc;strokeColor=#6c8ebf;" parent="1" vertex="1">
          <mxGeometry x="400" y="203" width="100" height="77" as="geometry" />
        </mxCell>
        <mxCell id="W3P_yqv4Tu-tLpdnqWf0-123" value="" style="endArrow=classic;html=1;rounded=0;entryX=0;entryY=1;entryDx=0;entryDy=0;exitX=0.969;exitY=0.142;exitDx=0;exitDy=0;exitPerimeter=0;" parent="1" source="W3P_yqv4Tu-tLpdnqWf0-115" target="W3P_yqv4Tu-tLpdnqWf0-122" edge="1">
          <mxGeometry width="50" height="50" relative="1" as="geometry">
            <mxPoint x="340" y="320" as="sourcePoint" />
            <mxPoint x="580" y="280" as="targetPoint" />
          </mxGeometry>
        </mxCell>
        <mxCell id="W3P_yqv4Tu-tLpdnqWf0-124" value="" style="shape=datastore;whiteSpace=wrap;html=1;" parent="1" vertex="1">
          <mxGeometry x="412" y="325.5" width="76" height="70" as="geometry" />
        </mxCell>
        <mxCell id="W3P_yqv4Tu-tLpdnqWf0-126" value="&lt;span style=&quot;font-size: 14px;&quot;&gt;SQL Database&lt;/span&gt;" style="text;html=1;align=center;verticalAlign=middle;whiteSpace=wrap;rounded=0;fontFamily=Comic Sans MS;fontStyle=1" parent="1" vertex="1">
          <mxGeometry x="395" y="470" width="110" height="30" as="geometry" />
        </mxCell>
        <mxCell id="W3P_yqv4Tu-tLpdnqWf0-129" value="" style="endArrow=classic;html=1;rounded=0;exitX=1.02;exitY=0.131;exitDx=0;exitDy=0;exitPerimeter=0;entryX=0;entryY=1;entryDx=0;entryDy=0;" parent="1" source="W3P_yqv4Tu-tLpdnqWf0-124" target="W3P_yqv4Tu-tLpdnqWf0-104" edge="1">
          <mxGeometry width="50" height="50" relative="1" as="geometry">
            <mxPoint x="530" y="330" as="sourcePoint" />
            <mxPoint x="572" y="237.5" as="targetPoint" />
          </mxGeometry>
        </mxCell>
        <mxCell id="W3P_yqv4Tu-tLpdnqWf0-130" value="Results" style="text;html=1;align=left;verticalAlign=middle;whiteSpace=wrap;rounded=0;fontStyle=1;fontFamily=Comic Sans MS;fontSize=16;" parent="1" vertex="1">
          <mxGeometry x="590" y="207.5" width="82" height="31" as="geometry" />
        </mxCell>
        <mxCell id="W3P_yqv4Tu-tLpdnqWf0-132" value="" style="shape=image;verticalLabelPosition=bottom;labelBackgroundColor=default;verticalAlign=top;aspect=fixed;imageAspect=0;image=https://medtech-solutions.ch/wp-content/uploads/2020/05/noun_testing_1327123-1024x1024.png;" parent="1" vertex="1">
          <mxGeometry x="572" y="305" width="94" height="94" as="geometry" />
        </mxCell>
        <mxCell id="W3P_yqv4Tu-tLpdnqWf0-133" value="&lt;font face=&quot;Times New Roman&quot; style=&quot;font-size: 12px;&quot;&gt;Validation&lt;/font&gt;" style="text;html=1;align=center;verticalAlign=middle;whiteSpace=wrap;rounded=0;fontFamily=Comic Sans MS;fontStyle=1" parent="1" vertex="1">
          <mxGeometry x="584" y="390" width="66" height="20" as="geometry" />
        </mxCell>
        <mxCell id="W3P_yqv4Tu-tLpdnqWf0-138" value="" style="curved=1;endArrow=classic;html=1;rounded=0;exitX=0.5;exitY=1;exitDx=0;exitDy=0;entryX=0.667;entryY=1;entryDx=0;entryDy=0;entryPerimeter=0;" parent="1" source="W3P_yqv4Tu-tLpdnqWf0-133" target="W3P_yqv4Tu-tLpdnqWf0-115" edge="1">
          <mxGeometry width="50" height="50" relative="1" as="geometry">
            <mxPoint x="510" y="497" as="sourcePoint" />
            <mxPoint x="300" y="400" as="targetPoint" />
            <Array as="points">
              <mxPoint x="550" y="440" />
              <mxPoint x="450" y="450" />
              <mxPoint x="350" y="440" />
            </Array>
          </mxGeometry>
        </mxCell>
        <mxCell id="W3P_yqv4Tu-tLpdnqWf0-143" value="Prompt" style="text;html=1;align=left;verticalAlign=middle;whiteSpace=wrap;rounded=0;fontStyle=1;fontFamily=Comic Sans MS;fontSize=16;" parent="1" vertex="1">
          <mxGeometry x="273" y="207.5" width="51" height="31" as="geometry" />
        </mxCell>
        <mxCell id="NPvgd6T0WxlYge50YjSt-3" value="Retrieval" style="text;html=1;align=left;verticalAlign=middle;whiteSpace=wrap;rounded=0;fontStyle=1;fontFamily=Comic Sans MS;fontSize=16;" parent="1" vertex="1">
          <mxGeometry x="94" y="207.5" width="82" height="31" as="geometry" />
        </mxCell>
        <mxCell id="NPvgd6T0WxlYge50YjSt-6" value="1" style="ellipse;whiteSpace=wrap;html=1;aspect=fixed;fontFamily=Times New Roman;fillColor=none;fontColor=default;labelBackgroundColor=none;" parent="1" vertex="1">
          <mxGeometry x="101" y="247" width="16" height="16" as="geometry" />
        </mxCell>
        <mxCell id="NPvgd6T0WxlYge50YjSt-7" value="2" style="ellipse;whiteSpace=wrap;html=1;aspect=fixed;fontFamily=Times New Roman;fillColor=none;fontColor=default;labelBackgroundColor=none;" parent="1" vertex="1">
          <mxGeometry x="302" y="247" width="16" height="16" as="geometry" />
        </mxCell>
        <mxCell id="NPvgd6T0WxlYge50YjSt-8" value="3" style="ellipse;whiteSpace=wrap;html=1;aspect=fixed;fontFamily=Times New Roman;fillColor=none;fontColor=default;labelBackgroundColor=none;" parent="1" vertex="1">
          <mxGeometry x="453" y="284" width="16" height="16" as="geometry" />
        </mxCell>
        <mxCell id="NPvgd6T0WxlYge50YjSt-9" value="4" style="ellipse;whiteSpace=wrap;html=1;aspect=fixed;fontFamily=Times New Roman;fillColor=none;fontColor=default;labelBackgroundColor=none;" parent="1" vertex="1">
          <mxGeometry x="622" y="180" width="16" height="16" as="geometry" />
        </mxCell>
        <mxCell id="NPvgd6T0WxlYge50YjSt-15" value="1" style="ellipse;whiteSpace=wrap;html=1;aspect=fixed;fontFamily=Times New Roman;fillColor=none;fontColor=default;labelBackgroundColor=none;" parent="1" vertex="1">
          <mxGeometry x="83" y="549" width="16" height="16" as="geometry" />
        </mxCell>
        <mxCell id="NPvgd6T0WxlYge50YjSt-16" value="2" style="ellipse;whiteSpace=wrap;html=1;aspect=fixed;fontFamily=Times New Roman;fillColor=none;fontColor=default;labelBackgroundColor=none;" parent="1" vertex="1">
          <mxGeometry x="83" y="583" width="16" height="16" as="geometry" />
        </mxCell>
        <mxCell id="NPvgd6T0WxlYge50YjSt-17" value="3" style="ellipse;whiteSpace=wrap;html=1;aspect=fixed;fontFamily=Times New Roman;fillColor=none;fontColor=default;labelBackgroundColor=none;" parent="1" vertex="1">
          <mxGeometry x="83" y="617" width="16" height="16" as="geometry" />
        </mxCell>
        <mxCell id="NPvgd6T0WxlYge50YjSt-18" value="4" style="ellipse;whiteSpace=wrap;html=1;aspect=fixed;fontFamily=Times New Roman;fillColor=none;fontColor=default;labelBackgroundColor=none;" parent="1" vertex="1">
          <mxGeometry x="83" y="650" width="16" height="16" as="geometry" />
        </mxCell>
        <mxCell id="NPvgd6T0WxlYge50YjSt-23" value="获取数据库的schema和用户偏好，并基于语义搜索获取与当前提问相似的golden cases" style="text;html=1;align=left;verticalAlign=middle;whiteSpace=wrap;rounded=0;" parent="1" vertex="1">
          <mxGeometry x="109" y="542" width="470" height="30" as="geometry" />
        </mxCell>
        <mxCell id="NPvgd6T0WxlYge50YjSt-24" value="基于prompt 模板，将schema，golden cases和上下文组织为prompt，提示LLM生成SQL" style="text;html=1;align=left;verticalAlign=middle;whiteSpace=wrap;rounded=0;" parent="1" vertex="1">
          <mxGeometry x="109" y="576" width="470" height="30" as="geometry" />
        </mxCell>
        <mxCell id="NPvgd6T0WxlYge50YjSt-25" value="用SQL查询database，获得真实数据库结果" style="text;html=1;align=left;verticalAlign=middle;whiteSpace=wrap;rounded=0;" parent="1" vertex="1">
          <mxGeometry x="109" y="610" width="461" height="30" as="geometry" />
        </mxCell>
        <mxCell id="NPvgd6T0WxlYge50YjSt-26" value="对结果进行评估，如果评估正确，则返回给用户&lt;div&gt;&lt;br&gt;&lt;/div&gt;" style="text;html=1;align=left;verticalAlign=middle;whiteSpace=wrap;rounded=0;" parent="1" vertex="1">
          <mxGeometry x="109" y="643" width="450" height="30" as="geometry" />
        </mxCell>
        <mxCell id="NPvgd6T0WxlYge50YjSt-28" value="5" style="ellipse;whiteSpace=wrap;html=1;aspect=fixed;fontFamily=Times New Roman;fillColor=none;fontColor=default;labelBackgroundColor=none;" parent="1" vertex="1">
          <mxGeometry x="84" y="684" width="16" height="16" as="geometry" />
        </mxCell>
        <mxCell id="NPvgd6T0WxlYge50YjSt-29" value="5" style="ellipse;whiteSpace=wrap;html=1;aspect=fixed;fontFamily=Times New Roman;fillColor=none;fontColor=default;labelBackgroundColor=none;" parent="1" vertex="1">
          <mxGeometry x="620" y="413.5" width="16" height="16" as="geometry" />
        </mxCell>
        <mxCell id="NPvgd6T0WxlYge50YjSt-30" value="&lt;span style=&quot;color: rgb(0, 0, 0); font-family: Helvetica; font-size: 12px; font-style: normal; font-variant-ligatures: normal; font-variant-caps: normal; font-weight: 400; letter-spacing: normal; orphans: 2; text-align: left; text-indent: 0px; text-transform: none; widows: 2; word-spacing: 0px; -webkit-text-stroke-width: 0px; white-space: normal; background-color: rgb(251, 251, 251); text-decoration-thickness: initial; text-decoration-style: initial; text-decoration-color: initial; float: none; display: inline !important;&quot;&gt;如果结果评估不正确，则由查询结果、修正建议，以及原始问题和schema重样组织prompt, 并提示LLM重新生成SQL&lt;/span&gt;" style="text;whiteSpace=wrap;html=1;" parent="1" vertex="1">
          <mxGeometry x="109" y="667" width="490" height="50" as="geometry" />
        </mxCell>
        <mxCell id="6sGHBSzAUmie3uHnxWEB-1" value="" style="shape=datastore;whiteSpace=wrap;html=1;" parent="1" vertex="1">
          <mxGeometry x="76" y="313.5" width="30" height="21" as="geometry" />
        </mxCell>
      </root>
    </mxGraphModel>
  </diagram>
</mxfile>
